<svg width="24" height="24" viewBox="0 0 24 24" fill="none" xmlns="http://www.w3.org/2000/svg">
<path fill-rule="evenodd" clip-rule="evenodd" d="M14.3463 10.726V7.69003H15.6993V13.993C15.6993 14.543 15.7213 15.137 15.7433 15.5H14.5333L14.4783 14.653H14.4563C14.1373 15.247 13.4883 15.621 12.7073 15.621C11.4313 15.621 10.4193 14.532 10.4193 12.882C10.4083 11.089 11.5303 10.022 12.8173 10.022C13.5543 10.022 14.0823 10.33 14.3243 10.726H14.3463ZM14.3023 13.575C14.3353 13.454 14.3463 13.322 14.3463 13.179V12.376C14.3463 12.266 14.3353 12.134 14.3133 12.024C14.1923 11.496 13.7633 11.067 13.1473 11.067C12.2783 11.067 11.7943 11.837 11.7943 12.838C11.7943 13.817 12.2783 14.532 13.1363 14.532C13.6863 14.532 14.1703 14.158 14.3023 13.575Z" fill="#1A1712"/>
<path d="M8.35492 15.5V8.08603H9.70792V15.5H8.35492Z" fill="#1A1712"/>
<path fill-rule="evenodd" clip-rule="evenodd" d="M17.2582 2.83306C13.7916 2.44562 10.2083 2.44562 6.74171 2.83306C4.72965 3.05794 3.10532 4.64295 2.86876 6.66548C2.45423 10.2098 2.45423 13.7903 2.86876 17.3346C3.10532 19.3571 4.72965 20.9422 6.74171 21.167C10.2083 21.5545 13.7916 21.5545 17.2582 21.167C19.2702 20.9422 20.8946 19.3571 21.1311 17.3346C21.5457 13.7903 21.5457 10.2098 21.1311 6.66548C20.8946 4.64295 19.2703 3.05794 17.2582 2.83306ZM6.90832 4.32378C10.2642 3.94871 13.7357 3.94871 17.0916 4.32378C18.4217 4.47244 19.4872 5.52205 19.6413 6.83973C20.0423 10.2683 20.0423 13.7318 19.6413 17.1604C19.4872 18.478 18.4217 19.5277 17.0916 19.6763C13.7357 20.0514 10.2642 20.0514 6.90832 19.6763C5.57821 19.5277 4.51272 18.478 4.35861 17.1604C3.95761 13.7318 3.95761 10.2683 4.35861 6.83973C4.51272 5.52205 5.57821 4.47244 6.90832 4.32378Z" fill="#1A1712"/>
</svg>
