<svg width="24" height="24" viewBox="0 0 24 24" fill="none" xmlns="http://www.w3.org/2000/svg">
<path fill-rule="evenodd" clip-rule="evenodd" d="M6.90832 4.32378C10.2642 3.94871 13.7357 3.94871 17.0916 4.32378C18.4217 4.47244 19.4872 5.52205 19.6413 6.83973C20.0423 10.2683 20.0423 13.7318 19.6413 17.1604C19.4872 18.478 18.4217 19.5277 17.0916 19.6763C13.7357 20.0514 10.2642 20.0514 6.90832 19.6763C5.57821 19.5277 4.51272 18.478 4.35861 17.1604C3.95761 13.7318 3.95761 10.2683 4.35861 6.83973C4.51272 5.52205 5.57821 4.47244 6.90832 4.32378ZM17.2582 2.83306C13.7916 2.44562 10.2083 2.44562 6.74171 2.83306C4.72965 3.05794 3.10532 4.64295 2.86876 6.66548C2.45423 10.2098 2.45423 13.7903 2.86876 17.3346C3.10532 19.3571 4.72965 20.9422 6.74171 21.167C10.2083 21.5545 13.7916 21.5545 17.2582 21.167C19.2702 20.9422 20.8946 19.3571 21.1311 17.3346C21.5457 13.7903 21.5457 10.2098 21.1311 6.66548C20.8946 4.64295 19.2703 3.05794 17.2582 2.83306ZM9.37465 15.5H8.03265V8.18504C8.51665 8.09704 9.18765 8.03104 10.1007 8.03104C11.0907 8.03104 11.8167 8.24004 12.2897 8.63604C12.7297 8.99904 13.0157 9.58204 13.0157 10.275C13.0157 10.979 12.7957 11.562 12.3777 11.958C11.8387 12.497 10.9917 12.75 10.0347 12.75C9.78165 12.75 9.55065 12.739 9.37465 12.706V15.5ZM10.1557 9.06504C9.78165 9.06504 9.51765 9.09804 9.37465 9.13104V11.639C9.53965 11.683 9.75965 11.694 10.0347 11.694C11.0467 11.694 11.6627 11.199 11.6627 10.33C11.6627 9.50504 11.0907 9.06504 10.1557 9.06504ZM14.9063 15.5H13.5533V11.87C13.5533 11.144 13.5423 10.627 13.5093 10.143H14.6863L14.7303 11.166H14.7743C15.0383 10.407 15.6653 10.022 16.2373 10.022C16.3693 10.022 16.4463 10.033 16.5563 10.055V11.331C16.4463 11.309 16.3253 11.287 16.1603 11.287C15.5113 11.287 15.0713 11.705 14.9503 12.31C14.9283 12.431 14.9063 12.574 14.9063 12.728V15.5Z" fill="#1A1712"/>
</svg>
