<svg width="24" height="24" viewBox="0 0 24 24" fill="none" xmlns="http://www.w3.org/2000/svg">
<path fill-rule="evenodd" clip-rule="evenodd" d="M6.06674 3.8739C5.36406 3.79537 4.63606 3.79537 3.93338 3.8739C3.92032 3.87536 3.90741 3.88127 3.8968 3.89173C3.88644 3.90195 3.88239 3.91228 3.88137 3.92104C3.79752 4.63792 3.79752 5.36212 3.88137 6.07899C3.88239 6.08776 3.88644 6.09809 3.8968 6.1083C3.90741 6.11876 3.92032 6.12467 3.93338 6.12613C4.63606 6.20466 5.36406 6.20466 6.06674 6.12613C6.07979 6.12467 6.0927 6.11876 6.10331 6.1083C6.11368 6.09809 6.11772 6.08776 6.11875 6.07899C6.20259 5.36212 6.20259 4.63792 6.11875 3.92104C6.11772 3.91228 6.11368 3.90195 6.10331 3.89173C6.0927 3.88127 6.07979 3.87536 6.06674 3.8739ZM3.76677 2.38319C4.58018 2.29227 5.41994 2.29227 6.23335 2.38319C6.94567 2.4628 7.52397 3.02323 7.60859 3.74679C7.70598 4.57944 7.70598 5.4206 7.60859 6.25324C7.52397 6.9768 6.94567 7.53724 6.23335 7.61685C5.41994 7.70776 4.58018 7.70776 3.76677 7.61685C3.05444 7.53724 2.47615 6.9768 2.39152 6.25324C2.29414 5.4206 2.29414 4.57944 2.39152 3.74679C2.47615 3.02323 3.05444 2.4628 3.76677 2.38319Z" fill="#1A1712"/>
<path fill-rule="evenodd" clip-rule="evenodd" d="M13.0667 3.8739C12.3641 3.79537 11.6361 3.79537 10.9334 3.8739C10.9203 3.87536 10.9074 3.88127 10.8968 3.89173C10.8864 3.90195 10.8824 3.91228 10.8814 3.92104C10.7975 4.63792 10.7975 5.36212 10.8814 6.07899C10.8824 6.08776 10.8864 6.09809 10.8968 6.1083C10.9074 6.11876 10.9203 6.12467 10.9334 6.12613C11.6361 6.20466 12.3641 6.20466 13.0667 6.12613C13.0798 6.12467 13.0927 6.11876 13.1033 6.1083C13.1137 6.09809 13.1177 6.08776 13.1187 6.07899C13.2026 5.36212 13.2026 4.63792 13.1187 3.92104C13.1177 3.91228 13.1137 3.90195 13.1033 3.89173C13.0927 3.88127 13.0798 3.87536 13.0667 3.8739ZM10.7668 2.38319C11.5802 2.29227 12.4199 2.29227 13.2333 2.38319C13.9457 2.4628 14.524 3.02323 14.6086 3.74679C14.706 4.57944 14.706 5.4206 14.6086 6.25324C14.524 6.9768 13.9457 7.53724 13.2333 7.61685C12.4199 7.70776 11.5802 7.70776 10.7668 7.61685C10.0544 7.53724 9.47615 6.9768 9.39152 6.25324C9.29414 5.4206 9.29414 4.57944 9.39152 3.74679C9.47615 3.02323 10.0544 2.4628 10.7668 2.38319Z" fill="#1A1712"/>
<path fill-rule="evenodd" clip-rule="evenodd" d="M20.0667 3.8739C19.3641 3.79537 18.6361 3.79537 17.9334 3.8739C17.9203 3.87536 17.9074 3.88127 17.8968 3.89173C17.8864 3.90195 17.8824 3.91228 17.8814 3.92104C17.7975 4.63792 17.7975 5.36212 17.8814 6.07899C17.8824 6.08776 17.8864 6.09809 17.8968 6.1083C17.9074 6.11876 17.9203 6.12467 17.9334 6.12613C18.6361 6.20466 19.3641 6.20466 20.0667 6.12613C20.0798 6.12467 20.0927 6.11876 20.1033 6.1083C20.1137 6.09809 20.1177 6.08776 20.1187 6.07899C20.2026 5.36212 20.2026 4.63792 20.1187 3.92104C20.1177 3.91228 20.1137 3.90195 20.1033 3.89173C20.0927 3.88127 20.0798 3.87536 20.0667 3.8739ZM17.7668 2.38319C18.5802 2.29227 19.4199 2.29227 20.2333 2.38319C20.9457 2.4628 21.524 3.02323 21.6086 3.74679C21.706 4.57944 21.706 5.4206 21.6086 6.25324C21.524 6.9768 20.9457 7.53724 20.2333 7.61685C19.4199 7.70776 18.5802 7.70776 17.7668 7.61685C17.0544 7.53724 16.4761 6.9768 16.3915 6.25324C16.2941 5.4206 16.2941 4.57944 16.3915 3.74679C16.4761 3.02323 17.0544 2.4628 17.7668 2.38319Z" fill="#1A1712"/>
<path fill-rule="evenodd" clip-rule="evenodd" d="M6.06674 10.8739C5.36406 10.7954 4.63606 10.7954 3.93338 10.8739C3.92032 10.8754 3.90741 10.8813 3.8968 10.8917C3.88644 10.9019 3.88239 10.9123 3.88137 10.921C3.79752 11.6379 3.79752 12.3621 3.88137 13.079C3.88239 13.0878 3.88644 13.0981 3.8968 13.1083C3.90741 13.1188 3.92032 13.1247 3.93338 13.1261C4.63606 13.2047 5.36406 13.2047 6.06674 13.1261C6.07979 13.1247 6.0927 13.1188 6.10331 13.1083C6.11368 13.0981 6.11772 13.0878 6.11875 13.079C6.20259 12.3621 6.20259 11.6379 6.11875 10.921C6.11772 10.9123 6.11368 10.9019 6.10331 10.8917C6.0927 10.8813 6.07979 10.8754 6.06674 10.8739ZM3.76677 9.38318C4.58018 9.29227 5.41994 9.29227 6.23335 9.38318C6.94567 9.4628 7.52397 10.0232 7.60859 10.7468C7.70598 11.5794 7.70598 12.4206 7.60859 13.2532C7.52397 13.9768 6.94567 14.5372 6.23335 14.6168C5.41994 14.7078 4.58018 14.7078 3.76677 14.6168C3.05444 14.5372 2.47615 13.9768 2.39152 13.2532C2.29414 12.4206 2.29414 11.5794 2.39152 10.7468C2.47615 10.0232 3.05444 9.4628 3.76677 9.38318Z" fill="#1A1712"/>
<path fill-rule="evenodd" clip-rule="evenodd" d="M13.0667 10.8739C12.3641 10.7954 11.6361 10.7954 10.9334 10.8739C10.9203 10.8754 10.9074 10.8813 10.8968 10.8917C10.8864 10.9019 10.8824 10.9123 10.8814 10.921C10.7975 11.6379 10.7975 12.3621 10.8814 13.079C10.8824 13.0878 10.8864 13.0981 10.8968 13.1083C10.9074 13.1188 10.9203 13.1247 10.9334 13.1261C11.6361 13.2047 12.3641 13.2047 13.0667 13.1261C13.0798 13.1247 13.0927 13.1188 13.1033 13.1083C13.1137 13.0981 13.1177 13.0878 13.1187 13.079C13.2026 12.3621 13.2026 11.6379 13.1187 10.921C13.1177 10.9123 13.1137 10.9019 13.1033 10.8917C13.0927 10.8813 13.0798 10.8754 13.0667 10.8739ZM10.7668 9.38318C11.5802 9.29227 12.4199 9.29227 13.2333 9.38318C13.9457 9.4628 14.524 10.0232 14.6086 10.7468C14.706 11.5794 14.706 12.4206 14.6086 13.2532C14.524 13.9768 13.9457 14.5372 13.2333 14.6168C12.4199 14.7078 11.5802 14.7078 10.7668 14.6168C10.0544 14.5372 9.47615 13.9768 9.39152 13.2532C9.29414 12.4206 9.29414 11.5794 9.39152 10.7468C9.47615 10.0232 10.0544 9.4628 10.7668 9.38318Z" fill="#1A1712"/>
<path fill-rule="evenodd" clip-rule="evenodd" d="M20.0667 10.8739C19.3641 10.7954 18.6361 10.7954 17.9334 10.8739C17.9203 10.8754 17.9074 10.8813 17.8968 10.8917C17.8864 10.9019 17.8824 10.9123 17.8814 10.921C17.7975 11.6379 17.7975 12.3621 17.8814 13.079C17.8824 13.0878 17.8864 13.0981 17.8968 13.1083C17.9074 13.1188 17.9203 13.1247 17.9334 13.1261C18.6361 13.2047 19.3641 13.2047 20.0667 13.1261C20.0798 13.1247 20.0927 13.1188 20.1033 13.1083C20.1137 13.0981 20.1177 13.0878 20.1187 13.079C20.2026 12.3621 20.2026 11.6379 20.1187 10.921C20.1177 10.9123 20.1137 10.9019 20.1033 10.8917C20.0927 10.8813 20.0798 10.8754 20.0667 10.8739ZM17.7668 9.38318C18.5802 9.29227 19.4199 9.29227 20.2333 9.38318C20.9457 9.4628 21.524 10.0232 21.6086 10.7468C21.706 11.5794 21.706 12.4206 21.6086 13.2532C21.524 13.9768 20.9457 14.5372 20.2333 14.6168C19.4199 14.7078 18.5802 14.7078 17.7668 14.6168C17.0544 14.5372 16.4761 13.9768 16.3915 13.2532C16.2941 12.4206 16.2941 11.5794 16.3915 10.7468C16.4761 10.0232 17.0544 9.4628 17.7668 9.38318Z" fill="#1A1712"/>
<path fill-rule="evenodd" clip-rule="evenodd" d="M6.06674 17.8739C5.36406 17.7954 4.63606 17.7954 3.93338 17.8739C3.92032 17.8754 3.90741 17.8813 3.8968 17.8917C3.88644 17.9019 3.88239 17.9123 3.88137 17.921C3.79752 18.6379 3.79752 19.3621 3.88137 20.079C3.88239 20.0878 3.88644 20.0981 3.8968 20.1083C3.90741 20.1188 3.92032 20.1247 3.93338 20.1261C4.63606 20.2047 5.36406 20.2047 6.06674 20.1261C6.07979 20.1247 6.0927 20.1188 6.10331 20.1083C6.11368 20.0981 6.11772 20.0878 6.11875 20.079C6.20259 19.3621 6.20259 18.6379 6.11875 17.921C6.11772 17.9123 6.11368 17.9019 6.10331 17.8917C6.0927 17.8813 6.07979 17.8754 6.06674 17.8739ZM3.76677 16.3832C4.58018 16.2923 5.41994 16.2923 6.23335 16.3832C6.94567 16.4628 7.52397 17.0232 7.60859 17.7468C7.70598 18.5794 7.70598 19.4206 7.60859 20.2532C7.52397 20.9768 6.94567 21.5372 6.23335 21.6168C5.41994 21.7078 4.58018 21.7078 3.76677 21.6168C3.05444 21.5372 2.47615 20.9768 2.39152 20.2532C2.29414 19.4206 2.29414 18.5794 2.39152 17.7468C2.47615 17.0232 3.05444 16.4628 3.76677 16.3832Z" fill="#1A1712"/>
<path fill-rule="evenodd" clip-rule="evenodd" d="M13.0667 17.8739C12.3641 17.7954 11.6361 17.7954 10.9334 17.8739C10.9203 17.8754 10.9074 17.8813 10.8968 17.8917C10.8864 17.9019 10.8824 17.9123 10.8814 17.921C10.7975 18.6379 10.7975 19.3621 10.8814 20.079C10.8824 20.0878 10.8864 20.0981 10.8968 20.1083C10.9074 20.1188 10.9203 20.1247 10.9334 20.1261C11.6361 20.2047 12.3641 20.2047 13.0667 20.1261C13.0798 20.1247 13.0927 20.1188 13.1033 20.1083C13.1137 20.0981 13.1177 20.0878 13.1187 20.079C13.2026 19.3621 13.2026 18.6379 13.1187 17.921C13.1177 17.9123 13.1137 17.9019 13.1033 17.8917C13.0927 17.8813 13.0798 17.8754 13.0667 17.8739ZM10.7668 16.3832C11.5802 16.2923 12.4199 16.2923 13.2333 16.3832C13.9457 16.4628 14.524 17.0232 14.6086 17.7468C14.706 18.5794 14.706 19.4206 14.6086 20.2532C14.524 20.9768 13.9457 21.5372 13.2333 21.6168C12.4199 21.7078 11.5802 21.7078 10.7668 21.6168C10.0544 21.5372 9.47615 20.9768 9.39152 20.2532C9.29414 19.4206 9.29414 18.5794 9.39152 17.7468C9.47615 17.0232 10.0544 16.4628 10.7668 16.3832Z" fill="#1A1712"/>
<path fill-rule="evenodd" clip-rule="evenodd" d="M20.0667 17.8739C19.3641 17.7954 18.6361 17.7954 17.9334 17.8739C17.9203 17.8754 17.9074 17.8813 17.8968 17.8917C17.8864 17.9019 17.8824 17.9123 17.8814 17.921C17.7975 18.6379 17.7975 19.3621 17.8814 20.079C17.8824 20.0878 17.8864 20.0981 17.8968 20.1083C17.9074 20.1188 17.9203 20.1247 17.9334 20.1261C18.6361 20.2047 19.3641 20.2047 20.0667 20.1261C20.0798 20.1247 20.0927 20.1188 20.1033 20.1083C20.1137 20.0981 20.1177 20.0878 20.1187 20.079C20.2026 19.3621 20.2026 18.6379 20.1187 17.921C20.1177 17.9123 20.1137 17.9019 20.1033 17.8917C20.0927 17.8813 20.0798 17.8754 20.0667 17.8739ZM17.7668 16.3832C18.5802 16.2923 19.4199 16.2923 20.2333 16.3832C20.9457 16.4628 21.524 17.0232 21.6086 17.7468C21.706 18.5794 21.706 19.4206 21.6086 20.2532C21.524 20.9768 20.9457 21.5372 20.2333 21.6168C19.4199 21.7078 18.5802 21.7078 17.7668 21.6168C17.0544 21.5372 16.4761 20.9768 16.3915 20.2532C16.2941 19.4206 16.2941 18.5794 16.3915 17.7468C16.4761 17.0232 17.0544 16.4628 17.7668 16.3832Z" fill="#1A1712"/>
</svg>
