<svg width="24" height="24" viewBox="0 0 24 24" fill="none" xmlns="http://www.w3.org/2000/svg">
<path fill-rule="evenodd" clip-rule="evenodd" d="M7.24997 6.63098V5.4612C7.24997 4.59495 7.88371 3.85906 8.74037 3.73056L9.96029 3.54757C11.3125 3.34474 12.6874 3.34474 14.0397 3.54757L15.2596 3.73056C16.1162 3.85906 16.75 4.59495 16.75 5.4612V6.63098L18.464 6.76933C19.7764 6.87527 20.8469 7.86341 21.0574 9.16313C21.5226 12.0357 21.5226 14.9643 21.0574 17.8369C20.8469 19.1366 19.7764 20.1247 18.464 20.2307L16.5921 20.3818C13.5356 20.6285 10.4643 20.6285 7.40784 20.3818L5.53592 20.2307C4.22354 20.1247 3.153 19.1366 2.94252 17.8369C2.47733 14.9643 2.47733 12.0357 2.94252 9.16313C3.153 7.86341 4.22354 6.87527 5.53592 6.76933L7.24997 6.63098ZM10.1828 5.03098C11.3875 4.85027 12.6124 4.85027 13.8171 5.03098L15.0371 5.21396C15.1594 5.23232 15.25 5.33745 15.25 5.4612V6.5258C13.0851 6.40233 10.9149 6.40233 8.74997 6.5258V5.4612C8.74997 5.33745 8.8405 5.23232 8.96288 5.21396L10.1828 5.03098ZM7.52853 8.11337C10.5046 7.87314 13.4953 7.87314 16.4714 8.11337L18.3433 8.26447C18.9675 8.31485 19.4766 8.78479 19.5767 9.40292C19.639 9.78785 19.6925 10.1738 19.7372 10.5606C14.8596 12.9624 9.14035 12.9624 4.26274 10.5606C4.3074 10.1738 4.36089 9.78785 4.42323 9.40292C4.52333 8.78479 5.03246 8.31485 5.65661 8.26447L7.52853 8.11337ZM4.12886 12.1567C9.12826 14.4304 14.8717 14.4304 19.8711 12.1567C19.9664 13.9728 19.8683 15.7966 19.5767 17.5971C19.4766 18.2152 18.9675 18.6852 18.3433 18.7355L16.4714 18.8866C13.4953 19.1269 10.5046 19.1269 7.52853 18.8866L5.65661 18.7355C5.03246 18.6852 4.52333 18.2152 4.42323 17.5971C4.13166 15.7966 4.03353 13.9728 4.12886 12.1567Z" fill="#1A1712"/>
</svg>
