<svg width="24" height="24" viewBox="0 0 24 24" fill="none" xmlns="http://www.w3.org/2000/svg">
<path fill-rule="evenodd" clip-rule="evenodd" d="M11.4151 2.39514C11.7962 2.278 12.2038 2.278 12.5849 2.39514L15.5706 3.3128C17.1283 3.79155 18.6075 4.49541 19.9616 5.40207C21.0147 6.10725 20.5155 7.75 19.2481 7.75H4.75191C3.48446 7.75 2.98526 6.10726 4.03841 5.40207C5.39244 4.49541 6.87174 3.79155 8.42938 3.31281L11.4151 2.39514ZM12.1442 3.82894C12.0502 3.80006 11.9498 3.80006 11.8558 3.82894L8.87006 4.74661C7.68925 5.10953 6.55791 5.61457 5.50069 6.25H18.4993C17.4421 5.61457 16.3107 5.10953 15.1299 4.74661L12.1442 3.82894Z" fill="#1A1712"/>
<path d="M4.25 21C4.25 20.5858 4.58579 20.25 5 20.25H19C19.4142 20.25 19.75 20.5858 19.75 21C19.75 21.4142 19.4142 21.75 19 21.75H5C4.58579 21.75 4.25 21.4142 4.25 21Z" fill="#1A1712"/>
<path d="M6.25 17C6.25 17.4142 6.58579 17.75 7 17.75C7.41421 17.75 7.75 17.4142 7.75 17L7.75 11C7.75 10.5858 7.41421 10.25 7 10.25C6.58579 10.25 6.25 10.5858 6.25 11L6.25 17Z" fill="#1A1712"/>
<path d="M12 17.75C11.5858 17.75 11.25 17.4142 11.25 17L11.25 11C11.25 10.5858 11.5858 10.25 12 10.25C12.4142 10.25 12.75 10.5858 12.75 11V17C12.75 17.4142 12.4142 17.75 12 17.75Z" fill="#1A1712"/>
<path d="M16.25 17C16.25 17.4142 16.5858 17.75 17 17.75C17.4142 17.75 17.75 17.4142 17.75 17V11C17.75 10.5858 17.4142 10.25 17 10.25C16.5858 10.25 16.25 10.5858 16.25 11V17Z" fill="#1A1712"/>
</svg>
