<svg width="24" height="24" viewBox="0 0 24 24" fill="none" xmlns="http://www.w3.org/2000/svg">
<path fill-rule="evenodd" clip-rule="evenodd" d="M6.50914 8.82902C6.66268 8.97098 6.74999 9.1706 6.74999 9.37972L6.74999 14.6045C6.74999 14.814 6.66236 15.014 6.50831 15.156C6.35426 15.298 6.14784 15.369 5.93903 15.352L5.70349 15.3326C5.2657 15.2964 4.90238 14.98 4.8062 14.5517C4.42775 12.8662 4.42761 11.1172 4.80608 9.43171C4.90255 9.00208 5.26764 8.6854 5.70659 8.6506M6.50914 8.82902C6.35559 8.68706 5.91506 8.63423 5.70659 8.6506Z" fill="#1A1712"/>
<path fill-rule="evenodd" clip-rule="evenodd" d="M20.75 14V10C20.75 9.86196 20.6381 9.75003 20.5 9.75003H19.1C18.6858 9.75003 18.35 9.41424 18.35 9.00003V8.1897C18.35 7.70186 17.9747 7.29614 17.4883 7.25822L16.2198 7.15931C12.7452 6.88838 9.25478 6.88838 5.78017 7.15931L4.43257 7.26438C3.90973 7.30515 3.48188 7.6968 3.39518 8.21401C2.97496 10.7205 2.97496 13.2795 3.39518 15.786C3.48188 16.3033 3.90973 16.6949 4.43257 16.7357L5.78017 16.8407C9.25478 17.1117 12.7452 17.1117 16.2198 16.8407L17.4883 16.7418C17.9747 16.7039 18.35 16.2982 18.35 15.8104V15C18.35 14.5858 18.6858 14.25 19.1 14.25H20.5C20.6381 14.25 20.75 14.1381 20.75 14ZM22.25 10V14C22.25 14.9665 21.4665 15.75 20.5 15.75H19.85V15.8104C19.85 17.0814 18.8721 18.1385 17.6049 18.2373L16.3364 18.3362C12.7842 18.6132 9.2158 18.6132 5.66357 18.3362L4.31596 18.2311C3.10632 18.1368 2.11643 17.2307 1.91582 16.0341C1.46808 13.3633 1.46808 10.6367 1.91582 7.966C2.11643 6.76938 3.10632 5.86324 4.31597 5.76892L5.66357 5.66385C9.21579 5.38687 12.7842 5.38687 16.3364 5.66385L17.6049 5.76276C18.8721 5.86156 19.85 6.91866 19.85 8.1897V8.25003H20.5C21.4665 8.25003 22.25 9.03353 22.25 10Z" fill="#1A1712"/>
</svg>
