<svg width="24" height="24" viewBox="0 0 24 24" fill="none" xmlns="http://www.w3.org/2000/svg">
<path fill-rule="evenodd" clip-rule="evenodd" d="M7.00006 3.25C7.41427 3.25 7.75006 3.58579 7.75006 4V5.66763C10.5778 5.4158 13.4223 5.4158 16.2501 5.66763V4C16.2501 3.58579 16.5858 3.25 17.0001 3.25C17.4143 3.25 17.7501 3.58579 17.7501 4V5.81644C19.2431 6.02754 20.4226 7.20847 20.6223 8.71484L20.7089 9.36779C21.0729 12.1141 21.0414 14.8984 20.6155 17.6359C20.4045 18.9919 19.3028 20.0335 17.9371 20.1681L16.7441 20.2858C13.589 20.5969 10.411 20.5969 7.25599 20.2858L6.06298 20.1681C4.69724 20.0335 3.59558 18.9919 3.38457 17.6359C2.95861 14.8984 2.92717 12.1141 3.29121 9.36779L3.37776 8.71484C3.57744 7.20845 4.75699 6.02751 6.25006 5.81643V4C6.25006 3.58579 6.58585 3.25 7.00006 3.25ZM7.44523 7.2028C10.4744 6.90408 13.5256 6.90408 16.5548 7.2028L17.4603 7.2921C18.327 7.37757 19.0209 8.04854 19.1353 8.91194L19.2219 9.56489C19.2521 9.793 19.2795 10.0214 19.3039 10.25H4.69612C4.72061 10.0214 4.74797 9.79301 4.7782 9.5649L4.86475 8.91194C4.9792 8.04854 5.67303 7.37757 6.53977 7.2921L7.44523 7.2028ZM4.57689 11.75C4.47871 13.6381 4.57544 15.5332 4.86674 17.4052C4.97258 18.0854 5.52515 18.6078 6.21019 18.6754L7.4032 18.793C10.4603 19.0945 13.5397 19.0945 16.5969 18.793L17.7899 18.6754C18.4749 18.6078 19.0275 18.0854 19.1333 17.4052C19.4246 15.5332 19.5214 13.6381 19.4232 11.75H4.57689ZM9.00006 13.5C9.00006 14.0523 8.55235 14.5 8.00006 14.5C7.44778 14.5 7.00006 14.0523 7.00006 13.5C7.00006 12.9477 7.44778 12.5 8.00006 12.5C8.55235 12.5 9.00006 12.9477 9.00006 13.5ZM12.0001 14.5C12.5523 14.5 13.0001 14.0523 13.0001 13.5C13.0001 12.9477 12.5523 12.5 12.0001 12.5C11.4478 12.5 11.0001 12.9477 11.0001 13.5C11.0001 14.0523 11.4478 14.5 12.0001 14.5ZM17.0001 13.5C17.0001 14.0523 16.5523 14.5 16.0001 14.5C15.4478 14.5 15.0001 14.0523 15.0001 13.5C15.0001 12.9477 15.4478 12.5 16.0001 12.5C16.5523 12.5 17.0001 12.9477 17.0001 13.5ZM8.00006 17.5C8.55235 17.5 9.00006 17.0523 9.00006 16.5C9.00006 15.9477 8.55235 15.5 8.00006 15.5C7.44778 15.5 7.00006 15.9477 7.00006 16.5C7.00006 17.0523 7.44778 17.5 8.00006 17.5ZM13.0001 16.5C13.0001 17.0523 12.5523 17.5 12.0001 17.5C11.4478 17.5 11.0001 17.0523 11.0001 16.5C11.0001 15.9477 11.4478 15.5 12.0001 15.5C12.5523 15.5 13.0001 15.9477 13.0001 16.5ZM16.0001 17.5C16.5523 17.5 17.0001 17.0523 17.0001 16.5C17.0001 15.9477 16.5523 15.5 16.0001 15.5C15.4478 15.5 15.0001 15.9477 15.0001 16.5C15.0001 17.0523 15.4478 17.5 16.0001 17.5Z" fill="#1A1712"/>
</svg>
