<svg width="24" height="24" viewBox="0 0 24 24" fill="none" xmlns="http://www.w3.org/2000/svg">
<path fill-rule="evenodd" clip-rule="evenodd" d="M11.25 5.78832C7.59833 6.16362 4.75 9.24918 4.75 13C4.75 17.0041 7.99594 20.25 12 20.25C15.7508 20.25 18.8364 17.4017 19.2117 13.75H12C11.5858 13.75 11.25 13.4142 11.25 13V5.78832ZM3.25 13C3.25 8.16751 7.16751 4.25 12 4.25C12.4142 4.25 12.75 4.58579 12.75 5V12.25H20C20.4142 12.25 20.75 12.5858 20.75 13C20.75 17.8325 16.8325 21.75 12 21.75C7.16751 21.75 3.25 17.8325 3.25 13Z" fill="#1A1712"/>
<path fill-rule="evenodd" clip-rule="evenodd" d="M15.5 4.67365V9.5H20.3264C19.7633 7.1156 17.8844 5.23667 15.5 4.67365ZM14.998 3.06165C18.6183 3.51218 21.4878 6.38167 21.9384 10.002C22.0066 10.55 21.5523 11 21 11H14.5C14.2239 11 14 10.7761 14 10.5V4C14 3.44772 14.45 2.99345 14.998 3.06165Z" fill="#1A1712"/>
</svg>
