<svg width="24" height="24" viewBox="0 0 24 24" fill="none" xmlns="http://www.w3.org/2000/svg">
<path fill-rule="evenodd" clip-rule="evenodd" d="M15.0303 10.4697C15.3232 10.7626 15.3232 11.2374 15.0303 11.5303L11.5303 15.0303C11.2374 15.3232 10.7626 15.3232 10.4697 15.0303L8.46968 13.0303C8.17679 12.7374 8.17679 12.2626 8.46968 11.9697C8.76258 11.6768 9.23745 11.6768 9.53034 11.9697L11 13.4393L13.9697 10.4697C14.2626 10.1768 14.7374 10.1768 15.0303 10.4697Z" fill="#1A1712"/>
<path fill-rule="evenodd" clip-rule="evenodd" d="M12.9319 6.20831C11.3816 6.20831 10.0406 7.11064 9.40813 8.42212C9.23808 8.77473 8.82543 8.93724 8.46061 8.79528C7.96987 8.60433 7.43541 8.49919 6.87461 8.49919C4.45814 8.49919 2.49921 10.4581 2.49921 12.8746C2.49921 15.2911 4.45814 17.25 6.87461 17.25H18.5233C20.1677 17.25 21.5008 15.9169 21.5008 14.2724C21.5008 12.628 20.1677 11.2949 18.5233 11.2949C18.2557 11.2949 17.9975 11.33 17.7524 11.3954C17.5122 11.4596 17.2558 11.4005 17.0679 11.2378C16.8799 11.075 16.7849 10.8296 16.8141 10.5827C16.8321 10.4305 16.8414 10.2754 16.8414 10.1178C16.8414 7.95864 15.091 6.20831 12.9319 6.20831ZM8.38002 7.19402C9.34177 5.69973 11.0205 4.70831 12.9319 4.70831C15.8124 4.70831 18.1671 6.95976 18.3321 9.79889C18.3955 9.79622 18.4592 9.79487 18.5233 9.79487C20.9961 9.79487 23.0008 11.7995 23.0008 14.2724C23.0008 16.7453 20.9961 18.75 18.5233 18.75H6.87461C3.62971 18.75 0.999207 16.1195 0.999207 12.8746C0.999207 9.6297 3.62971 6.99919 6.87461 6.99919C7.39427 6.99919 7.89899 7.06684 8.38002 7.19402Z" fill="#1A1712"/>
</svg>
