<svg width="24" height="24" viewBox="0 0 24 24" fill="none" xmlns="http://www.w3.org/2000/svg">
<path fill-rule="evenodd" clip-rule="evenodd" d="M18.8076 4.95727C17.4735 4.54566 16.0265 4.54566 14.6924 4.95727C14.241 9.64158 14.241 14.3585 14.6924 19.0428C16.0265 19.4544 17.4735 19.4544 18.8076 19.0428C19.2591 14.3585 19.2591 9.64159 18.8076 4.95727ZM20.2906 4.70878C20.7648 9.55804 20.7648 14.442 20.2906 19.2913C20.2383 19.8258 19.872 20.2751 19.3662 20.4393C17.6731 20.9889 15.8269 20.9889 14.1338 20.4393C13.6281 20.2751 13.2618 19.8258 13.2095 19.2913C12.7353 14.442 12.7353 9.55804 13.2095 4.70877C13.2618 4.17422 13.6281 3.72495 14.1338 3.56077C15.8269 3.01116 17.6731 3.01116 19.3662 3.56077C19.872 3.72495 20.2383 4.17422 20.2906 4.70878Z" fill="#1A1712"/>
<path fill-rule="evenodd" clip-rule="evenodd" d="M9.30764 4.95726C7.97355 4.54566 6.52651 4.54566 5.19242 4.95726C4.74096 9.64158 4.74095 14.3585 5.19242 19.0428C6.52651 19.4544 7.97355 19.4544 9.30764 19.0428C9.7591 14.3585 9.7591 9.64158 9.30764 4.95726ZM10.7906 4.70877C11.2648 9.55804 11.2648 14.442 10.7906 19.2913C10.7383 19.8258 10.372 20.2751 9.86623 20.4393C8.17313 20.9889 6.32692 20.9889 4.63383 20.4393C4.12806 20.2751 3.76177 19.8258 3.70949 19.2913C3.23526 14.442 3.23526 9.55804 3.70949 4.70877C3.76177 4.17422 4.12806 3.72495 4.63383 3.56077C6.32692 3.01116 8.17314 3.01116 9.86623 3.56077C10.372 3.72495 10.7383 4.17422 10.7906 4.70877Z" fill="#1A1712"/>
</svg>
