<svg width="24" height="24" viewBox="0 0 24 24" fill="none" xmlns="http://www.w3.org/2000/svg">
<path fill-rule="evenodd" clip-rule="evenodd" d="M4.59188 15.3042C2.34402 9.78675 6.40312 3.75 12.3609 3.75H12.6824C17.138 3.75 20.75 7.36201 20.75 11.8176C20.75 16.7785 16.7285 20.8 11.7676 20.8H3.94737C3.62911 20.8 3.34551 20.5991 3.23988 20.2989C3.13425 19.9987 3.2296 19.6645 3.47775 19.4652L5.44924 17.8819C5.53544 17.8127 5.56593 17.6951 5.52422 17.5927L4.59188 15.3042ZM12.3609 5.25C7.4684 5.25 4.13508 10.2074 5.98102 14.7383L6.91336 17.0268C7.20536 17.7435 6.9919 18.5669 6.38848 19.0515L6.07904 19.3H11.7676C15.9 19.3 19.25 15.95 19.25 11.8176C19.25 8.19044 16.3096 5.25 12.6824 5.25H12.3609Z" fill="#1A1712"/>
</svg>
