<svg width="24" height="24" viewBox="0 0 24 24" fill="none" xmlns="http://www.w3.org/2000/svg">
<path d="M10 8.99999C10 7.89542 10.8954 6.99999 12 6.99999C13.1046 6.99999 14 7.89542 14 8.99999C14 10.1046 13.1046 11 12 11C10.8954 11 10 10.1046 10 8.99999Z" fill="#1A1712"/>
<path d="M11 12.5C9.34315 12.5 8 13.8431 8 15.5C8 16.0523 8.44772 16.5 9 16.5H15C15.5523 16.5 16 16.0523 16 15.5C16 13.8431 14.6569 12.5 13 12.5H11Z" fill="#1A1712"/>
<path fill-rule="evenodd" clip-rule="evenodd" d="M7.54353 2.88267C10.4993 2.45793 13.5007 2.45793 16.4565 2.88267C17.922 3.09326 19.0511 4.28265 19.1852 5.75711L19.3122 7.15284C19.6055 10.3776 19.6055 13.6224 19.3122 16.8471L19.1852 18.2429C19.0511 19.7173 17.922 20.9067 16.4565 21.1173C13.5007 21.5421 10.4993 21.5421 7.54353 21.1173C6.07804 20.9067 4.94894 19.7173 4.81482 18.2429L4.68785 16.8471C4.3945 13.6224 4.3945 10.3776 4.68785 7.15284L4.81482 5.75711C4.94894 4.28265 6.07804 3.09326 7.54353 2.88267ZM16.2431 4.36742C13.4288 3.96302 10.5712 3.96302 7.75688 4.36742C6.97909 4.47919 6.37983 5.11045 6.30865 5.893L6.18168 7.28873C5.89655 10.4231 5.89655 13.5769 6.18168 16.7113L6.30865 18.107C6.37984 18.8895 6.97909 19.5208 7.75688 19.6326C10.5712 20.037 13.4288 20.037 16.2431 19.6326C17.0209 19.5208 17.6202 18.8895 17.6914 18.107L17.8183 16.7113C18.1035 13.5769 18.1035 10.4231 17.8183 7.28873L17.6914 5.893C17.6202 5.11045 17.0209 4.47919 16.2431 4.36742Z" fill="#1A1712"/>
</svg>
