<svg width="24" height="24" viewBox="0 0 24 24" fill="none" xmlns="http://www.w3.org/2000/svg">
<path fill-rule="evenodd" clip-rule="evenodd" d="M6.94575 1.351C6.32185 1.28127 5.67806 1.28127 5.05416 1.351C4.43467 1.42024 3.93109 1.90749 3.85732 2.53827C3.78259 3.17722 3.78259 3.82271 3.85732 4.46167C3.93109 5.09244 4.43467 5.57969 5.05416 5.64893C5.67806 5.71866 6.32185 5.71866 6.94575 5.64893C7.56523 5.57969 8.06881 5.09244 8.14258 4.46167C8.21732 3.82271 8.21732 3.17722 8.14258 2.53827C8.06881 1.90749 7.56523 1.42024 6.94575 1.351ZM5.33446 4.16995C5.29021 3.72439 5.29021 3.27554 5.33446 2.82998C5.77422 2.78828 6.22568 2.78828 6.66544 2.82998C6.7097 3.27554 6.7097 3.72439 6.66544 4.16995C6.22568 4.21165 5.77422 4.21165 5.33446 4.16995Z" fill="#1A1712"/>
<path fill-rule="evenodd" clip-rule="evenodd" d="M12.9457 1.351C12.3218 1.28127 11.6781 1.28127 11.0542 1.351C10.4347 1.42024 9.93109 1.90749 9.85732 2.53827C9.78259 3.17722 9.78259 3.82271 9.85732 4.46167C9.93109 5.09244 10.4347 5.57969 11.0542 5.64893C11.6781 5.71866 12.3218 5.71866 12.9457 5.64893C13.5652 5.57969 14.0688 5.09244 14.1426 4.46167C14.2173 3.82271 14.2173 3.17722 14.1426 2.53827C14.0688 1.90749 13.5652 1.42024 12.9457 1.351ZM11.3345 4.16995C11.2902 3.72439 11.2902 3.27554 11.3345 2.82998C11.7742 2.78828 12.2257 2.78828 12.6654 2.82998C12.7097 3.27554 12.7097 3.72439 12.6654 4.16995C12.2257 4.21165 11.7742 4.21165 11.3345 4.16995Z" fill="#1A1712"/>
<path fill-rule="evenodd" clip-rule="evenodd" d="M17.0542 1.351C17.6781 1.28127 18.3218 1.28127 18.9457 1.351C19.5652 1.42024 20.0688 1.90749 20.1426 2.53827C20.2173 3.17722 20.2173 3.82271 20.1426 4.46167C20.0688 5.09244 19.5652 5.57969 18.9457 5.64893C18.3218 5.71866 17.6781 5.71866 17.0542 5.64893C16.4347 5.57969 15.9311 5.09244 15.8573 4.46167C15.7826 3.82271 15.7826 3.17722 15.8573 2.53827C15.9311 1.90749 16.4347 1.42024 17.0542 1.351ZM17.3345 2.82998C17.2902 3.27554 17.2902 3.72439 17.3345 4.16995C17.7742 4.21165 18.2257 4.21165 18.6654 4.16995C18.7097 3.72439 18.7097 3.27554 18.6654 2.82998C18.2257 2.78828 17.7742 2.78828 17.3345 2.82998Z" fill="#1A1712"/>
<path fill-rule="evenodd" clip-rule="evenodd" d="M6.94575 6.851C6.32185 6.78127 5.67806 6.78127 5.05416 6.851C4.43467 6.92024 3.93109 7.40749 3.85732 8.03827C3.78259 8.67722 3.78259 9.32271 3.85732 9.96167C3.93109 10.5924 4.43467 11.0797 5.05416 11.1489C5.67806 11.2187 6.32185 11.2187 6.94575 11.1489C7.56523 11.0797 8.06881 10.5924 8.14258 9.96167C8.21732 9.32271 8.21732 8.67722 8.14258 8.03827C8.06881 7.40749 7.56523 6.92024 6.94575 6.851ZM5.33446 9.66995C5.29021 9.22439 5.29021 8.77554 5.33446 8.32998C5.77422 8.28828 6.22568 8.28828 6.66544 8.32998C6.7097 8.77554 6.7097 9.22439 6.66544 9.66995C6.22568 9.71165 5.77422 9.71165 5.33446 9.66995Z" fill="#1A1712"/>
<path fill-rule="evenodd" clip-rule="evenodd" d="M11.0542 6.851C11.6781 6.78127 12.3218 6.78127 12.9457 6.851C13.5652 6.92024 14.0688 7.40749 14.1426 8.03827C14.2173 8.67722 14.2173 9.32271 14.1426 9.96167C14.0688 10.5924 13.5652 11.0797 12.9457 11.1489C12.3218 11.2187 11.6781 11.2187 11.0542 11.1489C10.4347 11.0797 9.93109 10.5924 9.85732 9.96167C9.78259 9.32271 9.78259 8.67722 9.85732 8.03827C9.93109 7.40749 10.4347 6.92024 11.0542 6.851ZM11.3345 8.32998C11.2902 8.77554 11.2902 9.22439 11.3345 9.66995C11.7742 9.71165 12.2257 9.71165 12.6654 9.66995C12.7097 9.22439 12.7097 8.77554 12.6654 8.32998C12.2257 8.28828 11.7742 8.28828 11.3345 8.32998Z" fill="#1A1712"/>
<path fill-rule="evenodd" clip-rule="evenodd" d="M18.9457 6.851C18.3218 6.78127 17.6781 6.78127 17.0542 6.851C16.4347 6.92024 15.9311 7.40749 15.8573 8.03827C15.7826 8.67722 15.7826 9.32271 15.8573 9.96167C15.9311 10.5924 16.4347 11.0797 17.0542 11.1489C17.6781 11.2187 18.3218 11.2187 18.9457 11.1489C19.5652 11.0797 20.0688 10.5924 20.1426 9.96167C20.2173 9.32271 20.2173 8.67722 20.1426 8.03827C20.0688 7.40749 19.5652 6.92024 18.9457 6.851ZM17.3345 9.66995C17.2902 9.22439 17.2902 8.77554 17.3345 8.32998C17.7742 8.28828 18.2257 8.28828 18.6654 8.32998C18.7097 8.77554 18.7097 9.22439 18.6654 9.66995C18.2257 9.71165 17.7742 9.71165 17.3345 9.66995Z" fill="#1A1712"/>
<path fill-rule="evenodd" clip-rule="evenodd" d="M5.05416 12.351C5.67806 12.2813 6.32185 12.2813 6.94575 12.351C7.56523 12.4202 8.06881 12.9075 8.14258 13.5383C8.21732 14.1772 8.21732 14.8227 8.14258 15.4617C8.06881 16.0924 7.56523 16.5797 6.94575 16.6489C6.32185 16.7187 5.67806 16.7187 5.05416 16.6489C4.43467 16.5797 3.93109 16.0924 3.85732 15.4617C3.78259 14.8227 3.78259 14.1772 3.85732 13.5383C3.93109 12.9075 4.43467 12.4202 5.05416 12.351ZM5.33446 13.83C5.29021 14.2755 5.29021 14.7244 5.33446 15.17C5.77422 15.2117 6.22568 15.2117 6.66544 15.17C6.7097 14.7244 6.7097 14.2755 6.66544 13.83C6.22568 13.7883 5.77422 13.7883 5.33446 13.83Z" fill="#1A1712"/>
<path fill-rule="evenodd" clip-rule="evenodd" d="M12.9457 12.351C12.3218 12.2813 11.6781 12.2813 11.0542 12.351C10.4347 12.4202 9.93109 12.9075 9.85732 13.5383C9.78259 14.1772 9.78259 14.8227 9.85732 15.4617C9.93109 16.0924 10.4347 16.5797 11.0542 16.6489C11.6781 16.7187 12.3218 16.7187 12.9457 16.6489C13.5652 16.5797 14.0688 16.0924 14.1426 15.4617C14.2173 14.8227 14.2173 14.1772 14.1426 13.5383C14.0688 12.9075 13.5652 12.4202 12.9457 12.351ZM11.3345 15.17C11.2902 14.7244 11.2902 14.2755 11.3345 13.83C11.7742 13.7883 12.2257 13.7883 12.6654 13.83C12.7097 14.2755 12.7097 14.7244 12.6654 15.17C12.2257 15.2117 11.7742 15.2117 11.3345 15.17Z" fill="#1A1712"/>
<path fill-rule="evenodd" clip-rule="evenodd" d="M11.0542 17.851C11.6781 17.7813 12.3218 17.7813 12.9457 17.851C13.5652 17.9202 14.0688 18.4075 14.1426 19.0383C14.2173 19.6772 14.2173 20.3227 14.1426 20.9617C14.0688 21.5924 13.5652 22.0797 12.9457 22.1489C12.3218 22.2187 11.6781 22.2187 11.0542 22.1489C10.4347 22.0797 9.93109 21.5924 9.85732 20.9617C9.78259 20.3227 9.78259 19.6772 9.85732 19.0383C9.93109 18.4075 10.4347 17.9202 11.0542 17.851ZM11.3345 19.33C11.2902 19.7755 11.2902 20.2244 11.3345 20.67C11.7742 20.7117 12.2257 20.7117 12.6654 20.67C12.7097 20.2244 12.7097 19.7755 12.6654 19.33C12.2257 19.2883 11.7742 19.2883 11.3345 19.33Z" fill="#1A1712"/>
<path fill-rule="evenodd" clip-rule="evenodd" d="M18.9457 12.351C18.3218 12.2813 17.6781 12.2813 17.0542 12.351C16.4347 12.4202 15.9311 12.9075 15.8573 13.5383C15.7826 14.1772 15.7826 14.8227 15.8573 15.4617C15.9311 16.0924 16.4347 16.5797 17.0542 16.6489C17.6781 16.7187 18.3218 16.7187 18.9457 16.6489C19.5652 16.5797 20.0688 16.0924 20.1426 15.4617C20.2173 14.8227 20.2173 14.1772 20.1426 13.5383C20.0688 12.9075 19.5652 12.4202 18.9457 12.351ZM17.3345 15.17C17.2902 14.7244 17.2902 14.2755 17.3345 13.83C17.7742 13.7883 18.2257 13.7883 18.6654 13.83C18.7097 14.2755 18.7097 14.7244 18.6654 15.17C18.2257 15.2117 17.7742 15.2117 17.3345 15.17Z" fill="#1A1712"/>
</svg>
