<svg width="24" height="24" viewBox="0 0 24 24" fill="none" xmlns="http://www.w3.org/2000/svg">
<path fill-rule="evenodd" clip-rule="evenodd" d="M13.2976 18.75C13.4638 18.75 13.6173 18.6608 13.6995 18.5164L17.0455 12.6431C17.4891 11.8646 17.6752 10.9658 17.5773 10.0751L17.2242 6.86145C17.1613 6.28967 16.7125 5.83676 16.1413 5.76881L14.0242 5.51697C12.6267 5.35072 11.2096 5.49483 9.87414 5.93903C9.2146 6.1584 8.68633 6.65899 8.43182 7.30578L6.72773 11.6363C6.68607 11.7422 6.65727 11.8527 6.64197 11.9655C6.51273 12.9176 7.3462 13.7207 8.29287 13.5563L11.7087 12.963C12.7877 12.7756 13.7196 13.7278 13.509 14.8025L12.8436 18.1984C12.7876 18.4842 13.0064 18.75 13.2976 18.75ZM15.0029 19.2589C14.6538 19.8716 14.0028 20.25 13.2976 20.25C12.0622 20.25 11.134 19.1223 11.3716 17.91L12.037 14.5141C12.0398 14.4996 12.0383 14.4907 12.0363 14.4843C12.0338 14.4764 12.0288 14.4672 12.0204 14.4587C12.0121 14.4501 12.003 14.4449 11.9952 14.4422C11.9888 14.4401 11.98 14.4384 11.9654 14.4409L8.54955 15.0342C6.60337 15.3722 4.8899 13.7211 5.1556 11.7637C5.18706 11.5319 5.24626 11.3048 5.33191 11.0871L7.036 6.75652C7.45328 5.69609 8.31939 4.87535 9.40072 4.51569C10.9456 4.00186 12.5847 3.83516 14.2014 4.02747L16.3185 4.27931C17.5827 4.4297 18.5761 5.4321 18.7152 6.6976L19.0683 9.91128C19.2007 11.1163 18.9489 12.3323 18.3489 13.3856L15.0029 19.2589Z" fill="#1A1712"/>
</svg>
