<svg width="24" height="24" viewBox="0 0 24 24" fill="none" xmlns="http://www.w3.org/2000/svg">
<path fill-rule="evenodd" clip-rule="evenodd" d="M13.6642 6.34314C13.6642 6.75735 14 7.09314 14.4142 7.09314L16.9068 7.09314V9.58578C16.9068 9.99999 17.2426 10.3358 17.6568 10.3358C18.071 10.3358 18.4068 9.99999 18.4068 9.58578V6.34314C18.4068 5.92893 18.071 5.59314 17.6568 5.59314L14.4142 5.59314C14 5.59314 13.6642 5.92893 13.6642 6.34314Z" fill="#1A1712"/>
<path fill-rule="evenodd" clip-rule="evenodd" d="M17.6568 13.6642C17.2426 13.6642 16.9068 14 16.9068 14.4142L16.9068 16.9069L14.4142 16.9069C13.9999 16.9069 13.6642 17.2426 13.6642 17.6569C13.6642 18.0711 13.9999 18.4069 14.4142 18.4069L17.6568 18.4069C18.071 18.4069 18.4068 18.0711 18.4068 17.6569L18.4068 14.4142C18.4068 14 18.071 13.6642 17.6568 13.6642Z" fill="#1A1712"/>
<path fill-rule="evenodd" clip-rule="evenodd" d="M6.34311 13.6642C6.75732 13.6642 7.09311 14 7.09311 14.4142L7.09311 16.9069L9.58575 16.9069C9.99996 16.9069 10.3357 17.2426 10.3357 17.6569C10.3357 18.0711 9.99996 18.4069 9.58575 18.4069L6.34311 18.4069C5.92889 18.4069 5.59311 18.0711 5.59311 17.6569L5.59311 14.4142C5.59311 14 5.92889 13.6642 6.34311 13.6642Z" fill="#1A1712"/>
<path fill-rule="evenodd" clip-rule="evenodd" d="M10.3357 6.34314C10.3357 6.75735 9.99993 7.09314 9.58572 7.09314L7.09308 7.09314L7.09308 9.58578C7.09308 9.99999 6.75729 10.3358 6.34308 10.3358C5.92887 10.3358 5.59308 9.99999 5.59308 9.58578L5.59308 6.34314C5.59308 5.92893 5.92887 5.59314 6.34308 5.59314L9.58572 5.59314C9.99993 5.59314 10.3357 5.92893 10.3357 6.34314Z" fill="#1A1712"/>
</svg>
