<svg width="24" height="24" viewBox="0 0 24 24" fill="none" xmlns="http://www.w3.org/2000/svg">
<path fill-rule="evenodd" clip-rule="evenodd" d="M19.6015 16.9757C20.0235 14.6662 20.05 12.3017 19.68 9.98322L19.6159 9.58178C19.5262 9.0197 19.0414 8.60612 18.4722 8.60612H9.75932C9.17426 8.60612 8.69997 8.13183 8.69997 7.54677C8.69997 7.10672 8.34325 6.75 7.9032 6.75H5.61164C5.01461 6.75 4.51173 7.19611 4.44054 7.78888L4.16806 10.058C3.89633 12.3208 3.96646 14.6116 4.37609 16.8536C4.46862 17.36 4.89214 17.7396 5.40562 17.7763L6.91962 17.8846C10.3022 18.1266 13.6977 18.1266 17.0803 17.8846L18.7182 17.7674C19.1588 17.7359 19.5221 17.4102 19.6015 16.9757ZM21.1612 9.74679C21.5581 12.233 21.5296 14.7686 21.0771 17.2453C20.8747 18.353 19.9484 19.1833 18.8252 19.2636L17.1874 19.3808C13.7335 19.6279 10.2664 19.6279 6.81258 19.3808L5.29857 19.2725C4.10254 19.1869 3.11604 18.3027 2.90052 17.1232C2.46385 14.7333 2.3891 12.2913 2.67876 9.87915L2.95124 7.61004C3.11295 6.26343 4.25535 5.25 5.61164 5.25L7.9032 5.25C9.02096 5.25 9.95223 6.04846 10.1577 7.10612L18.4722 7.10612C19.7785 7.10612 20.8913 8.05533 21.0972 9.34535L21.1612 9.74679Z" fill="#1A1712"/>
</svg>
