<svg width="24" height="24" viewBox="0 0 24 24" fill="none" xmlns="http://www.w3.org/2000/svg">
<path d="M18.6801 9.98322C18.7196 10.231 18.7546 10.4792 18.7851 10.7279C18.8028 10.8722 18.8961 10.9956 19.0279 11.0569C19.3826 11.2219 19.7185 11.4206 20.0315 11.6488C20.174 11.7528 20.382 11.6471 20.3678 11.4712C20.3215 10.8947 20.2527 10.3194 20.1613 9.74679L20.0972 9.34535C19.8913 8.05533 18.7786 7.10612 17.4722 7.10612L9.1578 7.10612C8.95229 6.04846 8.02102 5.25 6.90327 5.25H4.6117C3.25541 5.25 2.11301 6.26343 1.9513 7.61004L1.67882 9.87915C1.38916 12.2913 1.46392 14.7333 1.90058 17.1232C2.1161 18.3027 3.10261 19.1869 4.29864 19.2725L5.81264 19.3808C7.5366 19.5041 9.26385 19.5659 10.9911 19.5661C11.1459 19.5661 11.2422 19.3969 11.1709 19.2596C11.0216 18.9719 10.895 18.6706 10.7933 18.358C10.7375 18.1866 10.5814 18.0651 10.4012 18.0636C8.90631 18.051 7.41173 17.9914 5.91968 17.8846L4.40568 17.7763C3.8922 17.7396 3.46868 17.36 3.37615 16.8536C2.96652 14.6116 2.89639 12.3208 3.16812 10.058L3.4406 7.78888C3.51179 7.19611 4.01467 6.75 4.6117 6.75H6.90327C7.34331 6.75 7.70003 7.10672 7.70003 7.54677C7.70003 8.13183 8.17432 8.60612 8.75939 8.60612H17.4722C18.0414 8.60612 18.5263 9.0197 18.616 9.58178L18.6801 9.98322Z" fill="#1A1712"/>
<path fill-rule="evenodd" clip-rule="evenodd" d="M12 16.5C12 17.4719 12.3081 18.3718 12.832 19.1074C13.1239 19.5173 13.4827 19.8762 13.8926 20.1681C14.6282 20.6919 15.5282 21 16.5 21C18.9853 21 21 18.9853 21 16.5C21 15.5281 20.6919 14.6282 20.1681 13.8926C19.8762 13.4827 19.5173 13.1238 19.1074 12.8319C18.3718 12.3081 17.4719 12 16.5 12C14.0147 12 12 14.0147 12 16.5ZM16.5 19.5C15.9437 19.5 15.4227 19.3486 14.9761 19.0846L19.0847 14.976C19.3486 15.4227 19.5 15.9436 19.5 16.5C19.5 18.1569 18.1569 19.5 16.5 19.5ZM13.9154 18.024L18.024 13.9154C17.5774 13.6514 17.0564 13.5 16.5 13.5C14.8432 13.5 13.5 14.8431 13.5 16.5C13.5 17.0564 13.6515 17.5773 13.9154 18.024Z" fill="#1A1712"/>
</svg>
