<svg width="24" height="24" viewBox="0 0 24 24" fill="none" xmlns="http://www.w3.org/2000/svg">
<path d="M14.0001 9C14.0001 8.17157 14.6716 7.5 15.5001 7.5C16.3285 7.5 17.0001 8.17157 17.0001 9C17.0001 9.82843 16.3285 10.5 15.5001 10.5C14.6716 10.5 14.0001 9.82843 14.0001 9Z" fill="#1A1712"/>
<path fill-rule="evenodd" clip-rule="evenodd" d="M7.26759 4.65855C10.4166 4.38481 13.5835 4.38481 16.7325 4.65855L18.2428 4.78983C19.6878 4.91545 20.8585 6.0151 21.0742 7.44949C21.5279 10.4662 21.5279 13.5338 21.0742 16.5505C20.8585 17.9849 19.6878 19.0845 18.2428 19.2102L16.7325 19.3414C13.5835 19.6152 10.4166 19.6152 7.26759 19.3414L5.75736 19.2102C4.31229 19.0845 3.14162 17.9849 2.92592 16.5505C2.47228 13.5338 2.47228 10.4662 2.92592 7.44949C3.14162 6.0151 4.31229 4.91545 5.75736 4.78983L7.26759 4.65855ZM16.6026 6.15292C13.54 5.88669 10.4601 5.88669 7.3975 6.15292L5.88726 6.2842C5.13293 6.34977 4.52184 6.92379 4.40925 7.67254C4.15171 9.38516 4.04792 11.115 4.09786 12.8415L7.96973 8.96967C8.11579 8.82361 8.31562 8.74426 8.52209 8.75032C8.72856 8.75639 8.92338 8.84734 9.06061 9.00173L12.7321 13.1321L15.2629 12.2885C15.5459 12.1941 15.8579 12.2765 16.0575 12.4983L19.5767 16.4084C19.582 16.3817 19.5868 16.3547 19.5909 16.3274C20.0223 13.4586 20.0223 10.5414 19.5909 7.67254C19.4783 6.92379 18.8672 6.34977 18.1129 6.2842L16.6026 6.15292ZM18.6202 17.588L15.2712 13.8669L12.7372 14.7115C12.4526 14.8064 12.1388 14.7225 11.9395 14.4983L8.46794 10.5928L4.22426 14.8365C4.27304 15.3346 4.3347 15.8317 4.40925 16.3274C4.52184 17.0762 5.13293 17.6502 5.88726 17.7158L7.3975 17.8471C10.4601 18.1133 13.54 18.1133 16.6026 17.8471L18.1129 17.7158C18.2916 17.7003 18.4623 17.6562 18.6202 17.588Z" fill="#1A1712"/>
</svg>
