<svg width="24" height="24" viewBox="0 0 24 24" fill="none" xmlns="http://www.w3.org/2000/svg">
<path d="M13 9C13 9.55229 12.5523 10 12 10C11.4477 10 11 9.55229 11 9C11 8.44772 11.4477 8 12 8C12.5523 8 13 8.44772 13 9Z" fill="#1A1712"/>
<path d="M12 11.75C12.4142 11.75 12.75 12.0858 12.75 12.5V17.5C12.75 17.9142 12.4142 18.25 12 18.25C11.5858 18.25 11.25 17.9142 11.25 17.5V12.5C11.25 12.0858 11.5858 11.75 12 11.75Z" fill="#1A1712"/>
<path fill-rule="evenodd" clip-rule="evenodd" d="M14.2703 3.99264C13.1784 2.39497 10.8216 2.39497 9.72961 3.99264L9.29769 4.62458C6.59165 8.5838 4.26669 12.7904 2.35396 17.1881L2.26374 17.3955C1.58969 18.9453 2.60805 20.705 4.2876 20.8927C9.41323 21.4656 14.5867 21.4656 19.7124 20.8927C21.3919 20.705 22.4103 18.9453 21.7362 17.3955L21.646 17.1881C19.7333 12.7904 17.4083 8.5838 14.7023 4.62459L14.2703 3.99264ZM10.968 4.83905C11.4643 4.11284 12.5356 4.11283 13.032 4.83905L13.4639 5.471C16.1165 9.35201 18.3955 13.4755 20.2705 17.7864L20.3607 17.9938C20.6321 18.6178 20.222 19.3264 19.5458 19.402C14.5309 19.9625 9.46911 19.9625 4.4542 19.402C3.77791 19.3264 3.36785 18.6178 3.63927 17.9938L3.72948 17.7864C5.60443 13.4756 7.88348 9.35201 10.5361 5.47099L10.968 4.83905Z" fill="#1A1712"/>
</svg>
