<svg width="24" height="24" viewBox="0 0 24 24" fill="none" xmlns="http://www.w3.org/2000/svg">
<path d="M12 10.75C12.4142 10.75 12.75 11.0858 12.75 11.5V16.5C12.75 16.9142 12.4142 17.25 12 17.25C11.5858 17.25 11.25 16.9142 11.25 16.5L11.25 11.5C11.25 11.0858 11.5858 10.75 12 10.75Z" fill="#1A1712"/>
<path d="M12 9C12.5523 9 13 8.55228 13 8C13 7.44771 12.5523 7 12 7C11.4477 7 11 7.44771 11 8C11 8.55228 11.4477 9 12 9Z" fill="#1A1712"/>
<path fill-rule="evenodd" clip-rule="evenodd" d="M7.31673 3.76875C10.4043 3.42367 13.5957 3.42367 16.6832 3.76875C18.5096 3.97288 19.9845 5.41152 20.1994 7.24848C20.5686 10.4054 20.5686 13.5946 20.1994 16.7515C19.9845 18.5885 18.5096 20.0271 16.6832 20.2312C13.5957 20.5763 10.4043 20.5763 7.31673 20.2312C5.49035 20.0271 4.01545 18.5885 3.8006 16.7515C3.43137 13.5946 3.43137 10.4054 3.8006 7.24848C4.01545 5.41152 5.49035 3.97288 7.31673 3.76875ZM16.5166 5.25947C13.5398 4.92676 10.4602 4.92676 7.48334 5.25947C6.33891 5.38738 5.42286 6.29062 5.29045 7.42273C4.93476 10.4639 4.93476 13.5361 5.29045 16.5773C5.42286 17.7094 6.33891 18.6126 7.48334 18.7405C10.4602 19.0732 13.5398 19.0732 16.5166 18.7405C17.6611 18.6126 18.5771 17.7094 18.7095 16.5773C19.0652 13.5361 19.0652 10.4639 18.7095 7.42273C18.5771 6.29062 17.6611 5.38738 16.5166 5.25947Z" fill="#1A1712"/>
</svg>
