<svg width="24" height="24" viewBox="0 0 24 24" fill="none" xmlns="http://www.w3.org/2000/svg">
<path d="M16 7.00005C16 6.44776 16.4477 6.00005 17 6.00005C17.5523 6.00005 18 6.44776 18 7.00005C18 7.55233 17.5523 8.00005 17 8.00005C16.4477 8.00005 16 7.55233 16 7.00005Z" fill="#1A1712"/>
<path fill-rule="evenodd" clip-rule="evenodd" d="M12 7.25005C9.37665 7.25005 7.25 9.37669 7.25 12C7.25 14.6234 9.37665 16.75 12 16.75C14.6234 16.75 16.75 14.6234 16.75 12C16.75 9.37669 14.6234 7.25005 12 7.25005ZM8.75 12C8.75 10.2051 10.2051 8.75005 12 8.75005C13.7949 8.75005 15.25 10.2051 15.25 12C15.25 13.795 13.7949 15.25 12 15.25C10.2051 15.25 8.75 13.795 8.75 12Z" fill="#1A1712"/>
<path fill-rule="evenodd" clip-rule="evenodd" d="M17.2583 2.83306C13.7917 2.44562 10.2083 2.44562 6.74177 2.83306C4.72971 3.05794 3.10538 4.64295 2.86883 6.66548C2.45429 10.2098 2.45429 13.7903 2.86883 17.3346C3.10538 19.3571 4.72971 20.9422 6.74177 21.167C10.2083 21.5545 13.7917 21.5545 17.2583 21.167C19.2703 20.9422 20.8946 19.3571 21.1312 17.3346C21.5457 13.7903 21.5457 10.2098 21.1312 6.66548C20.8946 4.64295 19.2703 3.05794 17.2583 2.83306ZM6.90838 4.32378C10.2642 3.94871 13.7358 3.94871 17.0916 4.32378C18.4218 4.47244 19.4872 5.52205 19.6414 6.83973C20.0424 10.2683 20.0424 13.7318 19.6414 17.1604C19.4872 18.478 18.4218 19.5277 17.0916 19.6763C13.7358 20.0514 10.2642 20.0514 6.90838 19.6763C5.57827 19.5277 4.51278 18.478 4.35867 17.1604C3.95767 13.7318 3.95767 10.2683 4.35867 6.83973C4.51278 5.52205 5.57827 4.47244 6.90838 4.32378Z" fill="#1A1712"/>
</svg>
