<svg width="24" height="24" viewBox="0 0 24 24" fill="none" xmlns="http://www.w3.org/2000/svg">
<path fill-rule="evenodd" clip-rule="evenodd" d="M8.92918 4.47027C7.65796 4.32819 6.34205 4.32819 5.07084 4.47027C4.76195 4.50479 4.51835 4.74938 4.48361 5.04644C4.3318 6.34438 4.3318 7.65559 4.48361 8.95353C4.51835 9.25059 4.76195 9.49518 5.07084 9.5297C6.34206 9.67178 7.65796 9.67178 8.92918 9.5297C9.23807 9.49518 9.48167 9.25059 9.51641 8.95353C9.66822 7.65559 9.66822 6.34438 9.51641 5.04644C9.48167 4.74938 9.23807 4.50479 8.92918 4.47027ZM4.90423 2.97955C6.28617 2.8251 7.71384 2.8251 9.09579 2.97955C10.0866 3.09029 10.8891 3.87028 11.0063 4.87219C11.1716 6.2859 11.1716 7.71407 11.0063 9.12778C10.8891 10.1297 10.0866 10.9097 9.09579 11.0204C7.71384 11.1749 6.28617 11.1749 4.90423 11.0204C3.91339 10.9097 3.11094 10.1297 2.99376 9.12778C2.82841 7.71407 2.82841 6.2859 2.99376 4.87219C3.11094 3.87028 3.91339 3.09029 4.90423 2.97955Z" fill="#1A1712"/>
<path fill-rule="evenodd" clip-rule="evenodd" d="M8.92918 14.4703C7.65796 14.3282 6.34205 14.3282 5.07084 14.4703C4.76195 14.5048 4.51835 14.7494 4.48361 15.0464C4.3318 16.3444 4.3318 17.6556 4.48361 18.9535C4.51835 19.2506 4.76195 19.4952 5.07084 19.5297C6.34206 19.6718 7.65796 19.6718 8.92918 19.5297C9.23807 19.4952 9.48167 19.2506 9.51641 18.9535C9.66822 17.6556 9.66822 16.3444 9.51641 15.0464C9.48167 14.7494 9.23807 14.5048 8.92918 14.4703ZM4.90423 12.9795C6.28617 12.8251 7.71384 12.8251 9.09579 12.9795C10.0866 13.0903 10.8891 13.8703 11.0063 14.8722C11.1716 16.2859 11.1716 17.7141 11.0063 19.1278C10.8891 20.1297 10.0866 20.9097 9.09579 21.0204C7.71384 21.1749 6.28617 21.1749 4.90423 21.0204C3.91339 20.9097 3.11094 20.1297 2.99376 19.1278C2.82841 17.7141 2.82841 16.2859 2.99376 14.8722C3.11094 13.8703 3.91339 13.0903 4.90423 12.9795Z" fill="#1A1712"/>
<path fill-rule="evenodd" clip-rule="evenodd" d="M18.9292 4.47027C17.658 4.32819 16.3421 4.32819 15.0708 4.47027C14.7619 4.50479 14.5183 4.74938 14.4836 5.04644C14.3318 6.34438 14.3318 7.65559 14.4836 8.95353C14.5183 9.25059 14.7619 9.49518 15.0708 9.5297C16.3421 9.67178 17.658 9.67178 18.9292 9.5297C19.2381 9.49518 19.4817 9.25059 19.5164 8.95353C19.6682 7.65559 19.6682 6.34438 19.5164 5.04644C19.4817 4.74938 19.2381 4.50479 18.9292 4.47027ZM14.9042 2.97955C16.2862 2.8251 17.7138 2.8251 19.0958 2.97955C20.0866 3.09029 20.8891 3.87028 21.0063 4.87219C21.1716 6.2859 21.1716 7.71407 21.0063 9.12778C20.8891 10.1297 20.0866 10.9097 19.0958 11.0204C17.7138 11.1749 16.2862 11.1749 14.9042 11.0204C13.9134 10.9097 13.1109 10.1297 12.9938 9.12778C12.8284 7.71407 12.8284 6.2859 12.9938 4.87219C13.1109 3.87028 13.9134 3.09029 14.9042 2.97955Z" fill="#1A1712"/>
<path fill-rule="evenodd" clip-rule="evenodd" d="M18.9292 14.4703C17.658 14.3282 16.3421 14.3282 15.0708 14.4703C14.7619 14.5048 14.5183 14.7494 14.4836 15.0464C14.3318 16.3444 14.3318 17.6556 14.4836 18.9535C14.5183 19.2506 14.7619 19.4952 15.0708 19.5297C16.3421 19.6718 17.658 19.6718 18.9292 19.5297C19.2381 19.4952 19.4817 19.2506 19.5164 18.9535C19.6682 17.6556 19.6682 16.3444 19.5164 15.0464C19.4817 14.7494 19.2381 14.5048 18.9292 14.4703ZM14.9042 12.9795C16.2862 12.8251 17.7138 12.8251 19.0958 12.9795C20.0866 13.0903 20.8891 13.8703 21.0063 14.8722C21.1716 16.2859 21.1716 17.7141 21.0063 19.1278C20.8891 20.1297 20.0866 20.9097 19.0958 21.0204C17.7138 21.1749 16.2862 21.1749 14.9042 21.0204C13.9134 20.9097 13.1109 20.1297 12.9938 19.1278C12.8284 17.7141 12.8284 16.2859 12.9938 14.8722C13.1109 13.8703 13.9134 13.0903 14.9042 12.9795Z" fill="#1A1712"/>
</svg>
