<svg width="24" height="24" viewBox="0 0 24 24" fill="none" xmlns="http://www.w3.org/2000/svg">
<path fill-rule="evenodd" clip-rule="evenodd" d="M13.6138 2.30993C13.8904 2.42771 14.07 2.69932 14.07 3V9.99818H18C18.2667 9.99818 18.5133 10.1398 18.6478 10.3702C18.7822 10.6005 18.7842 10.8849 18.653 11.1171L18.1609 11.988C16.2948 15.2906 13.9149 18.2752 11.1106 20.8298L10.3151 21.5544C10.0955 21.7544 9.7786 21.806 9.50693 21.686C9.23526 21.566 9.06 21.297 9.06 21V14.0611H5C4.58579 14.0611 4.25 13.7253 4.25 13.3111C4.25 13.177 4.28523 13.051 4.34693 12.9421C6.10572 9.69063 8.3575 6.73117 11.0222 4.16894L12.8002 2.45937C13.0169 2.25097 13.3371 2.19215 13.6138 2.30993ZM6.28458 12.5611H9.81C10.2242 12.5611 10.56 12.8969 10.56 13.3111V19.2945C12.9786 17.0089 15.0517 14.3827 16.7134 11.4982H13.32C12.9058 11.4982 12.57 11.1624 12.57 10.7482V4.76161L12.0619 5.25019C9.8111 7.4144 7.86782 9.87441 6.28458 12.5611Z" fill="#1A1712"/>
</svg>
