<svg width="24" height="24" viewBox="0 0 24 24" fill="none" xmlns="http://www.w3.org/2000/svg">
<path d="M12 6.25C12.4143 6.25 12.75 6.58579 12.75 7V9.00002H14.75C15.1642 9.00002 15.5 9.33581 15.5 9.75002C15.5 10.1642 15.1642 10.5 14.75 10.5H12.75V12.5C12.75 12.9142 12.4143 13.25 12 13.25C11.5858 13.25 11.25 12.9142 11.25 12.5V10.5H9.25003C8.83581 10.5 8.50003 10.1642 8.50003 9.75002C8.50003 9.33581 8.83581 9.00002 9.25003 9.00002H11.25V7C11.25 6.58579 11.5858 6.25 12 6.25Z" fill="#1A1712"/>
<path fill-rule="evenodd" clip-rule="evenodd" d="M11.7841 1.25C7.47087 1.25 3.87872 4.55824 3.52439 8.85685C3.33405 11.166 4.04733 13.4589 5.51399 15.2526L10.307 21.1144C11.1821 22.1845 12.818 22.1845 13.693 21.1144L18.4861 15.2526C19.9527 13.4589 20.666 11.166 20.4757 8.85685C20.1213 4.55824 16.5292 1.25 12.216 1.25H11.7841ZM5.01932 8.98008C5.30952 5.45948 8.25152 2.75 11.7841 2.75H12.216C15.7485 2.75 18.6905 5.45948 18.9807 8.98008C19.1391 10.9019 18.5455 12.8102 17.3248 14.3031L12.5318 20.1649C12.2569 20.501 11.7431 20.501 11.4683 20.1649L6.67521 14.3031C5.45455 12.8102 4.8609 10.9019 5.01932 8.98008Z" fill="#1A1712"/>
</svg>
