<svg width="24" height="24" viewBox="0 0 24 24" fill="none" xmlns="http://www.w3.org/2000/svg">
<path fill-rule="evenodd" clip-rule="evenodd" d="M5.62548 9.63126L5.30625 6.75817C5.26581 6.39419 5.26581 6.02685 5.30625 5.66288L5.32901 5.45798C5.5705 3.28459 7.2791 1.56493 9.45089 1.30943C9.81572 1.26651 10.1843 1.26651 10.5491 1.30943C12.7209 1.56493 14.4295 3.28459 14.671 5.45798L14.6938 5.66288C14.7342 6.02685 14.7342 6.39419 14.6938 6.75817L14.4128 9.28684C14.393 9.46553 14.256 9.60784 14.0799 9.64413C13.0843 9.84928 12.166 10.2658 11.3738 10.8448C11.2996 10.899 11.2099 10.9281 11.1181 10.9256C9.55159 10.8828 7.98324 10.93 6.42079 11.0672L5.28634 11.1668C4.76161 11.2129 4.33692 11.6128 4.25936 12.1338C3.92714 14.3656 3.92714 16.6344 4.25936 18.8662C4.33692 19.3872 4.76161 19.7871 5.28634 19.8332L6.42079 19.9328C7.36685 20.0159 8.31507 20.066 9.26374 20.083C9.40268 20.0855 9.53004 20.1596 9.60511 20.2765C9.82385 20.6173 10.0713 20.9378 10.3441 21.2347C10.4654 21.3667 10.3771 21.5884 10.1978 21.5892C8.89389 21.5953 7.58976 21.5412 6.28957 21.427L5.15513 21.3274C3.93937 21.2207 2.9554 20.2942 2.77571 19.0871C2.42169 16.7088 2.42169 14.2912 2.77571 11.9129C2.9554 10.7058 3.93937 9.77933 5.15513 9.67256L5.62548 9.63126ZM9.62615 2.79915C9.87454 2.76993 10.1255 2.76993 10.3739 2.79915C11.8525 2.97311 13.0158 4.14391 13.1802 5.62363L13.203 5.82853C13.2312 6.08241 13.2312 6.33864 13.203 6.59252L12.879 9.50816C10.9619 9.37773 9.03814 9.37773 7.12103 9.50816L6.79707 6.59252C6.76886 6.33864 6.76886 6.08241 6.79707 5.82852L6.81984 5.62363C6.98425 4.14391 8.14753 2.97311 9.62615 2.79915Z" fill="#1A1712"/>
<path d="M16.25 15C16.25 14.5858 15.9142 14.25 15.5 14.25C15.0858 14.25 14.75 14.5858 14.75 15V16.7727C14.75 17.0127 14.8648 17.2381 15.0589 17.3793L16.0589 18.1065C16.3939 18.3502 16.8629 18.2761 17.1066 17.9411C17.3502 17.6061 17.2761 17.1371 16.9411 16.8934L16.25 16.3908V15Z" fill="#1A1712"/>
<path fill-rule="evenodd" clip-rule="evenodd" d="M15.5 22C18.5376 22 21 19.5376 21 16.5C21 13.4624 18.5376 11 15.5 11C12.4624 11 10 13.4624 10 16.5C10 19.5376 12.4624 22 15.5 22ZM15.5 20.5C17.7092 20.5 19.5 18.7091 19.5 16.5C19.5 14.2909 17.7092 12.5 15.5 12.5C13.2909 12.5 11.5 14.2909 11.5 16.5C11.5 18.7091 13.2909 20.5 15.5 20.5Z" fill="#1A1712"/>
</svg>
