<svg width="24" height="24" viewBox="0 0 24 24" fill="none" xmlns="http://www.w3.org/2000/svg">
<path d="M9.50003 15.25C9.08582 15.25 8.75003 15.5858 8.75003 16C8.75003 16.4142 9.08582 16.75 9.50003 16.75H11.25V18.5C11.25 18.9142 11.5858 19.25 12 19.25C12.4142 19.25 12.75 18.9142 12.75 18.5V16.75H14.5C14.9142 16.75 15.25 16.4142 15.25 16C15.25 15.5858 14.9142 15.25 14.5 15.25H12.75V13.5C12.75 13.0858 12.4142 12.75 12 12.75C11.5858 12.75 11.25 13.0858 11.25 13.5V15.25H9.50003Z" fill="#1A1712"/>
<path fill-rule="evenodd" clip-rule="evenodd" d="M7.25003 5.46119V6.69898C6.88074 6.72683 6.51163 6.75793 6.14276 6.79229C4.47367 6.94774 3.19739 8.34841 3.19739 10.0247V17.9753C3.19739 19.6516 4.47367 21.0523 6.14276 21.2077C10.0392 21.5706 13.9609 21.5706 17.8573 21.2077C19.5264 21.0523 20.8027 19.6516 20.8027 17.9753V10.0247C20.8027 8.34841 19.5264 6.94774 17.8573 6.79229C17.4884 6.75793 17.1193 6.72683 16.75 6.69898V5.46119C16.75 4.59495 16.1163 3.85905 15.2596 3.73055L14.0397 3.54756C12.6875 3.34473 11.3126 3.34473 9.96035 3.54756L8.74043 3.73055C7.88378 3.85905 7.25003 4.59495 7.25003 5.46119ZM13.8172 5.03097C12.6125 4.85026 11.3876 4.85026 10.1829 5.03097L8.96295 5.21396C8.84056 5.23231 8.75003 5.33744 8.75003 5.46119V6.60378C10.9153 6.49222 13.0848 6.49222 15.25 6.60378V5.46119C15.25 5.33744 15.1595 5.23231 15.0371 5.21396L13.8172 5.03097ZM17.7182 8.28582C13.9143 7.93154 10.0857 7.93154 6.28186 8.28582C5.38397 8.36945 4.69739 9.12295 4.69739 10.0247V10.25H19.3027V10.0247C19.3027 9.12295 18.6161 8.36945 17.7182 8.28582ZM19.3027 11.75H4.69739V17.9753C4.69739 18.8771 5.38397 19.6306 6.28186 19.7142C10.0857 20.0685 13.9143 20.0685 17.7182 19.7142C18.6161 19.6306 19.3027 18.8771 19.3027 17.9753V11.75Z" fill="#1A1712"/>
</svg>
