<svg width="24" height="24" viewBox="0 0 24 24" fill="none" xmlns="http://www.w3.org/2000/svg">
<path fill-rule="evenodd" clip-rule="evenodd" d="M18.7502 10.5L18.7437 10.7429L18.7502 11L18.7441 11.2433L18.7502 11.5L18.7443 11.7449L18.7502 12L18.5878 19.103C18.5493 20.7883 17.2675 22.184 15.5916 22.3655C13.2042 22.624 10.7958 22.624 8.40837 22.3655C6.73246 22.184 5.45069 20.7883 5.41217 19.103L5.24978 12L5.25565 11.7432L5.2498 11.5L5.25596 11.2443L5.24975 11L5.25626 10.744L5.24969 10.5L5.4137 4.40211C5.41599 4.31703 5.42197 4.23283 5.43149 4.14968L5.43522 4.11452L5.43818 4.08618C5.51879 3.26208 5.97547 2.54332 6.64099 2.11199C6.69065 2.07897 6.74146 2.04752 6.79338 2.01772C6.84416 1.98767 6.89599 1.95917 6.94881 1.93228C7.27541 1.75992 7.6399 1.6482 8.0279 1.61248C10.6704 1.36924 13.3296 1.36924 15.972 1.61248C16.3594 1.64814 16.7234 1.75956 17.0496 1.93146C17.1024 1.95831 17.1542 1.98677 17.205 2.01678C17.2586 2.04747 17.311 2.07992 17.3621 2.11403C18.0241 2.5444 18.4788 3.25943 18.5611 4.07938L18.5689 4.15368C18.5782 4.23553 18.584 4.31839 18.5862 4.40211L18.7502 10.5ZM17.0742 4.32073L17.2312 11.1874L17.104 15.9176C17.0754 16.981 16.2563 17.8551 15.197 17.9526C13.0701 18.1483 10.9298 18.1483 8.80292 17.9526C7.74365 17.8551 6.92454 16.981 6.89594 15.9176L6.76874 11.188L6.92573 4.32073C6.92607 4.30595 6.92668 4.29124 6.92757 4.2766C6.98705 3.87432 7.22018 3.52708 7.55073 3.31621C7.67595 3.25093 7.81489 3.20764 7.96269 3.19164C10.6464 2.90101 13.3536 2.90101 16.0373 3.19164C16.185 3.20764 16.3239 3.2509 16.4491 3.31613C16.7798 3.52705 17.013 3.87446 17.0724 4.27693C17.0733 4.29147 17.0739 4.30606 17.0742 4.32073ZM12 21.7C12.8284 21.7 13.5 21.0285 13.5 20.2C13.5 19.3716 12.8284 18.7 12 18.7C11.1716 18.7 10.5 19.3716 10.5 20.2C10.5 21.0285 11.1716 21.7 12 21.7Z" fill="#1A1712"/>
</svg>
