<svg width="24" height="24" viewBox="0 0 24 24" fill="none" xmlns="http://www.w3.org/2000/svg">
<path fill-rule="evenodd" clip-rule="evenodd" d="M11.7623 3.25011C12.2215 3.25576 12.752 3.47285 13.0382 3.98431L13.2124 4.29565C15.8706 9.04584 18.0375 13.9835 19.6863 19.049C19.904 19.7181 19.5451 20.2857 19.097 20.5487C18.6585 20.806 18.0554 20.8404 17.5447 20.512L12.8173 17.4719C12.2948 17.1359 11.5857 17.135 11.0963 17.4441L6.46484 20.3691C5.94281 20.6988 5.33707 20.6351 4.9118 20.3799C4.48468 20.1236 4.10335 19.5712 4.30272 18.8969C5.78977 13.8676 7.79972 8.97844 10.3077 4.28867L10.472 3.98149C10.7563 3.44998 11.3042 3.24448 11.7623 3.25011ZM11.7551 4.76304L11.6305 4.99605C9.22521 9.49368 7.2879 14.1762 5.8404 18.9894L10.2954 16.1759C11.2941 15.5451 12.6321 15.5694 13.6286 16.2102L18.1247 19.1016C16.5242 14.2751 14.4428 9.56596 11.9034 5.02815L11.7551 4.76304Z" fill="#1A1712"/>
</svg>
