<svg width="24" height="24" viewBox="0 0 24 24" fill="none" xmlns="http://www.w3.org/2000/svg">
<path d="M8.89004 15.4027C8.34184 15.4697 7.95179 15.9685 8.01883 16.5167C8.08587 17.0649 8.58462 17.4549 9.13283 17.3879C9.68103 17.3209 10.0711 16.8221 10.004 16.2739C9.937 15.7257 9.43824 15.3356 8.89004 15.4027Z" fill="#1A1712"/>
<path d="M5.54807 12.7891C5.48102 12.2409 5.87108 11.7421 6.41928 11.6751C6.96748 11.608 7.46623 11.9981 7.53327 12.5463C7.60032 13.0945 7.21026 13.5932 6.66206 13.6603C6.11386 13.7273 5.61511 13.3373 5.54807 12.7891Z" fill="#1A1712"/>
<path d="M7.91891 7.46186C7.37071 7.5289 6.98066 8.02766 7.0477 8.57586C7.11474 9.12406 7.61349 9.51411 8.1617 9.44707C8.7099 9.38003 9.09995 8.88127 9.03291 8.33307C8.96587 7.78487 8.46711 7.39482 7.91891 7.46186Z" fill="#1A1712"/>
<path d="M15.6973 9.28109C15.6302 8.73289 16.0203 8.23413 16.5685 8.16709C17.1167 8.10005 17.6154 8.4901 17.6825 9.0383C17.7495 9.5865 17.3595 10.0853 16.8113 10.1523C16.2631 10.2193 15.7643 9.82929 15.6973 9.28109Z" fill="#1A1712"/>
<path d="M11.9926 10.8786C11.4444 10.9457 11.0543 11.4444 11.1214 11.9926C11.1884 12.5408 11.6872 12.9309 12.2354 12.8638C12.7836 12.7968 13.1736 12.298 13.1066 11.7498C13.0395 11.2016 12.5408 10.8116 11.9926 10.8786Z" fill="#1A1712"/>
<path d="M11.393 7.03698C11.326 6.48878 11.716 5.99002 12.2642 5.92298C12.8125 5.85594 13.3112 6.24599 13.3782 6.79419C13.4453 7.34239 13.0552 7.84115 12.507 7.90819C11.9588 7.97523 11.4601 7.58518 11.393 7.03698Z" fill="#1A1712"/>
<path fill-rule="evenodd" clip-rule="evenodd" d="M2.25286 11.7637C2.38336 6.3805 6.85308 2.12234 12.2363 2.25284C17.6195 2.38333 21.8776 6.85306 21.7471 12.2363C21.7389 12.5772 21.6243 12.8886 21.4131 13.1451C21.2112 13.3904 20.9498 13.5512 20.6918 13.6589C20.1898 13.8685 19.5606 13.9342 18.9379 13.9384C16.2492 13.9566 13.9138 16.2692 13.7612 18.9967C13.7256 19.633 13.6171 20.2803 13.3433 20.7889C13.2015 21.0522 13.0023 21.3027 12.7233 21.4841C12.4377 21.6698 12.1102 21.7555 11.7637 21.7471C6.38052 21.6166 2.12236 17.1469 2.25286 11.7637ZM12.1999 3.7524C7.64492 3.64198 3.86284 7.24503 3.75242 11.8C3.642 16.3551 7.24505 20.1371 11.8001 20.2476C11.8682 20.2492 11.8934 20.2345 11.9057 20.2265C11.9247 20.2142 11.9687 20.1776 12.0225 20.0777C12.1399 19.8598 12.2321 19.4757 12.2636 18.9129C12.458 15.438 15.4044 12.4623 18.9277 12.4384C19.4898 12.4346 19.8842 12.3706 20.114 12.2747C20.1951 12.2408 20.233 12.2121 20.2476 12.1991C20.3576 7.64447 16.7547 3.86281 12.1999 3.7524Z" fill="#1A1712"/>
</svg>
