<svg width="24" height="24" viewBox="0 0 24 24" fill="none" xmlns="http://www.w3.org/2000/svg">
<path fill-rule="evenodd" clip-rule="evenodd" d="M5.84023 9.85638C7.62754 13.7483 10.808 16.8424 14.7618 18.519L14.7743 18.5243L15.5381 18.8648C16.5107 19.2981 17.6539 18.9904 18.2776 18.1273L19.5519 16.3635C19.6298 16.2558 19.6097 16.106 19.5063 16.0225L17.2815 14.2277C17.1709 14.1385 17.0083 14.1593 16.9237 14.2735L16.0578 15.4418C15.8475 15.7256 15.4678 15.8242 15.146 15.6786C12.1896 14.3407 9.81391 11.9649 8.47598 9.00854C8.33037 8.68678 8.42896 8.30702 8.71272 8.09674L9.88109 7.23088C9.99526 7.14628 10.016 6.98365 9.92682 6.87305L8.13178 4.64801C8.04835 4.54459 7.8986 4.52451 7.79087 4.60228L6.01758 5.88244C5.14879 6.50963 4.84283 7.66247 5.28629 8.63792L5.83963 9.85508L5.84023 9.85638ZM14.1699 19.8973C9.87386 18.0737 6.4185 14.7107 4.47645 10.481L4.47528 10.4784L3.92078 9.25871C3.18168 7.63296 3.69161 5.71155 5.13959 4.66624L6.91288 3.38608C7.667 2.84167 8.71523 2.98228 9.29923 3.70617L11.0943 5.93122C11.7188 6.70539 11.5734 7.84378 10.7742 8.43602L10.1047 8.93218C11.2356 11.1266 13.028 12.919 15.2224 14.0499L15.7185 13.3804C16.3108 12.5812 17.4492 12.4357 18.2234 13.0603L20.4481 14.8551C21.1722 15.4393 21.3126 16.4879 20.7678 17.242L19.4934 19.0058C18.454 20.4442 16.5487 20.9572 14.9276 20.2349L14.1699 19.8973Z" fill="#1A1712"/>
<path fill-rule="evenodd" clip-rule="evenodd" d="M19.4696 4.03036C19.6103 4.17101 19.6893 4.36178 19.6893 4.56069V8.38912C19.6893 8.80333 19.3535 9.13912 18.9393 9.13912C18.5251 9.13912 18.1893 8.80333 18.1893 8.38912V6.37135L15.0303 9.53036C14.7374 9.82325 14.2625 9.82325 13.9696 9.53036C13.6767 9.23747 13.6767 8.76259 13.9696 8.4697L17.1286 5.31069L15.1109 5.31069C14.6967 5.31069 14.3609 4.9749 14.3609 4.56069C14.3609 4.14648 14.6967 3.81069 15.1109 3.81069L18.9393 3.81069C19.1382 3.81069 19.329 3.88971 19.4696 4.03036Z" fill="#1A1712"/>
</svg>
