<svg width="24" height="24" viewBox="0 0 24 24" fill="none" xmlns="http://www.w3.org/2000/svg">
<path fill-rule="evenodd" clip-rule="evenodd" d="M19.266 10.4838C20.2579 11.2513 20.2579 12.7487 19.266 13.5162C16.2685 15.8356 12.9213 17.6638 9.34973 18.9322L8.69725 19.164C7.44898 19.6073 6.13047 18.7628 5.96148 17.4742C5.48932 13.874 5.48932 10.126 5.96148 6.5258C6.13047 5.23725 7.44898 4.39269 8.69725 4.83603L9.34973 5.06777C12.9213 6.33625 16.2685 8.1644 19.266 10.4838ZM18.3481 12.3299C18.5639 12.1629 18.5639 11.8371 18.3481 11.6701C15.4762 9.44802 12.2694 7.69654 8.84771 6.48126L8.19523 6.24953C7.87028 6.13412 7.49685 6.35407 7.44874 6.72085C6.99357 10.1916 6.99357 13.8084 7.44874 17.2792C7.49685 17.6459 7.87028 17.8659 8.19523 17.7505L8.8477 17.5188C12.2694 16.3035 15.4762 14.552 18.3481 12.3299Z" fill="#1A1712"/>
</svg>
