<svg width="24" height="24" viewBox="0 0 24 24" fill="none" xmlns="http://www.w3.org/2000/svg">
<path d="M17.75 11C17.0596 11 16.5 11.5596 16.5 12.25C16.5 12.9403 17.0596 13.5 17.75 13.5C18.4404 13.5 19 12.9403 19 12.25C19 11.5596 18.4404 11 17.75 11Z" fill="#1A1712"/>
<path fill-rule="evenodd" clip-rule="evenodd" d="M4.17314 8.11529L6.25 7.88446V3.91299C6.25 3.2697 6.74006 2.73233 7.38062 2.6732C10.4537 2.38953 13.5463 2.38953 16.6194 2.6732C17.2599 2.73233 17.75 3.2697 17.75 3.91299V7.88445L19.8269 8.11529C20.5932 8.20047 21.2254 8.75389 21.4112 9.5022C21.977 11.781 21.977 14.1637 21.4112 16.4425L21.2279 17.1807C21.1449 17.5152 20.8446 17.75 20.5 17.75H17.75V20.083C17.75 20.705 17.2786 21.2259 16.6597 21.2877C13.561 21.5976 10.439 21.5976 7.34031 21.2877C6.72135 21.2259 6.25 20.705 6.25 20.083V17.75H3.50003C3.15542 17.75 2.85516 17.5152 2.77213 17.1807L2.58884 16.4425C2.02304 14.1637 2.02304 11.781 2.58884 9.5022C2.77464 8.75389 3.40682 8.20047 4.17314 8.11529ZM16.25 7.73954C13.4214 7.5076 10.5786 7.5076 7.75 7.73954V4.14604C10.5779 3.89859 13.4221 3.89859 16.25 4.14604V7.73954ZM16.25 16.5016C16.2482 16.3437 16.147 16.2077 16.0033 16.1569C13.3397 15.9208 10.6604 15.9208 7.99674 16.1569C7.85177 16.2081 7.75003 16.3462 7.75003 16.506V17L7.75 17.0063V19.8205C10.5771 20.0867 13.4229 20.0867 16.25 19.8205V16.5016ZM19.9135 16.25H17.75V15.917C17.75 15.2949 17.2786 14.7741 16.6597 14.7122C16.5243 14.6987 16.3888 14.6857 16.2533 14.6734C16.1965 14.6618 16.1388 14.6528 16.0801 14.6465C13.3679 14.3543 10.6321 14.3543 7.91992 14.6465C7.86129 14.6528 7.80354 14.6618 7.74678 14.6733C7.61125 14.6857 7.47576 14.6987 7.34031 14.7122C6.72135 14.7741 6.25 15.2949 6.25 15.917V16.25H4.08658L4.04464 16.081C3.53777 14.0396 3.53777 11.9051 4.04464 9.86366C4.07914 9.7247 4.19654 9.62193 4.33884 9.60611L6.42116 9.37467C10.129 8.96255 13.8711 8.96255 17.5789 9.37467L19.6612 9.60611C19.8035 9.62193 19.9209 9.7247 19.9554 9.86366C20.4623 11.9051 20.4623 14.0396 19.9554 16.081L19.9135 16.25Z" fill="#1A1712"/>
</svg>
