<svg width="24" height="24" viewBox="0 0 24 24" fill="none" xmlns="http://www.w3.org/2000/svg">
<path fill-rule="evenodd" clip-rule="evenodd" d="M8.23967 4.87592C8.18246 4.53489 7.8995 4.27718 7.55462 4.25199C7.20974 4.22681 6.89234 4.44069 6.7862 4.76979L4.69627 11.25H2C1.58579 11.25 1.25 11.5858 1.25 12C1.25 12.4142 1.58579 12.75 2 12.75H5.24242C5.56795 12.75 5.8563 12.54 5.95622 12.2302L7.26937 8.15857L9.10882 19.1241C9.16679 19.4697 9.45634 19.7291 9.8062 19.7488C10.1561 19.7686 10.473 19.5434 10.5695 19.2066L12.999 10.7266L14.2789 15.206C14.3613 15.4947 14.608 15.7064 14.9059 15.7441C15.2037 15.7817 15.4954 15.6382 15.6471 15.3791L17.1874 12.75H18.3535C18.68 13.9043 19.7412 14.75 21 14.75C22.5188 14.75 23.75 13.5188 23.75 12C23.75 10.4812 22.5188 9.25 21 9.25C19.7412 9.25 18.68 10.0957 18.3535 11.25H16.7576C16.4913 11.25 16.245 11.3912 16.1105 11.6209L15.2394 13.1077L13.7211 7.79396C13.6292 7.47208 13.335 7.25012 13.0003 7.25C12.6655 7.24988 12.3712 7.47162 12.279 7.79344L10.04 15.6084L8.23967 4.87592ZM19.75 12C19.75 11.3096 20.3096 10.75 21 10.75C21.6904 10.75 22.25 11.3096 22.25 12C22.25 12.6904 21.6904 13.25 21 13.25C20.3096 13.25 19.75 12.6904 19.75 12Z" fill="#1A1712"/>
</svg>
