<svg width="24" height="24" viewBox="0 0 24 24" fill="none" xmlns="http://www.w3.org/2000/svg">
<path fill-rule="evenodd" clip-rule="evenodd" d="M4.95726 5.19242C4.54566 6.52651 4.54566 7.97355 4.95726 9.30764C9.64158 9.7591 14.3585 9.7591 19.0428 9.30764C19.4544 7.97355 19.4544 6.52651 19.0428 5.19242C14.3585 4.74095 9.64158 4.74095 4.95726 5.19242ZM4.70877 3.70949C9.55804 3.23526 14.442 3.23526 19.2913 3.70949C19.8258 3.76177 20.2751 4.12806 20.4393 4.63383C20.9889 6.32692 20.9889 8.17314 20.4393 9.86623C20.2751 10.372 19.8258 10.7383 19.2913 10.7906C14.442 11.2648 9.55804 11.2648 4.70877 10.7906C4.17422 10.7383 3.72495 10.372 3.56077 9.86623C3.01116 8.17314 3.01116 6.32692 3.56077 4.63383C3.72495 4.12806 4.17422 3.76177 4.70877 3.70949Z" fill="#1A1712"/>
<path fill-rule="evenodd" clip-rule="evenodd" d="M4.95726 14.6924C4.54566 16.0265 4.54566 17.4735 4.95726 18.8076C9.64158 19.2591 14.3585 19.2591 19.0428 18.8076C19.4544 17.4735 19.4544 16.0265 19.0428 14.6924C14.3585 14.241 9.64158 14.241 4.95726 14.6924ZM4.70877 13.2095C9.55804 12.7353 14.442 12.7353 19.2913 13.2095C19.8258 13.2618 20.2751 13.6281 20.4393 14.1338C20.9889 15.8269 20.9889 17.6731 20.4393 19.3662C20.2751 19.872 19.8258 20.2383 19.2913 20.2906C14.442 20.7648 9.55804 20.7648 4.70877 20.2906C4.17422 20.2383 3.72495 19.872 3.56077 19.3662C3.01116 17.6731 3.01116 15.8269 3.56077 14.1338C3.72495 13.6281 4.17422 13.2618 4.70877 13.2095Z" fill="#1A1712"/>
</svg>
