<svg width="24" height="24" viewBox="0 0 24 24" fill="none" xmlns="http://www.w3.org/2000/svg">
<path fill-rule="evenodd" clip-rule="evenodd" d="M11.1987 2.58722C11.6971 2.31036 12.303 2.31036 12.8013 2.58722L20.0013 6.58722C20.5252 6.87823 20.85 7.43035 20.85 8.02958V15.9705C20.85 16.5697 20.5252 17.1218 20.0013 17.4128L12.8013 21.4128C12.303 21.6897 11.6971 21.6897 11.1987 21.4128L3.99871 17.4128C3.47489 17.1218 3.15002 16.5697 3.15002 15.9705V8.02958C3.15002 7.43035 3.4749 6.87823 3.99871 6.58722L11.1987 2.58722ZM12.0729 3.89845C12.0276 3.87329 11.9725 3.87329 11.9272 3.89845L4.72718 7.89845C4.67956 7.92491 4.65002 7.9751 4.65002 8.02958V15.9705C4.65002 16.0249 4.67956 16.0751 4.72718 16.1016L11.9272 20.1016C11.9725 20.1267 12.0276 20.1267 12.0729 20.1016L19.2729 16.1016C19.3205 16.0751 19.35 16.0249 19.35 15.9705V8.02958C19.35 7.9751 19.3205 7.92491 19.2729 7.89845L12.0729 3.89845Z" fill="#1A1712"/>
<path fill-rule="evenodd" clip-rule="evenodd" d="M7.25002 12C7.25002 9.37666 9.37667 7.25001 12 7.25001C14.6234 7.25001 16.75 9.37666 16.75 12C16.75 14.6234 14.6234 16.75 12 16.75C9.37667 16.75 7.25002 14.6234 7.25002 12ZM12 8.75001C10.2051 8.75001 8.75002 10.2051 8.75002 12C8.75002 13.7949 10.2051 15.25 12 15.25C13.795 15.25 15.25 13.7949 15.25 12C15.25 10.2051 13.795 8.75001 12 8.75001Z" fill="#1A1712"/>
</svg>
