<svg width="24" height="24" viewBox="0 0 24 24" fill="none" xmlns="http://www.w3.org/2000/svg">
<path fill-rule="evenodd" clip-rule="evenodd" d="M9.12977 3.35263C8.95574 3.31358 8.77506 3.31225 8.60032 3.34875C8.43104 3.38411 8.25492 3.47584 7.61562 3.84688L7.12796 4.12991C6.49227 4.49886 6.32645 4.60561 6.21206 4.73436C6.09402 4.86722 6.00566 5.02366 5.95292 5.19317C5.90171 5.35769 5.89576 5.55558 5.90811 6.29009L5.91526 6.71475C5.91539 6.7227 5.91553 6.73051 5.91567 6.7382C5.91648 6.7846 5.91721 6.82631 5.91662 6.86658C5.91011 7.30637 5.79812 7.73801 5.59041 8.12539C5.56974 8.16394 5.54799 8.20157 5.52039 8.24935L5.5119 8.26404C5.48368 8.31291 5.46184 8.35072 5.43853 8.38828C5.20659 8.76197 4.88835 9.07478 4.51039 9.30015C4.47118 9.32353 4.43258 9.34497 4.37844 9.37497L4.01687 9.57534C3.36997 9.93383 3.20098 10.0378 3.08374 10.165C2.96253 10.2966 2.87096 10.4523 2.81527 10.6216C2.76123 10.7858 2.75273 10.984 2.75441 11.7239L2.75569 12.286C2.75736 13.0212 2.7665 13.2177 2.82065 13.3808C2.87654 13.5491 2.96767 13.7037 3.08802 13.8342C3.20458 13.9606 3.37237 14.0641 4.01453 14.4213L4.3847 14.6273C4.43525 14.6554 4.47615 14.6781 4.51618 14.7022C4.89098 14.9279 5.20581 15.2396 5.43561 15.6109C5.4606 15.6513 5.48403 15.6922 5.5138 15.7442L5.51889 15.7531C5.52284 15.76 5.52672 15.7668 5.53054 15.7734C5.55584 15.8176 5.57821 15.8566 5.5986 15.8952C5.80024 16.277 5.90924 16.7009 5.9166 17.1327C5.91742 17.1807 5.91662 17.2281 5.91557 17.2904L5.9086 17.7031C5.89615 18.441 5.90177 18.6388 5.95321 18.8036C6.00621 18.9734 6.0951 19.1302 6.21392 19.2633C6.32895 19.3922 6.49588 19.4991 7.13474 19.8672L7.62844 20.1517C8.2655 20.5188 8.44166 20.6097 8.61043 20.6446C8.78453 20.6807 8.96416 20.6792 9.1375 20.6403C9.30545 20.6026 9.47874 20.509 10.1103 20.1309L10.4642 19.919C10.5186 19.8864 10.557 19.8635 10.5972 19.8412C10.9797 19.6285 11.4073 19.5101 11.8451 19.496C11.8895 19.4946 11.9335 19.4946 11.9896 19.4946H12.0087C12.0648 19.4946 12.1094 19.4946 12.1539 19.496C12.5924 19.5101 13.021 19.629 13.4042 19.8426C13.4442 19.8648 13.4828 19.888 13.5339 19.9187L13.8935 20.1346C14.5273 20.5151 14.7018 20.6093 14.8705 20.6471C15.0447 20.6862 15.2249 20.6876 15.3994 20.6511C15.5687 20.6158 15.7451 20.524 16.3843 20.153L16.8719 19.87C17.5076 19.501 17.6735 19.3942 17.7879 19.2655C17.906 19.1326 17.9943 18.9762 18.0471 18.8067C18.0983 18.6423 18.1041 18.4446 18.0917 17.7098L18.0846 17.2852C18.0845 17.2779 18.0844 17.2708 18.0842 17.2638C18.0834 17.2161 18.0827 17.1742 18.0833 17.1334C18.0898 16.6938 18.2015 16.2621 18.4094 15.8745C18.43 15.8359 18.4518 15.7982 18.4794 15.7504L18.4841 15.7424C18.5162 15.6868 18.5379 15.6496 18.5615 15.6115C18.7934 15.2379 19.1114 14.9252 19.4894 14.6998C19.5263 14.6778 19.5641 14.6569 19.6105 14.6312L19.9834 14.4245C20.6301 14.0661 20.7991 13.9621 20.9164 13.8348C21.0373 13.7036 21.1287 13.548 21.1846 13.3783C21.2387 13.2139 21.2476 13.0149 21.2459 12.2761L21.2446 11.714C21.243 10.9795 21.2335 10.7823 21.1793 10.6191C21.1235 10.4509 21.0323 10.2963 20.9118 10.1656C20.7952 10.0392 20.6275 9.93559 19.9855 9.57847L19.6149 9.37231C19.5636 9.34376 19.5246 9.32205 19.4857 9.29876C19.1101 9.07377 18.7939 8.76239 18.563 8.3907C18.5393 8.35255 18.5176 8.31554 18.4846 8.25837L18.4798 8.25005C18.4518 8.20161 18.4297 8.16334 18.4087 8.12422C18.2015 7.7373 18.09 7.30655 18.0833 6.86791C18.0827 6.82613 18.0834 6.78325 18.0842 6.73401C18.0844 6.72736 18.0845 6.72058 18.0846 6.71368L18.0916 6.29668C18.104 5.55913 18.0983 5.36111 18.0468 5.19627C17.9936 5.02591 17.9048 4.86919 17.7864 4.7365C17.6715 4.60775 17.5046 4.5013 16.865 4.13272L16.3712 3.84816C15.7338 3.48091 15.5582 3.39017 15.3895 3.35526C15.2153 3.3192 15.0356 3.32068 14.8624 3.35957C14.6944 3.39727 14.5212 3.4908 13.8895 3.86903L13.5357 4.08089C13.4804 4.11402 13.4425 4.13653 13.4026 4.15871C13.02 4.37141 12.5922 4.48981 12.1545 4.50386C12.1101 4.50528 12.0661 4.50528 12.0101 4.50527H11.9905C11.9346 4.50528 11.8909 4.50528 11.8465 4.50386C11.408 4.48975 10.9789 4.37089 10.5957 4.15725C10.5576 4.13604 10.5203 4.11364 10.4744 4.08603L10.1067 3.86528C9.47265 3.48466 9.29843 3.39047 9.12977 3.35263ZM8.29363 1.88044C8.67782 1.80019 9.07505 1.80306 9.45816 1.88901C9.8935 1.98669 10.2875 2.22367 10.7886 2.52503C10.8182 2.54288 10.8483 2.56096 10.8787 2.57924L11.2348 2.79301C11.2955 2.82946 11.311 2.8387 11.326 2.84705C11.5002 2.94413 11.6954 2.99822 11.8947 3.00463C11.912 3.00519 11.9304 3.00527 12.0005 3.00527C12.0704 3.00527 12.0891 3.00518 12.1064 3.00463C12.3052 2.99825 12.4996 2.94447 12.6737 2.84772C12.6898 2.83873 12.7086 2.82782 12.7651 2.79395L13.1189 2.58209C13.1496 2.56373 13.1799 2.54557 13.2097 2.52765C13.7082 2.2286 14.1005 1.99327 14.5338 1.89599C14.9155 1.81031 15.3108 1.80718 15.6935 1.88639C16.1293 1.97658 16.5263 2.20574 17.0319 2.49763C17.0609 2.51439 17.0903 2.53135 17.1201 2.54851L17.6139 2.83307C17.6447 2.85081 17.6751 2.86831 17.7052 2.88558C18.2109 3.17649 18.6091 3.40548 18.9056 3.7378C19.1668 4.03047 19.3619 4.37542 19.4786 4.74923C19.6116 5.17499 19.6035 5.63439 19.5932 6.21957C19.5926 6.25326 19.592 6.28737 19.5914 6.32191L19.5843 6.7465C19.5831 6.81251 19.5829 6.82885 19.5831 6.84498C19.5862 7.04452 19.6369 7.24028 19.731 7.41601C19.7391 7.43125 19.7485 7.4476 19.7834 7.50808C19.8156 7.5637 19.827 7.58293 19.8372 7.5992C19.9422 7.76832 20.086 7.9098 20.2565 8.01197C20.2715 8.02093 20.2883 8.03041 20.3485 8.06392L20.7147 8.26765C20.745 8.28451 20.775 8.30113 20.8045 8.31754C21.3136 8.60021 21.7135 8.82228 22.0146 9.14881C22.2791 9.43566 22.4798 9.77567 22.6029 10.1465C22.7429 10.5681 22.7436 11.0258 22.7445 11.6084C22.7445 11.642 22.7446 11.6761 22.7446 11.7105L22.7459 12.2727C22.746 12.3062 22.7461 12.3393 22.7462 12.372C22.748 12.9607 22.7493 13.4218 22.6094 13.8471C22.4867 14.2201 22.2856 14.5626 22.0194 14.8514C21.7165 15.18 21.3136 15.4029 20.8003 15.6868C20.7707 15.7032 20.7408 15.7197 20.7105 15.7365L20.3489 15.9369C20.288 15.9707 20.2722 15.9795 20.2577 15.9881C20.0861 16.0904 19.9416 16.2325 19.836 16.4026C19.8263 16.4183 19.8152 16.4369 19.783 16.4927C19.7485 16.5523 19.7394 16.5684 19.7313 16.5834C19.6369 16.7594 19.5861 16.9557 19.5831 17.1556C19.5829 17.1709 19.5831 17.1859 19.5842 17.2459L19.5915 17.6846C19.5921 17.7184 19.5927 17.7518 19.5933 17.7848C19.6035 18.3692 19.6116 18.8274 19.4793 19.2524C19.3632 19.6257 19.1687 19.9698 18.9093 20.2618C18.6138 20.5943 18.2177 20.8238 17.7126 21.1165C17.6837 21.1332 17.6545 21.1501 17.6249 21.1673L17.1372 21.4503C17.1074 21.4677 17.0779 21.4848 17.0488 21.5017C16.5418 21.7965 16.1435 22.0281 15.7061 22.1195C15.3217 22.1998 14.925 22.1967 14.5421 22.1107C14.1065 22.013 13.7122 21.7759 13.2105 21.4742C13.1812 21.4565 13.1515 21.4387 13.1214 21.4206L12.7653 21.2068C12.7061 21.1712 12.6893 21.1613 12.6739 21.1528C12.4997 21.0556 12.3049 21.0017 12.1056 20.9952C12.0883 20.9947 12.0692 20.9946 11.9991 20.9946C11.9293 20.9946 11.9105 20.9947 11.8932 20.9952C11.6945 21.0016 11.5002 21.0554 11.3261 21.1522C11.3102 21.161 11.2922 21.1715 11.2347 21.2059L10.8809 21.4178C10.8504 21.4361 10.8203 21.4541 10.7905 21.472C10.2918 21.7712 9.89947 22.0065 9.46605 22.1038C9.08451 22.1895 8.68922 22.1927 8.30643 22.1135C7.87022 22.0232 7.4727 21.7938 6.96597 21.5013C6.93751 21.4848 6.9087 21.4682 6.87951 21.4514L6.38581 21.1669C6.35645 21.15 6.32744 21.1333 6.29878 21.1168C5.79038 20.8243 5.39197 20.5951 5.09471 20.262C4.83396 19.9698 4.63824 19.625 4.52136 19.2506C4.38855 18.8252 4.39667 18.366 4.407 17.7819C4.40761 17.7476 4.40822 17.7129 4.40882 17.6778L4.4157 17.2703C4.41693 17.1972 4.41714 17.1768 4.41682 17.1583C4.41348 16.9621 4.36396 16.7694 4.27225 16.5958C4.26466 16.5814 4.25676 16.5676 4.22542 16.5129L4.21707 16.4983C4.17992 16.4334 4.16987 16.416 4.16013 16.4003C4.05535 16.231 3.91222 16.0895 3.74239 15.9872C3.72668 15.9778 3.70953 15.9682 3.64365 15.9315L3.28531 15.7322C3.25461 15.7151 3.22429 15.6982 3.19434 15.6816C2.686 15.3994 2.28613 15.1773 1.98526 14.851C1.72063 14.564 1.52008 14.224 1.39704 13.8534C1.25735 13.4326 1.2567 12.9757 1.25587 12.3956C1.25582 12.3606 1.25577 12.3252 1.25569 12.2894L1.25441 11.7273C1.25433 11.6918 1.25423 11.6568 1.25412 11.6222C1.25231 11.0371 1.25089 10.5769 1.3904 10.1528C1.51324 9.77941 1.71482 9.43701 1.98075 9.14847C2.28351 8.81997 2.68633 8.59716 3.19913 8.31351C3.22898 8.297 3.2592 8.28028 3.2898 8.26333L3.65137 8.06296C3.7098 8.03058 3.72701 8.02084 3.74217 8.0118C3.91383 7.90945 4.05853 7.76727 4.16405 7.59727C4.17309 7.5827 4.1825 7.56661 4.21679 7.50724C4.25124 7.44761 4.26041 7.43157 4.26846 7.41655C4.36297 7.24029 4.41383 7.04407 4.41678 6.84437C4.417 6.82995 4.41676 6.81619 4.41586 6.76304C4.41574 6.75607 4.41561 6.74841 4.41547 6.73998L4.40833 6.31532C4.40777 6.28202 4.40719 6.24913 4.40662 6.21662C4.39635 5.63133 4.38831 5.17277 4.52067 4.74745C4.63681 4.37423 4.83123 4.03014 5.09071 3.73809C5.38618 3.40551 5.78227 3.17603 6.28743 2.88335C6.31627 2.86664 6.34546 2.84973 6.37501 2.83258L6.86267 2.54955C6.8928 2.53206 6.92255 2.51476 6.95192 2.49768C7.45846 2.20316 7.85645 1.97175 8.29363 1.88044ZM12 8.74997C10.2051 8.74997 8.75002 10.205 8.75002 12C8.75002 13.7949 10.2051 15.25 12 15.25C13.7949 15.25 15.25 13.7949 15.25 12C15.25 10.205 13.7949 8.74997 12 8.74997ZM7.25002 12C7.25002 9.37662 9.37667 7.24997 12 7.24997C14.6234 7.24997 16.75 9.37662 16.75 12C16.75 14.6233 14.6234 16.75 12 16.75C9.37667 16.75 7.25002 14.6233 7.25002 12Z" fill="#1A1712"/>
</svg>
