<svg width="24" height="24" viewBox="0 0 24 24" fill="none" xmlns="http://www.w3.org/2000/svg">
<path fill-rule="evenodd" clip-rule="evenodd" d="M13.1546 3.36032C12.4835 3.01005 11.5741 3.00465 10.8976 3.35402C8.30466 4.69316 5.95279 6.22859 3.89182 7.9316C3.57311 8.19495 3.34693 8.57764 3.35079 9.02808C3.35463 9.47668 3.58541 9.85425 3.90218 10.1133C5.94604 11.7844 8.29985 13.3213 10.8453 14.6498C11.5165 15.0001 12.4258 15.0055 13.1023 14.6561C15.6953 13.317 18.0472 11.7815 20.1081 10.0785C20.4268 9.81517 20.653 9.43248 20.6492 8.98203C20.6453 8.53344 20.4145 8.15586 20.0978 7.89685C18.0539 6.22568 15.7001 4.68886 13.1546 3.36032ZM11.5859 4.68677C11.8256 4.563 12.2193 4.56417 12.4606 4.6901C14.8899 5.95802 17.1283 7.41672 19.0675 8.99229C17.1167 10.5932 14.885 12.0472 12.414 13.3233C12.1744 13.4471 11.7807 13.4459 11.5394 13.32C9.11004 12.0521 6.87163 10.5934 4.9324 9.01783C6.88321 7.4169 9.11496 5.96291 11.5859 4.68677Z" fill="#1A1712"/>
<path d="M21.197 12.6981C21.4164 13.0494 21.3094 13.5121 20.958 13.7315L14.8508 17.5444C14.022 18.0618 12.9938 18.301 11.9999 18.301C11.006 18.3011 9.9777 18.062 9.14884 17.5447L3.10851 13.775C2.75711 13.5557 2.65003 13.093 2.86934 12.7416C3.08864 12.3902 3.55128 12.2831 3.90268 12.5024L9.94301 16.2722C10.4872 16.6118 11.2264 16.8011 11.9998 16.801C12.7732 16.801 13.5124 16.6116 14.0564 16.272L20.1636 12.4591C20.515 12.2397 20.9776 12.3467 21.197 12.6981Z" fill="#1A1712"/>
<path d="M21.197 16.4527C21.4164 16.8041 21.3094 17.2667 20.9581 17.4861L15.6692 20.789C14.6115 21.4495 13.2886 21.7602 11.9998 21.7603C10.7111 21.7604 9.38808 21.4498 8.3303 20.7895L3.10843 17.5296C2.75706 17.3103 2.65004 16.8476 2.86938 16.4963C3.08873 16.1449 3.55139 16.0379 3.90276 16.2572L9.12462 19.517C9.89764 19.9996 10.9316 20.2604 11.9998 20.2603C13.068 20.2602 14.1018 19.9994 14.8746 19.5167L20.1635 16.2139C20.5149 15.9945 20.9776 16.1014 21.197 16.4527Z" fill="#1A1712"/>
</svg>
