<svg width="24" height="24" viewBox="0 0 24 24" fill="none" xmlns="http://www.w3.org/2000/svg">
<path fill-rule="evenodd" clip-rule="evenodd" d="M10.4188 4.23057C11.06 3.12566 12.75 3.5805 12.75 4.85793V16.5386C12.75 17.5594 12.1845 18.4963 11.2812 18.9719L8.0056 20.6966C6.70859 21.3796 5.19696 20.2608 5.47116 18.8208L6.17114 15.1448C6.25634 14.6974 6.09142 14.239 5.74068 13.9485L3.24178 11.8781C2.0775 10.9135 2.6019 9.02598 4.09689 8.80017L7.52654 8.28217C7.9016 8.22552 8.23065 8.00163 8.42103 7.67354L10.4188 4.23057ZM11.25 5.78689L9.71843 8.42637C9.29961 9.14816 8.5757 9.64072 7.75056 9.76535L4.32091 10.2834C4.10734 10.3156 4.03243 10.5853 4.19875 10.7231L6.69765 12.7934C7.46929 13.4327 7.83211 14.4411 7.64466 15.4254L6.94468 19.1014C6.90551 19.3071 7.12146 19.4669 7.30675 19.3694L10.5824 17.6446C10.993 17.4284 11.25 17.0026 11.25 16.5386V5.78689Z" fill="#1A1712"/>
</svg>
