<svg width="24" height="24" viewBox="0 0 24 24" fill="none" xmlns="http://www.w3.org/2000/svg">
<path fill-rule="evenodd" clip-rule="evenodd" d="M15.0215 3.34352C15.5299 3.25644 16.0992 3.22736 16.6349 3.31801C17.5918 3.47989 18.4756 3.92462 19.1743 4.59138C19.631 4.60171 20.0798 4.51173 20.4769 4.38347C20.8131 4.27492 21.097 4.14385 21.2959 4.04021C21.3948 3.98868 21.4713 3.94472 21.5209 3.91496C21.5457 3.90011 21.5638 3.88886 21.5745 3.88207L21.584 3.87601C21.8808 3.67828 22.276 3.71677 22.5289 3.96827C22.7818 4.21984 22.8226 4.61476 22.6263 4.91266C22.4186 5.22795 22.1303 5.79002 21.8072 6.41978C21.7564 6.5188 21.7047 6.61949 21.6524 6.72116C21.4671 7.08113 21.2771 7.44494 21.1 7.75707C20.9888 7.95306 20.8699 8.15204 20.75 8.32398V8.59775C20.7576 9.60338 20.6423 10.6038 20.4082 11.577C20.2609 12.1893 20.0667 12.7909 19.8264 13.3763C19.204 14.893 18.2856 16.2704 17.1249 17.4282C15.9641 18.5859 14.5844 19.5008 13.0661 20.1193C11.5492 20.7373 9.92444 21.0471 8.28659 21.0306C5.91228 21.0327 3.58791 20.3486 1.59319 19.0607C1.29939 18.871 1.17569 18.5035 1.29503 18.1747C1.41437 17.846 1.74506 17.6434 2.09213 17.6863C2.39249 17.7235 2.6949 17.7416 2.99756 17.7407C4.08501 17.7376 5.15174 17.4973 6.12561 17.0447C5.81606 16.9038 5.52052 16.73 5.24437 16.5253C4.43265 15.9234 3.82874 15.0834 3.51667 14.1223C3.43558 13.8725 3.49102 13.5985 3.66283 13.3999C3.66591 13.3964 3.66902 13.3929 3.67215 13.3894C3.48862 13.2257 3.3169 13.0475 3.1588 12.8559C2.44748 11.9937 2.05581 10.9123 2.05002 9.79453L2.05 9.79065L2.05001 9.74065C2.05001 9.47478 2.19077 9.22879 2.41997 9.09407C2.47807 9.05992 2.53965 9.03421 2.603 9.01697C2.26467 8.34189 2.08873 7.59644 2.09001 6.84018C2.08961 5.98342 2.31341 5.14145 2.73917 4.39795C2.86208 4.18331 3.08291 4.04307 3.32944 4.0231C3.57597 4.00312 3.8165 4.10598 3.97236 4.29802C4.93491 5.48403 6.1362 6.45429 7.49819 7.14576C8.19833 7.50121 8.93288 7.77891 9.68867 7.97534C10.1124 8.08547 10.5428 8.17006 10.9776 8.22849C10.9584 7.50523 11.1013 6.78236 11.401 6.11443C11.8407 5.1346 12.5931 4.32843 13.5404 3.82233C13.9415 3.60801 14.474 3.43729 15.0215 3.34352ZM3.74329 10.891C3.87294 11.2559 4.0658 11.5982 4.31586 11.9013C4.80718 12.4969 5.48913 12.9044 6.24635 13.0551C6.58363 13.1222 6.83207 13.41 6.84909 13.7535C6.86612 14.097 6.64737 14.408 6.31837 14.5082C6.04588 14.5911 5.7667 14.6489 5.48434 14.681C5.67092 14.9215 5.8904 15.1369 6.13781 15.3204C6.699 15.7365 7.37594 15.9673 8.07445 15.9808C8.39137 15.9869 8.67023 16.1916 8.77106 16.4921C8.87189 16.7926 8.7729 17.124 8.5238 17.3201C7.47463 18.1456 6.26143 18.7213 4.97588 19.0151C6.04136 19.3564 7.15881 19.532 8.2891 19.5306L8.2978 19.5306C9.73786 19.5456 11.1665 19.2735 12.5002 18.7302C13.8339 18.1868 15.0459 17.3832 16.0656 16.3661C17.0852 15.3491 17.892 14.1391 18.4387 12.8068C18.6498 12.2926 18.8204 11.7641 18.9498 11.2262C19.1556 10.3704 19.257 9.49078 19.25 8.60651L19.25 8.60065V8.07065C19.25 7.88879 19.3161 7.71314 19.4359 7.57636C19.5052 7.49732 19.6264 7.31477 19.7954 7.01686C19.956 6.73374 20.1338 6.39383 20.3187 6.03465C20.3299 6.01293 20.3411 5.99109 20.3524 5.96915C19.8728 6.0733 19.3293 6.12789 18.7594 6.06631C18.579 6.0468 18.4117 5.96252 18.2887 5.82908C17.7858 5.28374 17.1161 4.92073 16.3847 4.79699C16.0602 4.74209 15.6678 4.75465 15.2747 4.82199C14.8476 4.89515 14.4759 5.02317 14.2472 5.14534C13.593 5.49491 13.0732 6.05175 12.7695 6.72854C12.4658 7.40533 12.3953 8.16377 12.5691 8.88493C12.6245 9.11484 12.5683 9.35742 12.4173 9.53945C12.2663 9.72148 12.0383 9.82164 11.8021 9.80969C10.9587 9.76703 10.1242 9.63838 9.31135 9.42711C8.45146 9.20362 7.61572 8.88767 6.81915 8.48326C5.64637 7.88785 4.57832 7.11075 3.65348 6.18306C3.61129 6.39868 3.58987 6.6187 3.59001 6.84015L3.59001 6.84207C3.58897 7.39279 3.72412 7.93522 3.98343 8.42107C4.24274 8.90692 4.61816 9.32111 5.07627 9.62676C5.35429 9.81226 5.47602 10.1593 5.37477 10.4779C5.27351 10.7964 4.97372 11.0095 4.63962 11.0004C4.33702 10.9921 4.03696 10.9553 3.74329 10.891Z" fill="#1A1712"/>
</svg>
