<svg width="24" height="24" viewBox="0 0 24 24" fill="none" xmlns="http://www.w3.org/2000/svg">
<path d="M10.5 16C10.5 15.1716 11.1716 14.5 12 14.5C12.8285 14.5 13.5 15.1716 13.5 16C13.5 16.8284 12.8285 17.5 12 17.5C11.1716 17.5 10.5 16.8284 10.5 16Z" fill="#1A1712"/>
<path fill-rule="evenodd" clip-rule="evenodd" d="M9.81052 4.00498C10.0429 3.91247 10.2853 3.84752 10.5328 3.81146C12.006 3.59679 13.4327 4.42662 13.9745 5.81336L14.0495 6.00539C14.1425 6.24332 14.2088 6.49082 14.2472 6.74335L14.4639 8.16566L15.9468 7.93981L15.7301 6.5175C15.675 6.15546 15.5799 5.80064 15.4467 5.45953L15.3716 5.26751C14.5759 3.23068 12.4804 2.01183 10.3165 2.32713C9.95298 2.3801 9.59694 2.4755 9.25566 2.61138C7.224 3.42028 6.0187 5.52356 6.34796 7.68539L6.379 7.8892C6.43414 8.25124 6.52921 8.60607 6.66248 8.94717L7.31663 10.6215L6.93515 10.652C5.85242 10.7384 4.96832 11.5523 4.7928 12.6242C4.42673 14.8598 4.42673 17.1402 4.7928 19.3758C4.96832 20.4477 5.85242 21.2616 6.93515 21.348L8.43128 21.4675C10.8067 21.6571 13.1934 21.6571 15.5688 21.4675L17.0649 21.348C18.1476 21.2616 19.0317 20.4477 19.2073 19.3758C19.5733 17.1402 19.5733 14.8598 19.2073 12.6242C19.0317 11.5523 18.1476 10.7384 17.0649 10.652L15.5688 10.5325C13.3426 10.3548 11.1066 10.3436 8.87919 10.499L8.05964 8.40132C7.96668 8.16338 7.90036 7.91589 7.8619 7.66335L7.83086 7.45954C7.60669 5.98769 8.4273 4.55571 9.81052 4.00498ZM15.4494 12.0278C13.1535 11.8445 10.8466 11.8445 8.55065 12.0278L7.05452 12.1472C6.65959 12.1787 6.33711 12.4756 6.27309 12.8666C5.9333 14.9417 5.9333 17.0583 6.27309 19.1334C6.33711 19.5244 6.65959 19.8213 7.05452 19.8528L8.55065 19.9722C10.8466 20.1555 13.1535 20.1555 15.4494 19.9722L16.9455 19.8528C17.3405 19.8213 17.6629 19.5244 17.727 19.1334C18.0668 17.0583 18.0668 14.9417 17.727 12.8666C17.6629 12.4756 17.3405 12.1787 16.9455 12.1472L15.4494 12.0278Z" fill="#1A1712"/>
</svg>
