<svg width="24" height="24" viewBox="0 0 24 24" fill="none" xmlns="http://www.w3.org/2000/svg">
<path fill-rule="evenodd" clip-rule="evenodd" d="M10.7379 16.6272C9.96427 16.6272 9.31895 16.036 9.2514 15.2653C9.11015 13.6541 9.07441 12.0356 9.14427 10.4203C9.05994 10.4146 8.97563 10.4088 8.89133 10.4026L7.40178 10.294C6.44973 10.2246 5.91752 9.16306 6.43151 8.35868C7.5277 6.64317 9.53693 4.72311 11.1904 3.53538C11.6742 3.18783 12.3258 3.18783 12.8097 3.53538C14.4631 4.72311 16.4723 6.64316 17.5685 8.35868C18.0825 9.16306 17.5503 10.2246 16.5983 10.294L15.1087 10.4026C15.0244 10.4088 14.9401 10.4146 14.8558 10.4203C14.9256 12.0356 14.8899 13.6541 14.7486 15.2654C14.6811 16.036 14.0358 16.6272 13.2622 16.6272H10.7379ZM10.6815 9.7625C10.5678 11.5497 10.589 13.3431 10.745 15.1272H13.255C13.411 13.3431 13.4323 11.5497 13.3186 9.7625C13.3058 9.56213 13.3739 9.36502 13.5077 9.21528C13.6414 9.06553 13.8296 8.97567 14.0301 8.96579C14.3535 8.94986 14.6767 8.93012 14.9997 8.90658L16.0815 8.82772C15.1219 7.41442 13.9204 6.18017 12.5313 5.18232L12 4.80068L11.4687 5.18232C10.0796 6.18017 8.87813 7.41443 7.91858 8.82772L9.00038 8.90658C9.32337 8.93012 9.64656 8.94986 9.9699 8.96579C10.1704 8.97567 10.3586 9.06553 10.4924 9.21528C10.6261 9.36502 10.6942 9.56213 10.6815 9.7625Z" fill="#1A1712"/>
<path d="M5.75 17C5.75 16.5858 5.41421 16.25 5 16.25C4.58579 16.25 4.25 16.5858 4.25 17V19C4.25 19.9665 5.0335 20.75 6 20.75H18C18.9665 20.75 19.75 19.9665 19.75 19V17C19.75 16.5858 19.4142 16.25 19 16.25C18.5858 16.25 18.25 16.5858 18.25 17V19C18.25 19.138 18.1381 19.25 18 19.25H6C5.86193 19.25 5.75 19.138 5.75 19V17Z" fill="#1A1712"/>
</svg>
