<svg width="24" height="24" viewBox="0 0 24 24" fill="none" xmlns="http://www.w3.org/2000/svg">
<path fill-rule="evenodd" clip-rule="evenodd" d="M10 3.25003C7.65279 3.25003 5.75 5.15282 5.75 7.50003C5.75 9.84724 7.65279 11.75 10 11.75C12.3472 11.75 14.25 9.84724 14.25 7.50003C14.25 5.15282 12.3472 3.25003 10 3.25003ZM7.25 7.50003C7.25 5.98125 8.48122 4.75003 10 4.75003C11.5188 4.75003 12.75 5.98125 12.75 7.50003C12.75 9.01881 11.5188 10.25 10 10.25C8.48122 10.25 7.25 9.01881 7.25 7.50003Z" fill="#1A1712"/>
<path d="M3.75 17C3.75 15.7574 4.75736 14.75 6 14.75H6.34087C6.36722 14.75 6.39342 14.7542 6.41847 14.7624L7.28398 15.045C7.96351 15.2669 8.66343 15.4033 9.36804 15.4544C9.51632 15.4651 9.64645 15.3609 9.67996 15.2161C9.75553 14.8894 9.85397 14.5714 9.97351 14.264C10.0263 14.1283 9.92712 13.9783 9.78158 13.9739C9.09499 13.9532 8.41064 13.8349 7.74959 13.6191L6.88407 13.3365C6.70869 13.2792 6.52536 13.25 6.34087 13.25H6C3.92893 13.25 2.25 14.929 2.25 17V18.1883C2.25 18.9415 2.79588 19.5838 3.53927 19.7051C5.69742 20.0575 7.87718 20.2321 10.0568 20.229C10.2088 20.2288 10.3044 20.0645 10.2363 19.9285C10.0895 19.6351 9.96263 19.3299 9.8576 19.0148C9.80142 18.8462 9.64688 18.7279 9.46922 18.7254C7.56646 18.6993 5.66516 18.5324 3.78097 18.2247C3.76311 18.2218 3.75 18.2064 3.75 18.1883V17Z" fill="#1A1712"/>
<path d="M17.25 15.3C17.25 14.8858 16.9142 14.55 16.5 14.55C16.0858 14.55 15.75 14.8858 15.75 15.3V17.0727C15.75 17.3127 15.8648 17.5381 16.0589 17.6793L17.0589 18.4065C17.3939 18.6502 17.8629 18.5761 18.1066 18.2411C18.3502 17.9061 18.2761 17.4371 17.9411 17.1934L17.25 16.6908V15.3Z" fill="#1A1712"/>
<path fill-rule="evenodd" clip-rule="evenodd" d="M16.5 22.3C19.5376 22.3 22 19.8376 22 16.8C22 13.7624 19.5376 11.3 16.5 11.3C13.4624 11.3 11 13.7624 11 16.8C11 19.8376 13.4624 22.3 16.5 22.3ZM16.5 20.8C18.7091 20.8 20.5 19.0091 20.5 16.8C20.5 14.5908 18.7091 12.8 16.5 12.8C14.2909 12.8 12.5 14.5908 12.5 16.8C12.5 19.0091 14.2909 20.8 16.5 20.8Z" fill="#1A1712"/>
</svg>
