<svg width="24" height="24" viewBox="0 0 24 24" fill="none" xmlns="http://www.w3.org/2000/svg">
<path fill-rule="evenodd" clip-rule="evenodd" d="M21.0938 12.7559C21.0737 12.7491 21.0521 12.7454 21.0296 12.7454H12.4765C12.4541 12.7454 12.4325 12.7491 12.4123 12.7559C12.3334 12.7826 12.2765 12.8574 12.2765 12.9454V19.3675C12.2765 19.4656 12.3476 19.5491 12.4444 19.5649L20.9975 20.9576C21.1192 20.9774 21.2296 20.8835 21.2296 20.7602V12.9454C21.2296 12.8574 21.1728 12.7826 21.0938 12.7559ZM19.7296 19.2314V14.2454H13.7765V18.2621L19.7296 19.2314ZM12.4123 11.2466C12.4325 11.2534 12.4541 11.2571 12.4765 11.2571H21.0296C21.0521 11.2571 21.0737 11.2534 21.0938 11.2466C21.1728 11.2198 21.2296 11.1451 21.2296 11.0571V3.23826C21.2296 3.11474 21.1188 3.02076 20.9969 3.04095L12.4438 4.45826C12.3473 4.47425 12.2765 4.55773 12.2765 4.65557V11.0571C12.2765 11.1451 12.3334 11.2198 12.4123 11.2466ZM19.7296 4.7714L13.7765 5.75788V9.75709H19.7296V4.7714ZM10.2404 11.2463C10.3227 11.2216 10.3828 11.1452 10.3828 11.0547V4.96794C10.3828 4.84443 10.2719 4.75044 10.1501 4.77063L2.98213 5.95827C2.8856 5.97426 2.81482 6.05774 2.81482 6.15558V11.0547C2.81482 11.1452 2.87485 11.2216 2.95723 11.2463C2.97547 11.2518 2.9948 11.2547 3.01482 11.2547H10.1828C10.2028 11.2547 10.2221 11.2518 10.2404 11.2463ZM8.88278 6.50106L4.31482 7.25791V9.75475H8.88278V6.50106ZM10.2404 12.7538C10.2221 12.7483 10.2028 12.7454 10.1828 12.7454H3.01482C2.9948 12.7454 2.97547 12.7483 2.95723 12.7538C2.87485 12.7785 2.81482 12.8549 2.81482 12.9454V17.891C2.81482 17.989 2.88589 18.0726 2.98266 18.0883L10.1506 19.256C10.2723 19.2758 10.3828 19.1819 10.3828 19.0586V12.9454C10.3828 12.8549 10.3227 12.7785 10.2404 12.7538ZM8.88278 17.5297V14.2454H4.31482V16.7856L8.88278 17.5297Z" fill="#1A1712"/>
</svg>
