<svg width="24" height="24" viewBox="0 0 24 24" fill="none" xmlns="http://www.w3.org/2000/svg">
<path fill-rule="evenodd" clip-rule="evenodd" d="M6.76948 3.08151C10.2176 2.69614 13.7823 2.69614 17.2304 3.08151C19.1288 3.29369 20.66 4.78947 20.8828 6.69452C21.2951 10.2195 21.2951 13.7806 20.8828 17.3056C20.66 19.2106 19.1288 20.7064 17.2304 20.9186C13.7823 21.304 10.2176 21.304 6.76948 20.9186C4.87108 20.7064 3.33989 19.2106 3.11707 17.3056C2.70479 13.7806 2.70479 10.2195 3.11707 6.69452C3.33989 4.78947 4.87108 3.29369 6.76948 3.08151ZM8.37103 15.5V8.08603H9.72403V15.5H8.37103ZM12.2049 15.5H10.8409V11.738C10.8409 11.122 10.8299 10.605 10.7969 10.143H11.9849L12.0509 10.946H12.0839C12.3149 10.528 12.8979 10.022 13.7889 10.022C14.7239 10.022 15.6919 10.627 15.6919 12.321V15.5H14.3389V12.475C14.3389 11.705 14.0529 11.122 13.3159 11.122C12.7769 11.122 12.4029 11.507 12.2599 11.914C12.2159 12.035 12.2049 12.2 12.2049 12.354V15.5Z" fill="#1A1712"/>
</svg>
