<svg width="24" height="24" viewBox="0 0 24 24" fill="none" xmlns="http://www.w3.org/2000/svg">
<path d="M14.3023 13.575C14.3353 13.454 14.3463 13.322 14.3463 13.179V12.376C14.3463 12.266 14.3353 12.134 14.3133 12.024C14.1923 11.496 13.7633 11.067 13.1473 11.067C12.2783 11.067 11.7943 11.837 11.7943 12.838C11.7943 13.817 12.2783 14.532 13.1363 14.532C13.6863 14.532 14.1703 14.158 14.3023 13.575Z" fill="#1A1712"/>
<path fill-rule="evenodd" clip-rule="evenodd" d="M6.76948 3.08151C10.2176 2.69614 13.7823 2.69614 17.2304 3.08151C19.1288 3.29369 20.66 4.78947 20.8828 6.69452C21.2951 10.2195 21.2951 13.7806 20.8828 17.3056C20.66 19.2106 19.1288 20.7064 17.2304 20.9186C13.7823 21.304 10.2176 21.304 6.76948 20.9186C4.87108 20.7064 3.33989 19.2106 3.11707 17.3056C2.70479 13.7806 2.70479 10.2195 3.11707 6.69452C3.33989 4.78947 4.87108 3.29369 6.76948 3.08151ZM14.3463 10.726V7.69003H15.6993V13.993C15.6993 14.543 15.7213 15.137 15.7433 15.5H14.5333L14.4783 14.653H14.4563C14.1373 15.247 13.4883 15.621 12.7073 15.621C11.4313 15.621 10.4193 14.532 10.4193 12.882C10.4083 11.089 11.5303 10.022 12.8173 10.022C13.5543 10.022 14.0823 10.33 14.3243 10.726H14.3463ZM8.35492 15.5V8.08603H9.70792V15.5H8.35492Z" fill="#1A1712"/>
</svg>
