<svg width="24" height="24" viewBox="0 0 24 24" fill="none" xmlns="http://www.w3.org/2000/svg">
<path fill-rule="evenodd" clip-rule="evenodd" d="M6.76948 3.08151C10.2176 2.69614 13.7823 2.69614 17.2304 3.08151C19.1288 3.29369 20.66 4.78947 20.8828 6.69452C21.2951 10.2195 21.2951 13.7806 20.8828 17.3056C20.66 19.2106 19.1288 20.7064 17.2304 20.9186C13.7823 21.304 10.2176 21.304 6.76948 20.9186C4.87108 20.7064 3.33989 19.2106 3.11707 17.3056C2.70479 13.7806 2.70479 10.2195 3.11707 6.69452C3.33989 4.78947 4.87108 3.29369 6.76948 3.08151ZM12.7281 15.5H8.32806V8.08603H9.68106V14.367H12.7281V15.5ZM14.6109 15.5H13.2579V11.87C13.2579 11.144 13.2469 10.627 13.2139 10.143H14.3909L14.4349 11.166H14.4789C14.7429 10.407 15.3699 10.022 15.9419 10.022C16.0739 10.022 16.1509 10.033 16.2609 10.055V11.331C16.1509 11.309 16.0299 11.287 15.8649 11.287C15.2159 11.287 14.7759 11.705 14.6549 12.31C14.6329 12.431 14.6109 12.574 14.6109 12.728V15.5Z" fill="#1A1712"/>
</svg>
