<svg width="24" height="24" viewBox="0 0 24 24" fill="none" xmlns="http://www.w3.org/2000/svg">
<path d="M9.01523 10.55L8.44323 12.376H10.3462L9.76323 10.55C9.64749 10.185 9.54617 9.78396 9.45342 9.41686C9.43157 9.3304 9.4102 9.24581 9.38923 9.16403H9.36723C9.32954 9.31102 9.29185 9.46834 9.25328 9.62936C9.17927 9.93828 9.102 10.2608 9.01523 10.55Z" fill="#1A1712"/>
<path d="M15.2967 10.946C14.4607 10.946 14.1087 11.705 14.0537 12.255H16.4077C16.4187 11.76 16.1987 10.946 15.2967 10.946Z" fill="#1A1712"/>
<path fill-rule="evenodd" clip-rule="evenodd" d="M6.76948 3.08151C10.2176 2.69614 13.7823 2.69614 17.2304 3.08151C19.1288 3.29369 20.66 4.78947 20.8828 6.69452C21.2951 10.2195 21.2951 13.7806 20.8828 17.3056C20.66 19.2106 19.1288 20.7064 17.2304 20.9186C13.7823 21.304 10.2176 21.304 6.76948 20.9186C4.87108 20.7064 3.33989 19.2106 3.11707 17.3056C2.70479 13.7806 2.70479 10.2195 3.11707 6.69452C3.33989 4.78947 4.87108 3.29369 6.76948 3.08151ZM11.2482 15.5L10.5772 13.399H8.22323L7.58523 15.5H6.18823L8.56423 8.08603H10.2912L12.7002 15.5H11.2482ZM17.6837 12.629C17.6837 12.882 17.6617 13.08 17.6397 13.201H14.0537C14.0867 14.169 14.8457 14.587 15.7037 14.587C16.3307 14.587 16.7817 14.499 17.1887 14.345L17.3867 15.28C16.9247 15.467 16.2867 15.621 15.5167 15.621C13.7787 15.621 12.7557 14.543 12.7557 12.904C12.7557 11.419 13.6577 10.022 15.3737 10.022C17.1227 10.022 17.6837 11.452 17.6837 12.629Z" fill="#1A1712"/>
</svg>
