<svg width="24" height="24" viewBox="0 0 24 24" fill="none" xmlns="http://www.w3.org/2000/svg">
<path d="M10.401 10.55L9.82897 12.376H11.732L11.149 10.55C11.0332 10.185 10.9319 9.78397 10.8392 9.41687C10.8173 9.3304 10.7959 9.24582 10.775 9.16403H10.753C10.7153 9.31102 10.6776 9.46834 10.639 9.62936C10.565 9.93828 10.4877 10.2608 10.401 10.55Z" fill="#1A1712"/>
<path fill-rule="evenodd" clip-rule="evenodd" d="M6.76948 3.08151C10.2176 2.69614 13.7823 2.69614 17.2304 3.08151C19.1288 3.29369 20.66 4.78947 20.8828 6.69452C21.2951 10.2195 21.2951 13.7806 20.8828 17.3056C20.66 19.2106 19.1288 20.7064 17.2304 20.9186C13.7823 21.304 10.2176 21.304 6.76948 20.9186C4.87108 20.7064 3.33989 19.2106 3.11707 17.3056C2.70479 13.7806 2.70479 10.2195 3.11707 6.69452C3.33989 4.78947 4.87108 3.29369 6.76948 3.08151ZM15.9324 10.143V15.5H14.5684V10.143H15.9324ZM14.4914 8.64703C14.4914 8.22903 14.7994 7.91003 15.2504 7.91003C15.7124 7.91003 15.9984 8.22903 16.0094 8.64703C16.0094 9.05403 15.7124 9.37303 15.2394 9.37303C14.7884 9.37303 14.4914 9.05403 14.4914 8.64703ZM12.634 15.5L11.963 13.399H9.60897L8.97097 15.5H7.57397L9.94997 8.08603H11.677L14.086 15.5H12.634Z" fill="#1A1712"/>
</svg>
