<svg width="24" height="24" viewBox="0 0 24 24" fill="none" xmlns="http://www.w3.org/2000/svg">
<path d="M16.0318 13.575C16.0648 13.454 16.0758 13.322 16.0758 13.179V12.376C16.0758 12.266 16.0648 12.134 16.0428 12.024C15.9218 11.496 15.4928 11.067 14.8768 11.067C14.0078 11.067 13.5238 11.837 13.5238 12.838C13.5238 13.817 14.0078 14.532 14.8658 14.532C15.4158 14.532 15.8998 14.158 16.0318 13.575Z" fill="#1A1712"/>
<path fill-rule="evenodd" clip-rule="evenodd" d="M6.76948 3.08151C10.2176 2.69614 13.7823 2.69614 17.2304 3.08151C19.1288 3.29369 20.66 4.78947 20.8828 6.69452C21.2951 10.2195 21.2951 13.7806 20.8828 17.3056C20.66 19.2106 19.1288 20.7064 17.2304 20.9186C13.7823 21.304 10.2176 21.304 6.76948 20.9186C4.87108 20.7064 3.33989 19.2106 3.11707 17.3056C2.70479 13.7806 2.70479 10.2195 3.11707 6.69452C3.33989 4.78947 4.87108 3.29369 6.76948 3.08151ZM16.0758 10.726V7.69003H17.4288V13.993C17.4288 14.543 17.4508 15.137 17.4728 15.5H16.2628L16.2078 14.653H16.1858C15.8668 15.247 15.2178 15.621 14.4368 15.621C13.1608 15.621 12.1488 14.532 12.1488 12.882C12.1378 11.089 13.2598 10.022 14.5468 10.022C15.2838 10.022 15.8118 10.33 16.0538 10.726H16.0758ZM9.90345 11.705L12.1585 15.5H10.5965L9.79345 14.026C9.47445 13.454 9.26545 13.058 9.05645 12.629H9.02345C8.84745 13.058 8.64945 13.454 8.35245 14.026L7.61545 15.5H6.06445L8.26445 11.749L6.15245 8.08603H7.70345L8.50645 9.61503C8.74845 10.077 8.92445 10.44 9.12245 10.858H9.14445C9.34245 10.396 9.49645 10.066 9.72745 9.61503L10.5195 8.08603H12.0705L9.90345 11.705Z" fill="#1A1712"/>
</svg>
