<svg width="24" height="24" viewBox="0 0 24 24" fill="none" xmlns="http://www.w3.org/2000/svg">
<path d="M11.703 5.61564C11.7321 4.71122 11.9812 3.37888 12.8483 2.5036C13.6531 1.69111 14.6328 1.29513 15.243 1.1141C15.4786 1.04422 15.7046 1.22186 15.693 1.46731C15.6521 2.33311 15.4244 3.6245 14.8371 4.31632C14.2834 4.96848 13.3926 5.83329 12.0879 5.9788C11.8744 6.00262 11.6961 5.8304 11.703 5.61564Z" fill="#1A1712"/>
<path d="M13.937 22.1695C14.5635 22.4095 15.197 22.6522 15.7703 22.6522C16.9966 22.6522 20.5678 19.8226 20.6964 16.8838C20.703 16.7329 20.6128 16.5981 20.481 16.5243C19.5726 16.016 18.0893 14.7503 18.0376 12.909C17.9775 10.7632 19.0549 9.05879 19.8703 8.35376C20.0538 8.19509 20.1169 7.91531 19.953 7.73638C19.2111 6.92618 17.7186 5.81172 16.3568 5.83908C15.366 5.85898 14.4734 6.22803 13.7074 6.54472C13.1197 6.78768 12.6066 6.99982 12.181 6.99982C11.7778 6.99982 11.2938 6.78904 10.7383 6.54713C9.99015 6.22134 9.11236 5.83908 8.12768 5.83908C6.30374 5.83908 2.69996 7.35156 2.69995 13.1904C2.69995 16.2857 5.89531 22.7343 8.59166 22.6522C9.1739 22.6522 9.79613 22.4111 10.4136 22.1719C11.0216 21.9363 11.625 21.7025 12.181 21.7025C12.7178 21.7025 13.3241 21.9347 13.937 22.1695Z" fill="#1A1712"/>
</svg>
