<svg width="24" height="24" viewBox="0 0 24 24" fill="none" xmlns="http://www.w3.org/2000/svg">
<path fill-rule="evenodd" clip-rule="evenodd" d="M7.24997 5.4612V6.88179L5.55604 7.01852C4.35836 7.1152 3.38139 8.01697 3.1893 9.20309C3.14756 9.46088 3.10959 9.71911 3.07541 9.97772C3.05845 10.1061 3.12688 10.2303 3.24388 10.2857L3.32093 10.3222C8.74964 12.8926 15.2503 12.8926 20.679 10.3222L20.756 10.2857C20.873 10.2303 20.9415 10.1061 20.9245 9.97773C20.8903 9.71912 20.8524 9.46088 20.8106 9.20309C20.6185 8.01697 19.6416 7.1152 18.4439 7.01852L16.75 6.88179V5.4612C16.75 4.59495 16.1162 3.85906 15.2596 3.73056L14.0397 3.54757C12.6874 3.34474 11.3125 3.34474 9.96029 3.54757L8.74037 3.73056C7.88371 3.85906 7.24997 4.59495 7.24997 5.4612ZM13.8171 5.03098C12.6124 4.85027 11.3875 4.85027 10.1828 5.03098L8.96288 5.21396C8.8405 5.23232 8.74997 5.33745 8.74997 5.4612V6.77621C10.9149 6.65219 13.0851 6.65219 15.25 6.77621V5.4612C15.25 5.33745 15.1594 5.23232 15.0371 5.21396L13.8171 5.03098Z" fill="#1A1712"/>
<path d="M21.1183 12.0709C21.1108 11.9308 20.9641 11.8432 20.8358 11.9C15.2649 14.3667 8.73501 14.3667 3.16409 11.9C3.03579 11.8432 2.88911 11.9308 2.88165 12.0709C2.77987 13.9823 2.88243 15.9019 3.1893 17.7969C3.38139 18.983 4.35836 19.8848 5.55604 19.9815L7.42796 20.1326C10.471 20.3782 13.5289 20.3782 16.572 20.1326L18.4439 19.9815C19.6416 19.8848 20.6185 18.983 20.8106 17.7969C21.1175 15.9019 21.2201 13.9823 21.1183 12.0709Z" fill="#1A1712"/>
</svg>
