<svg width="24" height="24" viewBox="0 0 24 24" fill="none" xmlns="http://www.w3.org/2000/svg">
<path d="M12.5115 2.6341C12.1782 2.53167 11.8219 2.53167 11.4886 2.6341L8.50285 3.55177C6.9685 4.02336 5.51132 4.71669 4.17753 5.6098C3.32969 6.17751 3.73157 7.5 4.75193 7.5H19.2481C20.2685 7.5 20.6703 6.17751 19.8225 5.6098C18.4887 4.71669 17.0315 4.02336 15.4972 3.55177L12.5115 2.6341Z" fill="#1A1712"/>
<path d="M4.25 21C4.25 20.5858 4.58579 20.25 5 20.25H19C19.4142 20.25 19.75 20.5858 19.75 21C19.75 21.4142 19.4142 21.75 19 21.75H5C4.58579 21.75 4.25 21.4142 4.25 21Z" fill="#1A1712"/>
<path d="M6.25 17C6.25 17.4142 6.58579 17.75 7 17.75C7.41421 17.75 7.75 17.4142 7.75 17L7.75 11C7.75 10.5858 7.41421 10.25 7 10.25C6.58579 10.25 6.25 10.5858 6.25 11L6.25 17Z" fill="#1A1712"/>
<path d="M12 17.75C11.5858 17.75 11.25 17.4142 11.25 17L11.25 11C11.25 10.5858 11.5858 10.25 12 10.25C12.4142 10.25 12.75 10.5858 12.75 11V17C12.75 17.4142 12.4142 17.75 12 17.75Z" fill="#1A1712"/>
<path d="M16.25 17C16.25 17.4142 16.5858 17.75 17 17.75C17.4142 17.75 17.75 17.4142 17.75 17V11C17.75 10.5858 17.4142 10.25 17 10.25C16.5858 10.25 16.25 10.5858 16.25 11V17Z" fill="#1A1712"/>
</svg>
