<svg width="24" height="24" viewBox="0 0 24 24" fill="none" xmlns="http://www.w3.org/2000/svg">
<path fill-rule="evenodd" clip-rule="evenodd" d="M22.0001 9.99997V14C22.0001 14.8284 21.3285 15.5 20.5001 15.5H19.6001V15.8103C19.6001 16.9508 18.7226 17.8993 17.5855 17.988L16.317 18.0869C12.7778 18.3629 9.22235 18.3629 5.68306 18.0869L4.33546 17.9818C3.24028 17.8964 2.34407 17.076 2.16244 15.9927C1.71929 13.3493 1.71929 10.6506 2.16244 8.00727C2.34407 6.92389 3.24028 6.1035 4.33546 6.01811L5.68306 5.91303C9.22235 5.63706 12.7778 5.63706 16.317 5.91303L17.5855 6.01194C18.7226 6.1006 19.6001 7.04913 19.6001 8.18964V8.49997H20.5001C21.3285 8.49997 22.0001 9.17154 22.0001 9.99997ZM8.75006 9.25553C8.75006 9.05069 8.66627 8.85475 8.51816 8.71325C8.37005 8.57174 8.1705 8.49697 7.96587 8.50631C7.27522 8.53783 6.58496 8.58093 5.8954 8.63559L5.70666 8.65055C5.26771 8.68535 4.90263 9.00203 4.80616 9.43165C4.42768 11.1172 4.42782 12.8662 4.80628 14.5516C4.90245 14.9799 5.26577 15.2964 5.70357 15.3325L5.87784 15.3469C6.57276 15.4043 7.26845 15.4495 7.96456 15.4825C8.1694 15.4922 8.36929 15.4176 8.51769 15.2761C8.66609 15.1345 8.75006 14.9384 8.75006 14.7333V9.25553Z" fill="#1A1712"/>
</svg>
