<svg width="24" height="24" viewBox="0 0 24 24" fill="none" xmlns="http://www.w3.org/2000/svg">
<path d="M15.25 10.1067C12.2362 9.88368 9.20981 9.887 6.19633 10.1167C5.96422 11.3562 5.96438 12.6283 6.19669 13.8678C9.20969 14.1064 12.2366 14.1098 15.25 13.8781V10.1067Z" fill="#1A1712"/>
<path fill-rule="evenodd" clip-rule="evenodd" d="M22.0001 14V9.99997C22.0001 9.17154 21.3285 8.49997 20.5001 8.49997H19.6001V8.18964C19.6001 7.04913 18.7226 6.1006 17.5855 6.01194L16.317 5.91303C12.7778 5.63706 9.22235 5.63706 5.68306 5.91303L4.33546 6.01811C3.24028 6.1035 2.34407 6.92389 2.16244 8.00727C1.71929 10.6506 1.71929 13.3493 2.16244 15.9927C2.34407 17.076 3.24028 17.8964 4.33546 17.9818L5.68306 18.0869C9.22235 18.3629 12.7778 18.3629 16.317 18.0869L17.5855 17.988C18.7226 17.8993 19.6001 16.9508 19.6001 15.8103V15.5H20.5001C21.3285 15.5 22.0001 14.8284 22.0001 14ZM16.75 9.78985V14.2079C16.75 14.8026 16.2939 15.298 15.7012 15.3469C12.4323 15.6169 9.14672 15.6169 5.87782 15.3469L5.70354 15.3325C5.26575 15.2964 4.90243 14.9799 4.80626 14.5516C4.4278 12.8662 4.42766 11.1172 4.80614 9.43165C4.90261 9.00202 5.26769 8.68534 5.70664 8.65054L5.89538 8.63558C9.15303 8.37734 12.426 8.37734 15.6837 8.63558C16.2858 8.68331 16.75 9.18585 16.75 9.78985Z" fill="#1A1712"/>
</svg>
