<svg width="24" height="24" viewBox="0 0 24 24" fill="none" xmlns="http://www.w3.org/2000/svg">
<path fill-rule="evenodd" clip-rule="evenodd" d="M22.0001 9.99997V14C22.0001 14.8284 21.3285 15.5 20.5001 15.5H19.6001V15.8103C19.6001 16.9508 18.7226 17.8993 17.5855 17.988L16.317 18.0869C12.7778 18.3629 9.22235 18.3629 5.68306 18.0869L4.33546 17.9818C3.24028 17.8964 2.34407 17.076 2.16244 15.9927C1.71929 13.3493 1.71929 10.6506 2.16244 8.00727C2.34407 6.92389 3.24028 6.1035 4.33546 6.01811L5.68306 5.91303C9.22235 5.63706 12.7778 5.63706 16.317 5.91303L17.5855 6.01194C18.7226 6.1006 19.6001 7.04913 19.6001 8.18964V8.49997H20.5001C21.3285 8.49997 22.0001 9.17154 22.0001 9.99997ZM10.7895 9.1965C10.7895 8.996 10.7093 8.80384 10.5666 8.66293C10.424 8.52202 10.2308 8.4441 10.0303 8.44656C8.65084 8.46347 7.27175 8.52648 5.8954 8.63559L5.70666 8.65055C5.26771 8.68534 4.90263 9.00202 4.80616 9.43165C4.42768 11.1172 4.42782 12.8662 4.80628 14.5516C4.90245 14.9799 5.26577 15.2964 5.70356 15.3325L5.87784 15.3469C7.25975 15.461 8.64464 15.5269 10.03 15.5445C10.2305 15.5471 10.4238 15.4692 10.5665 15.3283C10.7092 15.1874 10.7895 14.9952 10.7895 14.7946V9.1965Z" fill="#1A1712"/>
</svg>
