<svg width="24" height="24" viewBox="0 0 24 24" fill="none" xmlns="http://www.w3.org/2000/svg">
<path fill-rule="evenodd" clip-rule="evenodd" d="M6.01996 6.48009C5.72707 6.1872 5.72707 5.71232 6.01996 5.41943C6.31286 5.12654 6.78773 5.12654 7.08062 5.41943L11.75 10.0888L11.75 2.60357C11.75 1.71266 12.8272 1.26649 13.4571 1.89646L17.8033 6.24266C18.1939 6.63318 18.1939 7.26634 17.8033 7.65687L13.5104 11.9498L17.8033 16.2427C18.1939 16.6332 18.1939 17.2663 17.8033 17.6569L13.4571 22.0031C12.8272 22.633 11.75 22.1869 11.75 21.296V13.8107L7.08062 18.4801C6.78773 18.773 6.31286 18.773 6.01996 18.4801C5.72707 18.1872 5.72707 17.7123 6.01996 17.4194L11.4896 11.9498L6.01996 6.48009ZM13.25 3.81067V10.0888L16.3891 6.94976L13.25 3.81067ZM16.3891 16.9498L13.25 13.8107L13.25 20.0888L16.3891 16.9498Z" fill="#1A1712"/>
</svg>
