<svg width="24" height="24" viewBox="0 0 24 24" fill="none" xmlns="http://www.w3.org/2000/svg">
<path d="M16.1309 3.18555C13.4009 2.72788 10.5991 2.72788 7.86918 3.18555C6.87184 3.35275 6.07757 4.11842 5.8776 5.11119C4.96148 9.65929 4.91149 14.3394 5.73026 18.906L6.06362 20.7652C6.1664 21.3385 6.86531 21.5676 7.28757 21.1665L11.3113 17.344C11.6972 16.9773 12.3028 16.9773 12.6888 17.344L16.7125 21.1665C17.1348 21.5676 17.8337 21.3385 17.9365 20.7652L18.2698 18.906C19.0886 14.3394 19.0386 9.65928 18.1225 5.11119C17.9225 4.11842 17.1282 3.35275 16.1309 3.18555Z" fill="#1A1712"/>
</svg>
