<svg width="24" height="24" viewBox="0 0 24 24" fill="none" xmlns="http://www.w3.org/2000/svg">
<path d="M7.75006 4C7.75006 3.58579 7.41427 3.25 7.00006 3.25C6.58585 3.25 6.25006 3.58579 6.25006 4V5.81643C4.75699 6.02751 3.57744 7.20845 3.37776 8.71484L3.29121 9.36779C3.27654 9.47849 3.2625 9.58926 3.24911 9.70008C3.2136 9.99405 3.4452 10.25 3.74131 10.25H20.2588C20.5549 10.25 20.7865 9.99405 20.7509 9.70008C20.7376 9.58926 20.7235 9.47849 20.7089 9.36779L20.6223 8.71484C20.4226 7.20847 19.2431 6.02754 17.7501 5.81644V4C17.7501 3.58579 17.4143 3.25 17.0001 3.25C16.5858 3.25 16.2501 3.58579 16.2501 4V5.66763C13.4223 5.4158 10.5778 5.4158 7.75006 5.66763V4Z" fill="#1A1712"/>
<path d="M20.9446 12.2256C20.9359 11.9591 20.7157 11.75 20.4491 11.75H3.55093C3.28436 11.75 3.06419 11.9591 3.05544 12.2256C2.99604 14.0332 3.10584 15.8446 3.38457 17.6359C3.59558 18.9919 4.69724 20.0335 6.06298 20.1681L7.25599 20.2858C10.411 20.5969 13.589 20.5969 16.7441 20.2858L17.9371 20.1681C19.3028 20.0335 20.4045 18.9919 20.6155 17.6359C20.8942 15.8446 21.004 14.0332 20.9446 12.2256Z" fill="#1A1712"/>
</svg>
