<svg width="24" height="24" viewBox="0 0 24 24" fill="none" xmlns="http://www.w3.org/2000/svg">
<path d="M9.75006 13C9.75006 11.7574 10.7574 10.75 12.0001 10.75C13.2427 10.75 14.2501 11.7574 14.2501 13C14.2501 14.2426 13.2427 15.25 12.0001 15.25C10.7574 15.25 9.75006 14.2426 9.75006 13Z" fill="#1A1712"/>
<path fill-rule="evenodd" clip-rule="evenodd" d="M7.47372 7.64245C7.47372 5.90692 8.88064 4.5 10.6162 4.5H13.3839C15.1194 4.5 16.5264 5.90692 16.5264 7.64245C16.5264 7.65729 16.5377 7.66964 16.5525 7.67084L18.7821 7.85192C19.7809 7.93303 20.6022 8.67157 20.7886 9.65609C21.2643 12.1684 21.2998 14.7443 20.8935 17.2687L20.7962 17.8729C20.6129 19.0118 19.6755 19.8783 18.5257 19.9717L16.5834 20.1294C13.5328 20.3772 10.4672 20.3772 7.41665 20.1294L5.47432 19.9717C4.32454 19.8783 3.38717 19.0118 3.20386 17.8729L3.10661 17.2687C2.70028 14.7443 2.73575 12.1684 3.21143 9.65609C3.39784 8.67157 4.21921 7.93303 5.21794 7.85192L7.44754 7.67084C7.46233 7.66964 7.47372 7.65729 7.47372 7.64245ZM12.0001 9.25C9.92899 9.25 8.25006 10.9289 8.25006 13C8.25006 15.0711 9.92899 16.75 12.0001 16.75C14.0711 16.75 15.7501 15.0711 15.7501 13C15.7501 10.9289 14.0711 9.25 12.0001 9.25Z" fill="#1A1712"/>
</svg>
