<svg width="24" height="24" viewBox="0 0 24 24" fill="none" xmlns="http://www.w3.org/2000/svg">
<path d="M21.0304 4.83032C21.3233 4.53742 21.3233 4.06255 21.0304 3.76966C20.7375 3.47676 20.2626 3.47676 19.9697 3.76966L3.96973 19.7697C3.67684 20.0626 3.67684 20.5374 3.96973 20.8303C4.26262 21.1232 4.7375 21.1232 5.03039 20.8303L7.11071 18.75H18.5233C20.9962 18.75 23.0009 16.7453 23.0009 14.2724C23.0009 11.7995 20.9962 9.79487 18.5233 9.79487C18.4593 9.79487 18.3956 9.79622 18.3322 9.79889C18.2945 9.15021 18.1425 8.5322 17.896 7.96472L21.0304 4.83032Z" fill="#1A1712"/>
<path d="M12.932 4.70831C14.0389 4.70831 15.0681 5.04077 15.9253 5.61127C16.0522 5.69573 16.0649 5.87445 15.9572 5.98224L4.09647 17.8429C4.01672 17.9227 3.89314 17.9396 3.79711 17.8805C2.11837 16.8462 0.999268 14.9911 0.999268 12.8746C0.999268 9.6297 3.62978 6.99919 6.87467 6.99919C7.39433 6.99919 7.89905 7.06684 8.38009 7.19402C9.34183 5.69973 11.0205 4.70831 12.932 4.70831Z" fill="#1A1712"/>
</svg>
