<svg width="24" height="24" viewBox="0 0 24 24" fill="none" xmlns="http://www.w3.org/2000/svg">
<path fill-rule="evenodd" clip-rule="evenodd" d="M8.38009 7.19402C9.34183 5.69973 11.0205 4.70831 12.932 4.70831C15.8125 4.70831 18.1671 6.95976 18.3322 9.79889C18.3956 9.79622 18.4593 9.79487 18.5233 9.79487C20.9962 9.79487 23.0009 11.7995 23.0009 14.2724C23.0009 16.7453 20.9962 18.75 18.5233 18.75H6.87467C3.62978 18.75 0.999268 16.1195 0.999268 12.8746C0.999268 9.6297 3.62978 6.99919 6.87467 6.99919C7.39433 6.99919 7.89905 7.06684 8.38009 7.19402ZM15.0304 11.5303C15.3233 11.2374 15.3233 10.7626 15.0304 10.4697C14.7375 10.1768 14.2626 10.1768 13.9697 10.4697L11.0001 13.4393L9.53039 11.9697C9.2375 11.6768 8.76262 11.6768 8.46973 11.9697C8.17684 12.2626 8.17684 12.7374 8.46973 13.0303L10.4697 15.0303C10.7626 15.3232 11.2375 15.3232 11.5304 15.0303L15.0304 11.5303Z" fill="#1A1712"/>
</svg>
