<svg width="24" height="24" viewBox="0 0 24 24" fill="none" xmlns="http://www.w3.org/2000/svg">
<path fill-rule="evenodd" clip-rule="evenodd" d="M8.38009 7.19402C9.34183 5.69973 11.0205 4.70831 12.932 4.70831C15.8125 4.70831 18.1671 6.95976 18.3322 9.79889C18.3956 9.79622 18.4593 9.79487 18.5233 9.79487C20.9962 9.79487 23.0009 11.7995 23.0009 14.2724C23.0009 16.7453 20.9962 18.75 18.5233 18.75H6.87467C3.62978 18.75 0.999268 16.1195 0.999268 12.8746C0.999268 9.6297 3.62978 6.99919 6.87467 6.99919C7.39433 6.99919 7.89905 7.06684 8.38009 7.19402ZM12.0001 15.75C12.1801 15.75 12.3453 15.6866 12.4746 15.5808L14.9685 13.5857C15.292 13.3269 15.3444 12.8549 15.0857 12.5315C14.8269 12.208 14.355 12.1556 14.0315 12.4143L12.7501 13.4395V10C12.7501 9.58579 12.4143 9.25 12.0001 9.25C11.5858 9.25 11.2501 9.58579 11.2501 10V13.4396L9.96855 12.4143C9.6451 12.1556 9.17313 12.208 8.91438 12.5315C8.65562 12.8549 8.70806 13.3269 9.03151 13.5857L11.5288 15.5835C11.6561 15.6864 11.8177 15.7485 11.9937 15.75L12.0001 15.75Z" fill="#1A1712"/>
</svg>
