<svg width="24" height="24" viewBox="0 0 24 24" fill="none" xmlns="http://www.w3.org/2000/svg">
<path d="M10.5417 19.2669C11.0143 14.4339 11.0143 9.56619 10.5417 4.73311C10.4992 4.29839 10.201 3.93232 9.78898 3.79855C8.14606 3.26523 6.35388 3.26523 4.71096 3.79855C4.2989 3.93232 4.00076 4.29839 3.95825 4.73311C3.4856 9.56619 3.4856 14.4339 3.95824 19.2669C4.00076 19.7017 4.2989 20.0677 4.71096 20.2015C6.35388 20.7348 8.14606 20.7348 9.78897 20.2015C10.201 20.0677 10.4992 19.7017 10.5417 19.2669Z" fill="#1A1712"/>
<path d="M20.0417 19.2669C20.5143 14.4339 20.5143 9.56619 20.0417 4.73311C19.9992 4.29839 19.701 3.93232 19.289 3.79855C17.6461 3.26523 15.8539 3.26523 14.211 3.79855C13.7989 3.93232 13.5008 4.29839 13.4582 4.73311C12.9856 9.56619 12.9856 14.4339 13.4582 19.2669C13.5008 19.7017 13.7989 20.0677 14.211 20.2015C15.8539 20.7348 17.6461 20.7348 19.289 20.2015C19.701 20.0677 19.9992 19.7017 20.0417 19.2669Z" fill="#1A1712"/>
</svg>
