<svg width="24" height="24" viewBox="0 0 24 24" fill="none" xmlns="http://www.w3.org/2000/svg">
<path fill-rule="evenodd" clip-rule="evenodd" d="M11.9999 7.5C11.9999 8.47187 12.308 9.37179 12.8319 10.1074C13.1238 10.5173 13.4826 10.8762 13.8925 11.1681C14.6282 11.6919 15.5281 12 16.4999 12C18.9852 12 20.9999 9.98528 20.9999 7.5C20.9999 6.52813 20.6918 5.62821 20.168 4.8926C19.8761 4.48271 19.5172 4.12383 19.1073 3.83194C18.3717 3.30809 17.4718 3 16.4999 3C14.0147 3 11.9999 5.01472 11.9999 7.5ZM16.4999 10.5C15.9436 10.5 15.4226 10.3486 14.976 10.0846L19.0846 5.97602C19.3485 6.42266 19.4999 6.94364 19.4999 7.5C19.4999 9.15685 18.1568 10.5 16.4999 10.5ZM13.9153 9.02398L18.0239 4.91536C17.5773 4.65145 17.0563 4.5 16.4999 4.5C14.8431 4.5 13.4999 5.84315 13.4999 7.5C13.4999 8.05636 13.6514 8.57734 13.9153 9.02398Z" fill="#1A1712"/>
<path d="M4.82333 15.2099C2.79582 10.2333 6.05697 4.82127 11.1702 4.08469C11.3392 4.06035 11.4521 4.25084 11.3637 4.39688C10.8155 5.3023 10.4999 6.36431 10.4999 7.50001C10.4999 10.8137 13.1862 13.5 16.4999 13.5C17.8714 13.5 19.1354 13.0399 20.146 12.2655C20.2845 12.1594 20.4908 12.2569 20.4787 12.431C20.1639 16.9676 16.3841 20.55 11.7676 20.55H3.94729C3.73512 20.55 3.54605 20.4161 3.47564 20.216C3.40522 20.0158 3.46878 19.793 3.63421 19.6602L5.6057 18.0769C5.77811 17.9384 5.8391 17.7032 5.75567 17.4984L4.82333 15.2099Z" fill="#1A1712"/>
</svg>
