<svg width="24" height="24" viewBox="0 0 24 24" fill="none" xmlns="http://www.w3.org/2000/svg">
<path fill-rule="evenodd" clip-rule="evenodd" d="M4.82333 15.2099C2.64245 9.85685 6.58059 4 12.3609 4H12.6823C16.9999 4 20.4999 7.50008 20.4999 11.8176C20.4999 16.6404 16.5903 20.55 11.7676 20.55H3.94729C3.73512 20.55 3.54605 20.4161 3.47564 20.2159C3.40522 20.0158 3.46878 19.793 3.63421 19.6602L5.6057 18.0769C5.77811 17.9384 5.8391 17.7032 5.75567 17.4984L4.82333 15.2099ZM15.0999 11.45H9.59995C9.18573 11.45 8.84995 11.7858 8.84995 12.2C8.84995 12.6143 9.18573 12.95 9.59995 12.95H15.0999C15.5142 12.95 15.8499 12.6143 15.8499 12.2C15.8499 11.7858 15.5142 11.45 15.0999 11.45Z" fill="#1A1712"/>
</svg>
