<svg width="24" height="24" viewBox="0 0 24 24" fill="none" xmlns="http://www.w3.org/2000/svg">
<path fill-rule="evenodd" clip-rule="evenodd" d="M11.9999 3.74969L19.2736 3.95535C20.5588 3.99169 21.6218 4.96734 21.7679 6.24474C22.0915 9.07235 22.0915 11.9276 21.7679 14.7552C21.6218 16.0326 20.5588 17.0083 19.2736 17.0446L13.2499 17.215V19.25H16.9999C17.4142 19.25 17.7499 19.5858 17.7499 20C17.7499 20.4142 17.4142 20.75 16.9999 20.75H6.99994C6.58573 20.75 6.24994 20.4142 6.24994 20C6.24994 19.5858 6.58573 19.25 6.99994 19.25H10.7499V17.215L4.72629 17.0446C3.44108 17.0083 2.37806 16.0326 2.2319 14.7552C1.90838 11.9276 1.90838 9.07235 2.2319 6.24474C2.37806 4.96734 3.44108 3.99169 4.7263 3.95535L11.9999 3.74969ZM4.99994 13.75C4.58573 13.75 4.24994 14.0858 4.24994 14.5C4.24994 14.9142 4.58573 15.25 4.99994 15.25H18.9999C19.4142 15.25 19.7499 14.9142 19.7499 14.5C19.7499 14.0858 19.4142 13.75 18.9999 13.75H4.99994Z" fill="#1A1712"/>
</svg>
