<svg width="24" height="24" viewBox="0 0 24 24" fill="none" xmlns="http://www.w3.org/2000/svg">
<path d="M6.91798 1.59946C6.31253 1.53179 5.68737 1.53179 5.08192 1.59946C4.57609 1.65599 4.16566 2.05401 4.10563 2.56731C4.03315 3.18697 4.03315 3.81296 4.10563 4.43262C4.16566 4.94593 4.57609 5.34394 5.08193 5.40048C5.68737 5.46814 6.31253 5.46814 6.91798 5.40048C7.42381 5.34394 7.83424 4.94593 7.89428 4.43262C7.96675 3.81296 7.96675 3.18697 7.89428 2.56731C7.83424 2.05401 7.42381 1.65599 6.91798 1.59946Z" fill="#1A1712"/>
<path d="M12.918 1.59946C12.3125 1.53179 11.6874 1.53179 11.0819 1.59946C10.5761 1.65599 10.1657 2.05401 10.1056 2.56731C10.0332 3.18697 10.0332 3.81296 10.1056 4.43262C10.1657 4.94593 10.5761 5.34394 11.0819 5.40048C11.6874 5.46814 12.3125 5.46814 12.918 5.40048C13.4238 5.34394 13.8342 4.94593 13.8943 4.43262C13.9668 3.81296 13.9668 3.18697 13.8943 2.56731C13.8342 2.05401 13.4238 1.65599 12.918 1.59946Z" fill="#1A1712"/>
<path d="M18.918 1.59946C18.3125 1.53179 17.6874 1.53179 17.0819 1.59946C16.5761 1.65599 16.1657 2.05401 16.1056 2.56731C16.0332 3.18697 16.0332 3.81296 16.1056 4.43262C16.1657 4.94593 16.5761 5.34394 17.0819 5.40048C17.6874 5.46814 18.3125 5.46814 18.918 5.40048C19.4238 5.34394 19.8342 4.94593 19.8943 4.43262C19.9668 3.81296 19.9668 3.18697 19.8943 2.56731C19.8342 2.05401 19.4238 1.65599 18.918 1.59946Z" fill="#1A1712"/>
<path d="M6.91798 7.09946C6.31253 7.03179 5.68737 7.03179 5.08192 7.09946C4.57609 7.15599 4.16566 7.55401 4.10563 8.06731C4.03315 8.68697 4.03315 9.31296 4.10563 9.93262C4.16566 10.4459 4.57609 10.8439 5.08193 10.9005C5.68737 10.9681 6.31253 10.9681 6.91798 10.9005C7.42381 10.8439 7.83424 10.4459 7.89428 9.93262C7.96675 9.31296 7.96675 8.68697 7.89428 8.06731C7.83424 7.55401 7.42381 7.15599 6.91798 7.09946Z" fill="#1A1712"/>
<path d="M12.918 7.09946C12.3125 7.03179 11.6874 7.03179 11.0819 7.09946C10.5761 7.15599 10.1657 7.55401 10.1056 8.06731C10.0332 8.68697 10.0332 9.31296 10.1056 9.93262C10.1657 10.4459 10.5761 10.8439 11.0819 10.9005C11.6874 10.9681 12.3125 10.9681 12.918 10.9005C13.4238 10.8439 13.8342 10.4459 13.8943 9.93262C13.9668 9.31296 13.9668 8.68697 13.8943 8.06731C13.8342 7.55401 13.4238 7.15599 12.918 7.09946Z" fill="#1A1712"/>
<path d="M18.918 7.09946C18.3125 7.03179 17.6874 7.03179 17.0819 7.09946C16.5761 7.15599 16.1657 7.55401 16.1056 8.06731C16.0332 8.68697 16.0332 9.31296 16.1056 9.93262C16.1657 10.4459 16.5761 10.8439 17.0819 10.9005C17.6874 10.9681 18.3125 10.9681 18.918 10.9005C19.4238 10.8439 19.8342 10.4459 19.8943 9.93262C19.9668 9.31296 19.9668 8.68697 19.8943 8.06731C19.8342 7.55401 19.4238 7.15599 18.918 7.09946Z" fill="#1A1712"/>
<path d="M6.91798 12.5995C6.31253 12.5318 5.68737 12.5318 5.08192 12.5995C4.57609 12.656 4.16566 13.054 4.10563 13.5673C4.03315 14.187 4.03315 14.813 4.10563 15.4326C4.16566 15.9459 4.57609 16.3439 5.08193 16.4005C5.68737 16.4681 6.31253 16.4681 6.91798 16.4005C7.42381 16.3439 7.83424 15.9459 7.89428 15.4326C7.96675 14.813 7.96675 14.187 7.89428 13.5673C7.83424 13.054 7.42381 12.656 6.91798 12.5995Z" fill="#1A1712"/>
<path d="M12.918 12.5995C12.3125 12.5318 11.6874 12.5318 11.0819 12.5995C10.5761 12.656 10.1657 13.054 10.1056 13.5673C10.0332 14.187 10.0332 14.813 10.1056 15.4326C10.1657 15.9459 10.5761 16.3439 11.0819 16.4005C11.6874 16.4681 12.3125 16.4681 12.918 16.4005C13.4238 16.3439 13.8342 15.9459 13.8943 15.4326C13.9668 14.813 13.9668 14.187 13.8943 13.5673C13.8342 13.054 13.4238 12.656 12.918 12.5995Z" fill="#1A1712"/>
<path d="M12.918 18.0995C12.3125 18.0318 11.6874 18.0318 11.0819 18.0995C10.5761 18.156 10.1657 18.554 10.1056 19.0673C10.0332 19.687 10.0332 20.313 10.1056 20.9326C10.1657 21.4459 10.5761 21.8439 11.0819 21.9005C11.6874 21.9681 12.3125 21.9681 12.918 21.9005C13.4238 21.8439 13.8342 21.4459 13.8943 20.9326C13.9668 20.313 13.9668 19.687 13.8943 19.0673C13.8342 18.554 13.4238 18.156 12.918 18.0995Z" fill="#1A1712"/>
<path d="M18.918 12.5995C18.3125 12.5318 17.6874 12.5318 17.0819 12.5995C16.5761 12.656 16.1657 13.054 16.1056 13.5673C16.0332 14.187 16.0332 14.813 16.1056 15.4326C16.1657 15.9459 16.5761 16.3439 17.0819 16.4005C17.6874 16.4681 18.3125 16.4681 18.918 16.4005C19.4238 16.3439 19.8342 15.9459 19.8943 15.4326C19.9668 14.813 19.9668 14.187 19.8943 13.5673C19.8342 13.054 19.4238 12.656 18.918 12.5995Z" fill="#1A1712"/>
</svg>
