<svg width="24" height="24" viewBox="0 0 24 24" fill="none" xmlns="http://www.w3.org/2000/svg">
<path d="M9.37539 20.3998C9.52373 20.5323 9.74861 20.388 9.69293 20.197L7.17345 11.5588C7.12654 11.398 6.98433 11.2835 6.81722 11.2713C6.40948 11.2413 6.00193 11.2078 5.59462 11.1708L2.2242 10.8644C2.06684 10.8501 1.95609 11.0151 2.03058 11.1544C3.85365 14.5643 6.47885 17.8133 9.37539 20.3998Z" fill="#1A1712"/>
<path d="M11.8472 22.2259C11.8675 22.2956 11.9274 22.348 12 22.348C12.0726 22.348 12.1326 22.2956 12.1529 22.2259L15.2368 11.6525C15.2752 11.5208 15.1725 11.3903 15.0354 11.3962C13.0128 11.4831 10.9873 11.4831 8.96468 11.3962C8.82754 11.3903 8.72485 11.5208 8.76328 11.6525L11.8472 22.2259Z" fill="#1A1712"/>
<path d="M14.3071 20.197C14.2515 20.3879 14.4763 20.5323 14.6247 20.3998C17.5212 17.8133 20.1464 14.5643 21.9695 11.1544C22.044 11.0151 21.9332 10.8501 21.7759 10.8644L18.4054 11.1708C17.9981 11.2078 17.5906 11.2413 17.1828 11.2713C17.0157 11.2835 16.8735 11.398 16.8266 11.5588L14.3071 20.197Z" fill="#1A1712"/>
<path d="M21.801 9.35591C21.9534 9.34206 22.0344 9.16916 21.9475 9.04319L18.7098 4.3484C18.4298 3.94241 17.9681 3.7 17.4749 3.7H14.9853C14.8432 3.7 14.7464 3.84408 14.8001 3.97564L17.0569 9.49902C17.1225 9.65956 17.2841 9.75967 17.457 9.746C17.728 9.72458 17.9988 9.70156 18.2696 9.67695L21.801 9.35591Z" fill="#1A1712"/>
<path d="M13.1651 3.94615C13.103 3.79709 12.9573 3.7 12.7959 3.7H11.2042C11.0427 3.7 10.8971 3.79709 10.835 3.94615L8.47742 9.60427C8.42425 9.73189 8.5135 9.87366 8.65158 9.88034C10.8826 9.98834 13.1175 9.98834 15.3485 9.88034C15.4866 9.87365 15.5758 9.73188 15.5226 9.60427L13.1651 3.94615Z" fill="#1A1712"/>
<path d="M9.19992 3.97564C9.25367 3.84408 9.1569 3.7 9.01477 3.7H6.52513C6.03196 3.7 5.57029 3.94241 5.29031 4.3484L2.05252 9.04319C1.96564 9.16916 2.04666 9.34206 2.19906 9.35591L5.73042 9.67695C6.00121 9.70156 6.2721 9.72458 6.54309 9.746C6.71598 9.75967 6.87758 9.65957 6.94317 9.49902L9.19992 3.97564Z" fill="#1A1712"/>
</svg>
