<svg width="24" height="24" viewBox="0 0 24 24" fill="none" xmlns="http://www.w3.org/2000/svg">
<path d="M6.66073 3.2529C6.5624 3.19027 6.43669 3.19028 6.33836 3.25292L1.39711 6.40098C1.21203 6.51889 1.21203 6.78909 1.3971 6.907L6.33836 10.0551C6.43669 10.1178 6.56241 10.1178 6.66074 10.0551L11.6028 6.90693C11.7879 6.78902 11.7879 6.51879 11.6028 6.40088L6.66073 3.2529Z" fill="#1A1712"/>
<path d="M17.6612 3.25293C17.5628 3.19028 17.4371 3.19028 17.3388 3.25293L12.3971 6.40132C12.212 6.51923 12.212 6.78944 12.3971 6.90735L17.3388 10.0557C17.4371 10.1184 17.5628 10.1184 17.6612 10.0557L22.6028 6.90735C22.7879 6.78944 22.7879 6.51923 22.6028 6.40132L17.6612 3.25293Z" fill="#1A1712"/>
<path d="M1.3971 13.9152C1.21203 13.7973 1.21203 13.5271 1.39711 13.4092L6.33836 10.2611C6.43669 10.1985 6.5624 10.1985 6.66073 10.2611L11.6028 13.4091C11.7879 13.527 11.7879 13.7972 11.6028 13.9151L6.66074 17.0634C6.56241 17.126 6.43669 17.126 6.33836 17.0633L1.3971 13.9152Z" fill="#1A1712"/>
<path d="M17.6612 10.2611C17.5628 10.1985 17.4371 10.1985 17.3388 10.2611L12.3971 13.4095C12.212 13.5274 12.212 13.7976 12.3971 13.9156L17.3388 17.0639C17.4371 17.1265 17.5628 17.1265 17.6612 17.0639L22.6028 13.9156C22.7879 13.7976 22.7879 13.5274 22.6028 13.4095L17.6612 10.2611Z" fill="#1A1712"/>
<path d="M6.89718 18.5945C6.71209 18.4766 6.71209 18.2064 6.89719 18.0885L11.8392 14.9404C11.9375 14.8778 12.0633 14.8778 12.1616 14.9404L17.1028 18.0884C17.2879 18.2063 17.2879 18.4765 17.1028 18.5944L12.1616 21.7426C12.0633 21.8053 11.9375 21.8053 11.8392 21.7427L6.89718 18.5945Z" fill="#1A1712"/>
</svg>
