<svg width="24" height="24" viewBox="0 0 24 24" fill="none" xmlns="http://www.w3.org/2000/svg">
<path fill-rule="evenodd" clip-rule="evenodd" d="M13.6642 6.34314C13.6642 6.75735 14 7.09314 14.4142 7.09314L16.9069 7.09314V9.58578C16.9069 9.99999 17.2427 10.3358 17.6569 10.3358C18.0711 10.3358 18.4069 9.99999 18.4069 9.58578V6.34314C18.4069 5.92893 18.0711 5.59314 17.6569 5.59314L14.4142 5.59314C14 5.59314 13.6642 5.92893 13.6642 6.34314Z" fill="#1A1712"/>
<path fill-rule="evenodd" clip-rule="evenodd" d="M17.6569 13.6642C17.2426 13.6642 16.9069 14 16.9069 14.4142L16.9069 16.9069L14.4142 16.9069C14 16.9069 13.6642 17.2426 13.6642 17.6569C13.6642 18.0711 14 18.4069 14.4142 18.4069L17.6569 18.4069C18.0711 18.4069 18.4069 18.0711 18.4069 17.6569L18.4069 14.4142C18.4069 14 18.0711 13.6642 17.6569 13.6642Z" fill="#1A1712"/>
<path fill-rule="evenodd" clip-rule="evenodd" d="M6.34317 13.6642C6.75738 13.6642 7.09317 14 7.09317 14.4142L7.09317 16.9069L9.58581 16.9069C10 16.9069 10.3358 17.2426 10.3358 17.6569C10.3358 18.0711 10 18.4069 9.58581 18.4069L6.34317 18.4069C5.92895 18.4069 5.59317 18.0711 5.59317 17.6569L5.59317 14.4142C5.59317 14 5.92895 13.6642 6.34317 13.6642Z" fill="#1A1712"/>
<path fill-rule="evenodd" clip-rule="evenodd" d="M10.3358 6.34314C10.3358 6.75735 9.99999 7.09314 9.58578 7.09314L7.09314 7.09314L7.09314 9.58578C7.09314 9.99999 6.75735 10.3358 6.34314 10.3358C5.92893 10.3358 5.59314 9.99999 5.59314 9.58578L5.59314 6.34314C5.59314 5.92893 5.92893 5.59314 6.34314 5.59314L9.58578 5.59314C9.99999 5.59314 10.3358 5.92893 10.3358 6.34314Z" fill="#1A1712"/>
</svg>
