<svg width="24" height="24" viewBox="0 0 24 24" fill="none" xmlns="http://www.w3.org/2000/svg">
<path fill-rule="evenodd" clip-rule="evenodd" d="M14.4947 3.25L14.4902 3.24998H9.50977L9.50525 3.25H8.49997C8.08576 3.25 7.74997 3.58578 7.74997 4C7.74997 4.41421 8.08576 4.75 8.49997 4.75H8.75977V9.837C8.75977 11.2914 8.32236 12.7121 7.50437 13.9147L4.41058 18.4629C3.62493 19.6179 4.34916 21.194 5.73727 21.3502L5.82363 21.3598L5.84059 21.3618C9.93394 21.8223 14.066 21.8223 18.1594 21.3618L18.1765 21.3598L18.2627 21.3502C19.6508 21.194 20.375 19.6179 19.5894 18.4629L16.4956 13.9147C15.6776 12.7121 15.2402 11.2914 15.2402 9.83699V4.75H15.5C15.9142 4.75 16.25 4.41421 16.25 4C16.25 3.58578 15.9142 3.25 15.5 3.25H14.4947ZM9.82855 12.55H14.1714C13.8873 11.6788 13.7402 10.7636 13.7402 9.83699V4.75H10.2598V9.837C10.2598 10.7636 10.1127 11.6788 9.82855 12.55ZM9.99997 17C9.44768 17 8.99997 17.4477 8.99997 18C8.99997 18.5523 9.44768 19 9.99997 19C10.5523 19 11 18.5523 11 18C11 17.4477 10.5523 17 9.99997 17ZM12 16C12 15.4477 12.4477 15 13 15C13.5523 15 14 15.4477 14 16C14 16.5523 13.5523 17 13 17C12.4477 17 12 16.5523 12 16Z" fill="#1A1712"/>
</svg>
