<svg width="24" height="24" viewBox="0 0 24 24" fill="none" xmlns="http://www.w3.org/2000/svg">
<path fill-rule="evenodd" clip-rule="evenodd" d="M14.4947 3.25L14.4901 3.24998H9.50975L9.50523 3.25H8.49997C8.08576 3.25 7.74997 3.58578 7.74997 4C7.74997 4.41421 8.08576 4.75 8.49997 4.75H8.75975V9.8111C4.30805 11.9155 3.66493 18.0519 7.66616 21.0195L7.96116 21.2383C10.3598 23.0173 13.6401 23.0173 16.0388 21.2383L16.3337 21.0195C20.335 18.0519 19.6919 11.9155 15.2401 9.8111V4.75H15.5C15.9142 4.75 16.25 4.41421 16.25 4C16.25 3.58578 15.9142 3.25 15.5 3.25H14.4947ZM7.89682 12.25H16.1031C15.6508 11.7748 15.0909 11.3757 14.4275 11.0897C14.0104 10.9099 13.7401 10.4991 13.7401 10.0448V4.75H10.2598V10.0448C10.2598 10.4991 9.98954 10.9099 9.57237 11.0897C8.909 11.3757 8.34906 11.7748 7.89682 12.25ZM9.99997 17C9.44768 17 8.99997 17.4477 8.99997 18C8.99997 18.5523 9.44768 19 9.99997 19C10.5523 19 11 18.5523 11 18C11 17.4477 10.5523 17 9.99997 17ZM12 16C12 15.4477 12.4477 15 13 15C13.5523 15 14 15.4477 14 16C14 16.5523 13.5523 17 13 17C12.4477 17 12 16.5523 12 16Z" fill="#1A1712"/>
</svg>
