<svg width="24" height="24" viewBox="0 0 24 24" fill="none" xmlns="http://www.w3.org/2000/svg">
<path fill-rule="evenodd" clip-rule="evenodd" d="M20.6674 9.8256C21.0553 12.2559 21.0275 14.7345 20.5852 17.1555C20.4238 18.0387 19.6851 18.7008 18.7895 18.7649L17.1516 18.8821C13.7215 19.1275 10.2783 19.1275 6.8482 18.8821L5.33419 18.7738C4.36568 18.7045 3.56684 17.9885 3.39232 17.0333C2.96466 14.6927 2.89145 12.3011 3.17513 9.93877L3.44762 7.66965C3.57915 6.57432 4.50838 5.75 5.61158 5.75H7.90314C8.89547 5.75 9.69991 6.55444 9.69991 7.54677C9.69991 7.57955 9.72648 7.60612 9.75926 7.60612L18.4721 7.60612C19.5327 7.60612 20.4362 8.37679 20.6034 9.42416L20.6674 9.8256ZM9.70185 11.2019C9.99474 10.909 10.4696 10.909 10.7625 11.2019L12 12.4393L13.2374 11.2019C13.5303 10.909 14.0051 10.909 14.298 11.2019C14.5909 11.4948 14.5909 11.9697 14.298 12.2626L13.0606 13.5L14.298 14.7374C14.5909 15.0303 14.5909 15.5052 14.298 15.7981C14.0052 16.091 13.5303 16.091 13.2374 15.7981L12 14.5607L10.7625 15.7981C10.4696 16.091 9.99474 16.091 9.70185 15.7981C9.40895 15.5052 9.40895 15.0303 9.70185 14.7374L10.9393 13.5L9.70185 12.2626C9.40896 11.9697 9.40896 11.4948 9.70185 11.2019Z" fill="#1A1712"/>
</svg>
