<svg width="24" height="24" viewBox="0 0 24 24" fill="none" xmlns="http://www.w3.org/2000/svg">
<path fill-rule="evenodd" clip-rule="evenodd" d="M18.4999 11.25C17.2275 11.25 16.1284 12.14 15.8639 13.3847L15.8418 13.4891C15.7738 13.8088 15.7618 14.1379 15.8064 14.4617L15.9594 15.5744C15.9022 15.5813 15.8451 15.5885 15.788 15.5959C14.9082 15.7102 14.2499 16.4595 14.2499 17.3466V19.6534C14.2499 20.5405 14.9082 21.2899 15.788 21.4041C17.5884 21.6379 19.4115 21.6379 21.2119 21.4041C22.0916 21.2899 22.7499 20.5405 22.7499 19.6534V17.3466C22.7499 16.4595 22.0916 15.7102 21.2119 15.5959C21.1548 15.5885 21.0977 15.5813 21.0405 15.5744L21.1935 14.4617C21.238 14.1379 21.2261 13.8088 21.1581 13.4891L21.1359 13.3847C20.8714 12.14 19.7724 11.25 18.4999 11.25ZM19.544 15.4464L19.7075 14.2574C19.7284 14.1054 19.7228 13.951 19.6909 13.8009L19.6687 13.6965C19.5514 13.1446 19.0641 12.75 18.4999 12.75C17.9357 12.75 17.4484 13.1446 17.3312 13.6965L17.309 13.8009C17.2771 13.951 17.2715 14.1054 17.2924 14.2574L17.4559 15.4464C18.1515 15.4119 18.8484 15.4119 19.544 15.4464Z" fill="#1A1712"/>
<path d="M20.6916 9.98094C20.7172 10.1489 20.5309 10.2703 20.379 10.1941C19.8102 9.90882 19.1705 9.75 18.4999 9.75C16.5192 9.75 14.8084 11.1355 14.3967 13.0729L14.3745 13.1773C14.2954 13.5497 14.2658 13.9304 14.2863 14.3096C14.2946 14.4645 14.2216 14.6131 14.0961 14.7044C13.2749 15.3016 12.7499 16.2692 12.7499 17.3466V18.7653C12.7499 18.9298 12.6175 19.0637 12.453 19.0647C10.5837 19.0764 8.714 19.0156 6.8482 18.8821L5.33419 18.7738C4.36568 18.7045 3.56684 17.9885 3.39232 17.0333C2.96466 14.6927 2.89145 12.3011 3.17513 9.93877L3.44762 7.66965C3.57915 6.57432 4.50838 5.75 5.61158 5.75H7.90314C8.89547 5.75 9.69991 6.55444 9.69991 7.54677C9.69991 7.57955 9.72648 7.60612 9.75926 7.60612L18.4721 7.60612C19.5327 7.60612 20.4362 8.37679 20.6034 9.42416L20.6674 9.8256C20.6757 9.87736 20.6838 9.92914 20.6916 9.98094Z" fill="#1A1712"/>
</svg>
