<svg width="24" height="24" viewBox="0 0 24 24" fill="none" xmlns="http://www.w3.org/2000/svg">
<path fill-rule="evenodd" clip-rule="evenodd" d="M20.6674 9.8256C21.0553 12.2559 21.0275 14.7345 20.5852 17.1555C20.4238 18.0387 19.6851 18.7008 18.7895 18.7649L17.1516 18.8821C13.7215 19.1275 10.2783 19.1275 6.8482 18.8821L5.33419 18.7738C4.36568 18.7045 3.56684 17.9885 3.39232 17.0333C2.96466 14.6927 2.89145 12.3011 3.17513 9.93877L3.44762 7.66965C3.57915 6.57432 4.50838 5.75 5.61158 5.75H7.90314C8.89547 5.75 9.69991 6.55444 9.69991 7.54677C9.69991 7.57955 9.72648 7.60612 9.75926 7.60612L18.4721 7.60612C19.5327 7.60612 20.4362 8.37679 20.6034 9.42416L20.6674 9.8256ZM12.7499 11C12.7499 10.5858 12.4142 10.25 11.9999 10.25C11.5857 10.25 11.2499 10.5858 11.2499 11V12.75H9.49994C9.08573 12.75 8.74994 13.0858 8.74994 13.5C8.74994 13.9142 9.08573 14.25 9.49994 14.25H11.2499V16C11.2499 16.4142 11.5857 16.75 11.9999 16.75C12.4142 16.75 12.7499 16.4142 12.7499 16V14.25H14.4999C14.9142 14.25 15.2499 13.9142 15.2499 13.5C15.2499 13.0858 14.9142 12.75 14.4999 12.75H12.7499V11Z" fill="#1A1712"/>
</svg>
