<svg width="24" height="24" viewBox="0 0 24 24" fill="none" xmlns="http://www.w3.org/2000/svg">
<path d="M20.5853 17.1555C21.0277 14.7345 21.0555 12.2559 20.6676 9.8256L20.6035 9.42416C20.4363 8.37679 19.5329 7.60612 18.4722 7.60612L9.75938 7.60612C9.7266 7.60612 9.70003 7.57955 9.70003 7.54677C9.70003 6.55444 8.89559 5.75 7.90327 5.75H5.6117C4.5085 5.75 3.57927 6.57432 3.44774 7.66965L3.17525 9.93877C2.89157 12.3011 2.96478 14.6927 3.39244 17.0333C3.56696 17.9885 4.3658 18.7045 5.33431 18.7738L6.84832 18.8821C10.2784 19.1275 13.7217 19.1275 17.1517 18.8821L18.7896 18.7649C19.6852 18.7008 20.4239 18.0387 20.5853 17.1555Z" fill="#1A1712"/>
</svg>
