<svg width="24" height="24" viewBox="0 0 24 24" fill="none" xmlns="http://www.w3.org/2000/svg">
<path d="M10.4999 16.5C10.4999 17.3061 10.6589 18.0751 10.9472 18.7773C11.003 18.9131 10.9058 19.0662 10.7591 19.0657C9.12103 19.0603 7.48312 18.999 5.8482 18.8821L4.33419 18.7738C3.36568 18.7045 2.56684 17.9885 2.39232 17.0333C1.96466 14.6927 1.89145 12.3011 2.17513 9.93877L2.44762 7.66965C2.57915 6.57432 3.50838 5.75 4.61158 5.75H6.90314C7.89547 5.75 8.69991 6.55444 8.69991 7.54677C8.69991 7.57955 8.72648 7.60612 8.75926 7.60612L17.4721 7.60612C18.5327 7.60612 19.4362 8.37679 19.6034 9.42416L19.6674 9.8256C19.7361 10.256 19.7918 10.6878 19.8344 11.1206C19.8509 11.2877 19.6636 11.3981 19.5186 11.3136C18.6319 10.7963 17.6005 10.5 16.4999 10.5C13.1862 10.5 10.4999 13.1863 10.4999 16.5Z" fill="#1A1712"/>
<path fill-rule="evenodd" clip-rule="evenodd" d="M11.9999 16.5C11.9999 17.4719 12.308 18.3718 12.8319 19.1074C13.1238 19.5173 13.4826 19.8762 13.8925 20.1681C14.6282 20.6919 15.5281 21 16.4999 21C18.9852 21 20.9999 18.9853 20.9999 16.5C20.9999 15.5281 20.6918 14.6282 20.168 13.8926C19.8761 13.4827 19.5172 13.1238 19.1073 12.8319C18.3717 12.3081 17.4718 12 16.4999 12C14.0147 12 11.9999 14.0147 11.9999 16.5ZM16.4999 19.5C15.9436 19.5 15.4226 19.3486 14.976 19.0846L19.0846 14.976C19.3485 15.4227 19.4999 15.9436 19.4999 16.5C19.4999 18.1569 18.1568 19.5 16.4999 19.5ZM13.9153 18.024L18.0239 13.9154C17.5773 13.6514 17.0563 13.5 16.4999 13.5C14.8431 13.5 13.4999 14.8431 13.4999 16.5C13.4999 17.0564 13.6514 17.5773 13.9153 18.024Z" fill="#1A1712"/>
</svg>
