<svg width="24" height="24" viewBox="0 0 24 24" fill="none" xmlns="http://www.w3.org/2000/svg">
<path fill-rule="evenodd" clip-rule="evenodd" d="M21.4879 10.25C21.4635 10.0689 21.4369 9.88801 21.4081 9.70739L21.344 9.30595C21.1187 7.8946 19.9013 6.85612 18.4721 6.85612L10.3552 6.85612C10.0541 5.78516 9.07032 5 7.90314 5H5.61158C4.12875 5 2.87976 6.10798 2.70297 7.58023L2.43048 9.84935C2.13783 12.2864 2.21336 14.7535 2.65453 17.1681C2.89055 18.4599 3.97088 19.4281 5.28067 19.5218L6.79468 19.6302C10.2604 19.8781 13.7394 19.8781 17.2051 19.6302L18.843 19.513C19.6516 19.4551 20.3675 19.0444 20.8287 18.426C21.4424 17.8374 21.9253 17.1184 22.2377 16.315L23.4872 13.1021C24.0208 11.7298 23.0085 10.25 21.5361 10.25H21.4879ZM5.61158 6.5C4.888 6.5 4.27854 7.04066 4.19227 7.75907L3.91978 10.0282C3.64506 12.3159 3.71596 14.6319 4.1301 16.8985C4.24313 17.5171 4.76048 17.9808 5.38771 18.0257L5.47372 18.0318L7.8058 12.0073C8.21578 10.9481 9.23466 10.25 10.3704 10.25H19.9734C19.9586 10.1479 19.9431 10.0458 19.9268 9.94381L19.8627 9.54238C19.7537 8.85897 19.1642 8.35612 18.4721 8.35612L9.75926 8.35612C9.31226 8.35612 8.94991 7.99375 8.94991 7.54677C8.94991 6.96865 8.48126 6.5 7.90314 6.5H5.61158Z" fill="#1A1712"/>
</svg>
