<svg width="24" height="24" viewBox="0 0 24 24" fill="none" xmlns="http://www.w3.org/2000/svg">
<path d="M18.955 3.10571C19.2479 2.81282 19.2479 2.33794 18.955 2.04505C18.6621 1.75216 18.1872 1.75216 17.8944 2.04505L17.1872 2.75216C16.6918 3.24759 16.7171 4.01746 17.1494 4.49977C20.0519 7.73853 19.9466 12.7207 16.8337 15.8336C15.2237 17.4437 13.1136 18.2491 11.0033 18.25L11.0001 18.25L10.997 18.25C9.02928 18.2493 7.0618 17.5491 5.49984 16.1493C5.01752 15.7171 4.24765 15.6917 3.75222 16.1872L3.04511 16.8943C2.75222 17.1872 2.75222 17.6621 3.04511 17.955C3.338 18.2478 3.81288 18.2478 4.10577 17.955L4.65622 17.4045C6.276 18.7951 8.24379 19.5674 10.2501 19.7213V21.25H8.50006C8.08585 21.25 7.75006 21.5858 7.75006 22C7.75006 22.4142 8.08585 22.75 8.50006 22.75H13.5001C13.9143 22.75 14.2501 22.4142 14.2501 22C14.2501 21.5858 13.9143 21.25 13.5001 21.25H11.7501V19.7213C13.9897 19.5496 16.1814 18.6073 17.8944 16.8943C21.5235 13.2651 21.6936 7.48724 18.4046 3.65616L18.955 3.10571Z" fill="#1A1712"/>
<path fill-rule="evenodd" clip-rule="evenodd" d="M4.50006 10C4.50006 6.41015 7.41021 3.5 11.0001 3.5C14.5899 3.5 17.5001 6.41015 17.5001 10C17.5001 13.5899 14.5899 16.5 11.0001 16.5C7.41021 16.5 4.50006 13.5899 4.50006 10ZM13.0001 6.25C11.4813 6.25 10.2501 7.48122 10.2501 9C10.2501 10.5188 11.4813 11.75 13.0001 11.75C14.5188 11.75 15.7501 10.5188 15.7501 9C15.7501 7.48122 14.5188 6.25 13.0001 6.25ZM6.25006 12.5C6.25006 11.8096 6.80971 11.25 7.50006 11.25C8.19042 11.25 8.75006 11.8096 8.75006 12.5C8.75006 13.1904 8.19042 13.75 7.50006 13.75C6.80971 13.75 6.25006 13.1904 6.25006 12.5Z" fill="#1A1712"/>
</svg>
