<svg width="24" height="24" viewBox="0 0 24 24" fill="none" xmlns="http://www.w3.org/2000/svg">
<path fill-rule="evenodd" clip-rule="evenodd" d="M6.71169 3.97081C10.2302 3.65621 13.7698 3.65621 17.2883 3.97081L18.8057 4.10648C20.318 4.2417 21.54 5.39708 21.7596 6.89951C22.2541 10.2818 22.2541 13.7181 21.7596 17.1004C21.54 18.6029 20.318 19.7582 18.8057 19.8935L17.2883 20.0291C13.7698 20.3437 10.2302 20.3437 6.71169 20.0291L5.19435 19.8935C3.68198 19.7582 2.46003 18.6029 2.24038 17.1004C1.74588 13.7181 1.74588 10.2818 2.24038 6.89951C2.46003 5.39708 3.68198 4.2417 5.19435 4.10648L6.71169 3.97081ZM5.85557 6.83962C5.62315 6.71446 5.34204 6.72072 5.11541 6.85608C4.88878 6.99145 4.75 7.23599 4.75 7.49997V17C4.75 17.4142 5.08579 17.75 5.5 17.75C5.91421 17.75 6.25 17.4142 6.25 17V8.75563L11.6444 11.6603C11.8664 11.7799 12.1336 11.7799 12.3556 11.6603L17.75 8.75563V17C17.75 17.4142 18.0858 17.75 18.5 17.75C18.9142 17.75 19.25 17.4142 19.25 17V7.49997C19.25 7.23599 19.1112 6.99145 18.8846 6.85608C18.658 6.72072 18.3769 6.71446 18.1444 6.83962L12 10.1482L5.85557 6.83962Z" fill="#1A1712"/>
</svg>
