<svg width="24" height="24" viewBox="0 0 24 24" fill="none" xmlns="http://www.w3.org/2000/svg">
<path d="M7.2428 21.32C7.0116 21.32 6.86729 21.0695 6.98328 20.8695L10.1765 15.3635C10.2302 15.2709 10.329 15.214 10.436 15.214L22.0554 15.213C22.2863 15.213 22.4307 15.4629 22.3153 15.6629L19.1379 21.1699C19.0843 21.2628 18.9853 21.32 18.878 21.32H7.2428Z" fill="#1A1712"/>
<path d="M7.33713 4.97221C7.45246 4.77242 7.74073 4.77213 7.85647 4.97169L11.0422 10.4647C11.096 10.5576 11.0962 10.6722 11.0425 10.7652L5.21048 20.8699C5.09503 21.0699 4.80634 21.07 4.69085 20.87L1.51164 15.364C1.45804 15.2712 1.45804 15.1569 1.51162 15.064L7.33713 4.97221Z" fill="#1A1712"/>
<path d="M21.4703 13.3C21.5857 13.5 21.4414 13.75 21.2105 13.75H14.8551C14.7479 13.75 14.6488 13.6928 14.5952 13.6L8.73614 3.44998C8.62069 3.24998 8.76503 3 8.99596 3H15.3514C15.4585 3 15.5576 3.05719 15.6112 3.15002L21.4703 13.3Z" fill="#1A1712"/>
</svg>
