<svg width="24" height="24" viewBox="0 0 24 24" fill="none" xmlns="http://www.w3.org/2000/svg">
<path fill-rule="evenodd" clip-rule="evenodd" d="M7.26759 4.65855C10.4166 4.38481 13.5835 4.38481 16.7325 4.65855L18.2428 4.78983C19.6878 4.91545 20.8585 6.0151 21.0742 7.44949C21.5279 10.4662 21.5279 13.5338 21.0742 16.5505C21.0345 16.8144 20.9625 17.067 20.8624 17.3042C20.7961 17.4615 20.5913 17.4854 20.4764 17.3591L16.055 12.4955C15.8552 12.2757 15.5446 12.1946 15.2629 12.2885L12.7321 13.1321L9.06061 9.00173C8.92338 8.84734 8.72856 8.75639 8.52209 8.75032C8.31562 8.74426 8.11579 8.82361 7.96973 8.96967L3.0556 13.8838C2.90436 14.035 2.64642 13.9388 2.63436 13.7252C2.51613 11.6313 2.61332 9.52834 2.92592 7.44949C3.14162 6.0151 4.31229 4.91545 5.75736 4.78983L7.26759 4.65855ZM14.0001 9C14.0001 8.17157 14.6716 7.5 15.5001 7.5C16.3285 7.5 17.0001 8.17157 17.0001 9C17.0001 9.82843 16.3285 10.5 15.5001 10.5C14.6716 10.5 14.0001 9.82843 14.0001 9Z" fill="#1A1712"/>
<path d="M2.96139 16.0993C2.90604 16.1547 2.87975 16.2328 2.89077 16.3103C2.90217 16.3904 2.91389 16.4705 2.92592 16.5505C3.14162 17.9849 4.31229 19.0845 5.75736 19.2102L7.26759 19.3414C10.4166 19.6152 13.5835 19.6152 16.7325 19.3414L18.2428 19.2102C18.6674 19.1732 19.0684 19.0522 19.4283 18.8633C19.5647 18.7917 19.5877 18.6114 19.4841 18.4974L15.3833 13.9865C15.3167 13.9133 15.2132 13.8862 15.1192 13.9175L12.7372 14.7115C12.4526 14.8064 12.1388 14.7225 11.9395 14.4983L8.64409 10.7909C8.54853 10.6834 8.38218 10.6785 8.28046 10.7803L2.96139 16.0993Z" fill="#1A1712"/>
</svg>
