<svg width="24" height="24" viewBox="0 0 24 24" fill="none" xmlns="http://www.w3.org/2000/svg">
<path fill-rule="evenodd" clip-rule="evenodd" d="M9.72967 3.99264C10.8216 2.39497 13.1784 2.39497 14.2704 3.99264L14.7023 4.62459C17.4084 8.5838 19.7333 12.7904 21.6461 17.1881L21.7363 17.3955C22.4103 18.9453 21.392 20.705 19.7124 20.8927C14.5868 21.4656 9.41329 21.4656 4.28766 20.8927C2.60811 20.705 1.58975 18.9453 2.2638 17.3955L2.35402 17.1881C4.26675 12.7904 6.59171 8.5838 9.29775 4.62458L9.72967 3.99264ZM13.0001 9C13.0001 9.55229 12.5523 10 12.0001 10C11.4478 10 11.0001 9.55229 11.0001 9C11.0001 8.44772 11.4478 8 12.0001 8C12.5523 8 13.0001 8.44772 13.0001 9ZM12.0001 11.75C12.4143 11.75 12.7501 12.0858 12.7501 12.5V17.5C12.7501 17.9142 12.4143 18.25 12.0001 18.25C11.5858 18.25 11.2501 17.9142 11.2501 17.5V12.5C11.2501 12.0858 11.5858 11.75 12.0001 11.75Z" fill="#1A1712"/>
</svg>
