<svg width="24" height="24" viewBox="0 0 24 24" fill="none" xmlns="http://www.w3.org/2000/svg">
<path d="M11.9999 8.74998C10.205 8.74998 8.74994 10.2051 8.74994 12C8.74994 13.7949 10.205 15.25 11.9999 15.25C13.7949 15.25 15.2499 13.7949 15.2499 12C15.2499 10.2051 13.7949 8.74998 11.9999 8.74998Z" fill="#1A1712"/>
<path fill-rule="evenodd" clip-rule="evenodd" d="M6.76948 3.08145C10.2176 2.69607 13.7823 2.69607 17.2304 3.08145C19.1288 3.29363 20.66 4.78941 20.8828 6.69446C21.2951 10.2195 21.2951 13.7805 20.8828 17.3055C20.66 19.2106 19.1288 20.7063 17.2304 20.9185C13.7823 21.3039 10.2176 21.3039 6.76948 20.9185C4.87108 20.7063 3.33989 19.2106 3.11707 17.3055C2.70479 13.7805 2.70479 10.2195 3.11707 6.69446C3.33989 4.7894 4.87108 3.29363 6.76948 3.08145ZM16.9999 5.99998C16.4477 5.99998 15.9999 6.4477 15.9999 6.99998C15.9999 7.55227 16.4477 7.99998 16.9999 7.99998C17.5522 7.99998 17.9999 7.55227 17.9999 6.99998C17.9999 6.4477 17.5522 5.99998 16.9999 5.99998ZM7.24994 12C7.24994 9.37663 9.37659 7.24998 11.9999 7.24998C14.6233 7.24998 16.7499 9.37663 16.7499 12C16.7499 14.6233 14.6233 16.75 11.9999 16.75C9.37659 16.75 7.24994 14.6233 7.24994 12Z" fill="#1A1712"/>
</svg>
