<svg width="24" height="24" viewBox="0 0 24 24" fill="none" xmlns="http://www.w3.org/2000/svg">
<path d="M9.06802 3.228C7.70453 3.07561 6.29549 3.07561 4.932 3.228C4.05481 3.32604 3.34551 4.01679 3.24207 4.90123C3.07898 6.29565 3.07898 7.70432 3.24207 9.09874C3.34551 9.98317 4.05481 10.6739 4.932 10.772C6.29549 10.9244 7.70453 10.9244 9.06802 10.772C9.9452 10.6739 10.6545 9.98317 10.7579 9.09874C10.921 7.70432 10.921 6.29565 10.7579 4.90123C10.6545 4.01679 9.9452 3.32604 9.06802 3.228Z" fill="#1A1712"/>
<path d="M9.06802 13.228C7.70453 13.0756 6.29549 13.0756 4.932 13.228C4.05481 13.326 3.34551 14.0168 3.24207 14.9012C3.07898 16.2956 3.07898 17.7043 3.24207 19.0987C3.34551 19.9832 4.05481 20.6739 4.932 20.772C6.29549 20.9244 7.70453 20.9244 9.06802 20.772C9.9452 20.6739 10.6545 19.9832 10.7579 19.0987C10.921 17.7043 10.921 16.2956 10.7579 14.9012C10.6545 14.0168 9.9452 13.326 9.06802 13.228Z" fill="#1A1712"/>
<path d="M19.068 3.228C17.7045 3.07561 16.2955 3.07561 14.932 3.228C14.0548 3.32604 13.3455 4.01679 13.2421 4.90123C13.079 6.29565 13.079 7.70432 13.2421 9.09874C13.3455 9.98317 14.0548 10.6739 14.932 10.772C16.2955 10.9244 17.7045 10.9244 19.068 10.772C19.9452 10.6739 20.6545 9.98317 20.758 9.09874C20.9211 7.70432 20.9211 6.29565 20.758 4.90123C20.6545 4.01679 19.9452 3.32604 19.068 3.228Z" fill="#1A1712"/>
<path d="M19.068 13.228C17.7045 13.0756 16.2955 13.0756 14.932 13.228C14.0548 13.326 13.3455 14.0168 13.2421 14.9012C13.079 16.2956 13.079 17.7043 13.2421 19.0987C13.3455 19.9832 14.0548 20.6739 14.932 20.772C16.2955 20.9244 17.7045 20.9244 19.068 20.772C19.9452 20.6739 20.6545 19.9832 20.758 19.0987C20.9211 17.7043 20.9211 16.2956 20.758 14.9012C20.6545 14.0168 19.9452 13.326 19.068 13.228Z" fill="#1A1712"/>
</svg>
