<svg width="24" height="24" viewBox="0 0 24 24" fill="none" xmlns="http://www.w3.org/2000/svg">
<path d="M14.6041 2.76065C13.0635 2.5853 11.508 2.5853 9.9674 2.76065L8.37207 2.94223C8.13609 2.96909 7.95157 3.15825 7.93058 3.39483L7.80795 4.7766C7.60178 7.09983 7.60178 9.43675 7.80795 11.76L7.93058 13.1418C7.95347 13.3998 8.16961 13.5976 8.42862 13.5976H10.5V21C10.5 21.2124 10.6343 21.4016 10.8347 21.4719C11.0352 21.5421 11.2582 21.478 11.3907 21.312L11.7814 20.8229C14.1108 17.9064 15.9657 14.6408 17.2777 11.1464L17.4681 10.6392C17.5258 10.4856 17.5045 10.3135 17.4111 10.1787C17.3177 10.0439 17.1641 9.96341 17 9.96341H14.287L16.6124 3.6109C16.6651 3.46693 16.6489 3.30673 16.5683 3.17629C16.4877 3.04584 16.3518 2.95957 16.1995 2.94223L14.6041 2.76065Z" fill="#1A1712"/>
</svg>
