<svg width="24" height="24" viewBox="0 0 24 24" fill="none" xmlns="http://www.w3.org/2000/svg">
<path fill-rule="evenodd" clip-rule="evenodd" d="M5.30619 6.75817L5.65303 9.8798L5.17693 9.92161C4.07635 10.0183 3.18559 10.857 3.02292 11.9497C2.67253 14.3036 2.67253 16.6964 3.02292 19.0503C3.18559 20.143 4.07635 20.9817 5.17693 21.0784L6.31138 21.178C7.53158 21.2852 8.75527 21.339 9.97898 21.3396C10.154 21.3397 10.245 21.1279 10.1326 20.9937C9.11353 19.7779 8.49995 18.2106 8.49995 16.5C8.49995 13.1206 10.8947 10.3005 14.0798 9.64413C14.2559 9.60785 14.3929 9.46553 14.4128 9.28684L14.6937 6.75817C14.7342 6.39419 14.7342 6.02685 14.6937 5.66288L14.671 5.45798C14.4295 3.28459 12.7209 1.56493 10.5491 1.30943C10.1843 1.26651 9.81565 1.26651 9.45083 1.30943C7.27904 1.56493 5.57044 3.28459 5.32895 5.45798L5.30619 5.66288C5.26575 6.02685 5.26575 6.39419 5.30619 6.75817ZM10.3738 2.79915C10.1254 2.76993 9.87448 2.76993 9.62609 2.79915C8.14747 2.97311 6.98419 4.14391 6.81978 5.62363L6.79701 5.82852C6.7688 6.08241 6.7688 6.33864 6.79701 6.59252L7.14861 9.75686C9.04733 9.62817 10.9526 9.62817 12.8513 9.75686L13.2029 6.59252C13.2311 6.33864 13.2311 6.08241 13.2029 5.82852L13.1801 5.62363C13.0157 4.14391 11.8524 2.97311 10.3738 2.79915Z" fill="#1A1712"/>
<path d="M16.25 15C16.25 14.5858 15.9142 14.25 15.5 14.25C15.0857 14.25 14.75 14.5858 14.75 15V16.7727C14.75 17.0127 14.8648 17.2381 15.0588 17.3793L16.0588 18.1065C16.3938 18.3502 16.8629 18.2761 17.1065 17.9411C17.3501 17.6061 17.2761 17.1371 16.9411 16.8934L16.25 16.3908V15Z" fill="#1A1712"/>
<path fill-rule="evenodd" clip-rule="evenodd" d="M15.5 22C18.5375 22 21 19.5376 21 16.5C21 13.4624 18.5375 11 15.5 11C12.4624 11 9.99995 13.4624 9.99995 16.5C9.99995 19.5376 12.4624 22 15.5 22ZM15.5 20.5C17.7091 20.5 19.5 18.7091 19.5 16.5C19.5 14.2909 17.7091 12.5 15.5 12.5C13.2908 12.5 11.5 14.2909 11.5 16.5C11.5 18.7091 13.2908 20.5 15.5 20.5Z" fill="#1A1712"/>
</svg>
