<svg width="24" height="24" viewBox="0 0 24 24" fill="none" xmlns="http://www.w3.org/2000/svg">
<path fill-rule="evenodd" clip-rule="evenodd" d="M7.25003 5.46119V6.94968C6.88848 6.97706 6.5271 7.00757 6.16594 7.04121C4.72505 7.17541 3.60132 8.51211 3.46196 9.95044C3.44598 10.1154 3.5817 10.25 3.74739 10.25H20.2527C20.4183 10.25 20.5541 10.1154 20.5381 9.95044C20.3987 8.51211 19.275 7.17541 17.8341 7.04121C17.4729 7.00757 17.1116 6.97706 16.75 6.94969V5.46119C16.75 4.59494 16.1163 3.85905 15.2596 3.73055L14.0397 3.54756C12.6875 3.34473 11.3126 3.34473 9.96035 3.54756L8.74043 3.73055C7.88378 3.85905 7.25003 4.59494 7.25003 5.46119ZM13.8172 5.03096C12.6125 4.85026 11.3876 4.85026 10.1829 5.03097L8.96295 5.21395C8.84056 5.23231 8.75003 5.33744 8.75003 5.46119V6.85411C10.9152 6.74211 13.0848 6.74211 15.25 6.85411V5.46119C15.25 5.33744 15.1595 5.23231 15.0371 5.21395L13.8172 5.03096Z" fill="#1A1712"/>
<path fill-rule="evenodd" clip-rule="evenodd" d="M20.5527 12.05C20.5527 11.8843 20.4183 11.75 20.2527 11.75H3.74739C3.5817 11.75 3.44739 11.8843 3.44739 12.05V17.9753C3.44739 19.5225 4.62538 20.8153 6.16594 20.9588C10.0469 21.3203 13.9531 21.3203 17.8341 20.9588C19.3747 20.8153 20.5527 19.5225 20.5527 17.9753V12.05ZM9.50003 15.25C9.08582 15.25 8.75003 15.5858 8.75003 16C8.75003 16.4142 9.08582 16.75 9.50003 16.75H11.25V18.5C11.25 18.9142 11.5858 19.25 12 19.25C12.4142 19.25 12.75 18.9142 12.75 18.5V16.75H14.5C14.9142 16.75 15.25 16.4142 15.25 16C15.25 15.5858 14.9142 15.25 14.5 15.25H12.75V13.5C12.75 13.0858 12.4142 12.75 12 12.75C11.5858 12.75 11.25 13.0858 11.25 13.5V15.25H9.50003Z" fill="#1A1712"/>
</svg>
