<svg width="24" height="24" viewBox="0 0 24 24" fill="none" xmlns="http://www.w3.org/2000/svg">
<path fill-rule="evenodd" clip-rule="evenodd" d="M18.7502 11L18.7441 11.2433L18.7502 11.5L18.7443 11.7449L18.7502 12L18.5615 20.2533C18.538 21.2804 17.7568 22.131 16.7354 22.2416C13.5877 22.5825 10.4123 22.5825 7.26453 22.2416C6.24313 22.131 5.46194 21.2804 5.43846 20.2533L5.24979 12L5.25566 11.7432L5.24981 11.5L5.25596 11.2443L5.24976 11L5.41846 4.35857C5.41957 4.31468 5.4217 4.27103 5.42481 4.22764L5.43593 3.76547C5.46136 2.70876 6.26844 1.83575 7.3199 1.72757C7.4074 1.71857 7.49493 1.70982 7.58247 1.70132C7.70121 1.67373 7.82296 1.65361 7.94722 1.64149C10.6427 1.37878 13.3573 1.37878 16.0528 1.64149C16.177 1.65361 16.2988 1.67372 16.4175 1.70131C16.5051 1.70981 16.5926 1.71857 16.6802 1.72757C17.7316 1.83575 18.5387 2.70876 18.5641 3.76547L18.5753 4.22869C18.5783 4.27173 18.5804 4.31503 18.5815 4.35857L18.7502 11ZM16 17.75C16.4142 17.75 16.75 17.4142 16.75 17C16.75 16.5858 16.4142 16.25 16 16.25H8C7.58579 16.25 7.25 16.5858 7.25 17C7.25 17.4142 7.58579 17.75 8 17.75H16ZM12 21.7C12.8284 21.7 13.5 21.0285 13.5 20.2C13.5 19.3716 12.8284 18.7 12 18.7C11.1716 18.7 10.5 19.3716 10.5 20.2C10.5 21.0285 11.1716 21.7 12 21.7Z" fill="#1A1712"/>
</svg>
