<svg width="24" height="24" viewBox="0 0 24 24" fill="none" xmlns="http://www.w3.org/2000/svg">
<path d="M12.8199 4.10639C12.5862 3.68873 12.1486 3.50489 11.7591 3.5001C11.3704 3.49531 10.9223 3.66938 10.6924 4.09939L10.5281 4.40657C8.02798 9.08158 6.02453 13.955 4.54236 18.9678C4.38368 19.5044 4.68311 19.9512 5.04034 20.1655C5.39633 20.3791 5.89991 20.4302 6.33125 20.1578L10.9627 17.2327C11.537 16.8701 12.3509 16.8748 12.9524 17.2616L17.6799 20.3018C18.1053 20.5754 18.607 20.5463 18.9704 20.3331C19.3403 20.1161 19.6222 19.6603 19.4484 19.1264C17.8049 14.0768 15.6446 9.15402 12.9942 4.41774L12.8199 4.10639Z" fill="#1A1712"/>
</svg>
