<svg width="24" height="24" viewBox="0 0 24 24" fill="none" xmlns="http://www.w3.org/2000/svg">
<path fill-rule="evenodd" clip-rule="evenodd" d="M6.76948 3.08151C10.2176 2.69614 13.7823 2.69614 17.2304 3.08151C19.1288 3.29369 20.66 4.78947 20.8828 6.69452C21.2951 10.2195 21.2951 13.7806 20.8828 17.3056C20.66 19.2106 19.1288 20.7064 17.2304 20.9186C13.7823 21.304 10.2176 21.304 6.76948 20.9186C4.87108 20.7064 3.33989 19.2106 3.11707 17.3056C2.70479 13.7806 2.70479 10.2195 3.11707 6.69452C3.33989 4.78947 4.87108 3.29369 6.76948 3.08151ZM16.5749 7.25003C16.6366 7.59473 16.5568 7.93086 16.2366 7.96109L15.7053 8.05698L15.4846 16.374C15.0167 16.6242 14.591 16.7615 14.2396 16.7493C13.6729 16.7296 13.5362 16.5344 13.1292 15.9535L9.82402 10.0074L9.67444 15.6431L10.7624 15.9474C10.7624 15.9474 10.7443 16.6282 9.86184 16.5975L7.42238 16.6648C7.35557 16.5103 7.4365 16.1329 7.68668 16.0686L8.32652 15.9004L8.52425 8.45081L7.6438 8.34411C7.58204 7.99941 7.77246 7.51503 8.26599 7.49448L10.8833 7.39512L14.3279 13.4217L14.4665 8.20066L13.5514 8.05443C13.4915 7.63739 13.7802 7.34321 14.1353 7.32029L16.5749 7.25003Z" fill="#1A1712"/>
</svg>
