<svg width="24" height="24" viewBox="0 0 24 24" fill="none" xmlns="http://www.w3.org/2000/svg">
<path fill-rule="evenodd" clip-rule="evenodd" d="M12.9999 3C12.9999 2.44772 12.5522 2 11.9999 2C11.4477 2 10.9999 2.44772 10.9999 3V3.75H10.4425C8.21745 3.75 6.37585 5.48001 6.23695 7.70074L6.01595 11.2342C5.93169 12.5814 5.4794 13.8797 4.70834 14.9876C4.01166 15.9886 4.63188 17.3712 5.84281 17.5165L9.24994 17.9254V19C9.24994 20.5188 10.4812 21.75 11.9999 21.75C13.5187 21.75 14.7499 20.5188 14.7499 19V17.9254L18.1571 17.5165C19.368 17.3712 19.9882 15.9886 19.2915 14.9876C18.5205 13.8797 18.0682 12.5814 17.9839 11.2342L17.7629 7.70074C17.624 5.48001 15.7824 3.75 13.5573 3.75H12.9999V3ZM10.7499 19C10.7499 19.6904 11.3096 20.25 11.9999 20.25C12.6903 20.25 13.2499 19.6904 13.2499 19V18.25H10.7499V19Z" fill="#1A1712"/>
</svg>
