<svg width="24" height="24" viewBox="0 0 24 24" fill="none" xmlns="http://www.w3.org/2000/svg">
<path fill-rule="evenodd" clip-rule="evenodd" d="M12.2303 2.50277C6.98512 2.37562 2.63 6.52459 2.50285 11.7698C2.3757 17.0149 6.52467 21.37 11.7698 21.4972C12.1075 21.5054 12.4129 21.4107 12.668 21.2177C12.9156 21.0304 13.0871 20.7728 13.207 20.4972C13.4422 19.9569 13.5214 19.2483 13.5254 18.5176C13.5398 15.8759 15.8573 13.5817 18.4726 13.6807C19.1921 13.708 19.8862 13.6695 20.4211 13.493C20.6917 13.4038 20.9551 13.2685 21.1568 13.0575C21.3687 12.836 21.4894 12.5541 21.4973 12.2302C21.6244 6.98504 17.4754 2.62992 12.2303 2.50277ZM8.8901 15.4027C8.3419 15.4697 7.95184 15.9685 8.01888 16.5167C8.08593 17.0649 8.58468 17.4549 9.13288 17.3879C9.68108 17.3209 10.0711 16.8221 10.0041 16.2739C9.93705 15.7257 9.4383 15.3356 8.8901 15.4027ZM5.54812 12.7891C5.48108 12.2409 5.87113 11.7421 6.41933 11.6751C6.96753 11.608 7.46629 11.9981 7.53333 12.5463C7.60037 13.0945 7.21032 13.5932 6.66212 13.6603C6.11391 13.7273 5.61516 13.3373 5.54812 12.7891ZM7.91897 7.46186C7.37077 7.5289 6.98071 8.02766 7.04775 8.57586C7.1148 9.12406 7.61355 9.51411 8.16175 9.44707C8.70995 9.38003 9.1 8.88127 9.03296 8.33307C8.96592 7.78487 8.46717 7.39482 7.91897 7.46186ZM15.6973 9.28109C15.6303 8.73289 16.0203 8.23413 16.5685 8.16709C17.1167 8.10005 17.6155 8.4901 17.6825 9.0383C17.7496 9.5865 17.3595 10.0853 16.8113 10.1523C16.2631 10.2193 15.7644 9.82929 15.6973 9.28109ZM11.9926 10.8786C11.4444 10.9457 11.0544 11.4444 11.1214 11.9926C11.1885 12.5408 11.6872 12.9309 12.2354 12.8638C12.7836 12.7968 13.1737 12.298 13.1066 11.7498C13.0396 11.2016 12.5408 10.8116 11.9926 10.8786ZM11.3931 7.03698C11.326 6.48878 11.7161 5.99002 12.2643 5.92298C12.8125 5.85594 13.3113 6.24599 13.3783 6.79419C13.4453 7.34239 13.0553 7.84115 12.5071 7.90819C11.9589 7.97523 11.4601 7.58518 11.3931 7.03698Z" fill="#1A1712"/>
</svg>
