<svg width="24" height="24" viewBox="0 0 24 24" fill="none" xmlns="http://www.w3.org/2000/svg">
<path d="M10.4975 11.3218C10.6046 11.2148 10.6147 11.045 10.5243 10.9235C10.0876 10.3371 9.70264 9.70964 9.37609 9.04765L10.6333 8.11593C11.09 7.77751 11.1731 7.12699 10.8162 6.68461L8.38637 3.67267C8.06103 3.26939 7.48152 3.18142 7.05116 3.46999L5.71832 4.36368C4.29597 5.31739 3.77259 7.16024 4.48132 8.71919L4.99941 9.85881L5.00019 9.8605C5.66371 11.3056 6.50628 12.6482 7.50034 13.8607C7.61146 13.9963 7.81496 14.0044 7.93889 13.8805L10.4975 11.3218Z" fill="#1A1712"/>
<path d="M19.9971 3.94357L4.03033 19.9103C4.02136 19.9193 4.01222 19.928 4.00291 19.9364L3.96967 19.9697C3.67678 20.2626 3.67678 20.7374 3.96967 21.0303C4.26256 21.3232 4.73744 21.3232 5.03033 21.0303L9.8299 16.2308C11.2399 17.428 12.8338 18.4168 14.5661 19.1519L15.2457 19.4547C16.8005 20.1474 18.6283 19.6211 19.5766 18.2076L20.4647 16.8839C20.7535 16.4536 20.6656 15.8739 20.2622 15.5485L17.2503 13.1187C16.808 12.7618 16.1574 12.8449 15.819 13.3016L14.8873 14.5589C14.1475 14.1939 13.4507 13.756 12.8062 13.2544L21.0303 5.03033C21.3232 4.73744 21.3232 4.26256 21.0303 3.96967C20.7464 3.68575 20.2915 3.67705 19.9971 3.94357Z" fill="#1A1712"/>
</svg>
