<svg width="24" height="24" viewBox="0 0 24 24" fill="none" xmlns="http://www.w3.org/2000/svg">
<path d="M14.5661 19.1519C10.3266 17.3529 6.91657 14.0344 5.00017 9.8605L4.99939 9.85881L4.4813 8.71919C3.77257 7.16024 4.29595 5.31739 5.71829 4.36368L7.05113 3.46999C7.4815 3.18142 8.061 3.26939 8.38635 3.67267L10.8162 6.68461C11.1731 7.12699 11.09 7.77751 10.6333 8.11593L9.37607 9.04765C10.5554 11.4385 12.4965 13.3795 14.8873 14.5589L15.819 13.3016C16.1574 12.8449 16.8079 12.7618 17.2503 13.1187L20.2622 15.5485C20.6655 15.8739 20.7534 16.4536 20.4647 16.8839L19.5766 18.2076C18.6283 19.6211 16.8005 20.1474 15.2457 19.4547L14.5661 19.1519Z" fill="#1A1712"/>
<path d="M13.75 9C13.75 9.19891 13.829 9.38968 13.9696 9.53033C14.1103 9.67098 14.3011 9.75 14.5 9.75H18.3284C18.7426 9.75 19.0784 9.41421 19.0784 9C19.0784 8.58579 18.7426 8.25 18.3284 8.25H16.3106L19.4696 5.09099C19.7625 4.7981 19.7625 4.32322 19.4696 4.03033C19.1767 3.73744 18.7019 3.73744 18.409 4.03033L15.25 7.18934V5.17157C15.25 4.75736 14.9142 4.42157 14.5 4.42157C14.0858 4.42157 13.75 4.75736 13.75 5.17157V9Z" fill="#1A1712"/>
</svg>
