<svg width="24" height="24" viewBox="0 0 24 24" fill="none" xmlns="http://www.w3.org/2000/svg">
<path d="M16.4321 4.07854C15.8068 3.45323 14.7477 3.6572 14.3993 4.47003L12.6399 8.57527C11.1944 8.14698 9.56525 8.50303 8.42364 9.64465L7.0671 11.0012C6.7742 11.2941 6.7742 11.769 7.0671 12.0618L9.20887 14.2036L3.46967 19.9428C3.17678 20.2357 3.17678 20.7106 3.46967 21.0035C3.76256 21.2964 4.23744 21.2964 4.53033 21.0035L10.2695 15.2643L12.4114 17.4061C12.7042 17.699 13.1791 17.699 13.472 17.4061L14.8285 16.0496C15.9702 14.9079 16.3262 13.2787 15.8979 11.8333L20.0032 10.0739C20.816 9.72552 21.02 8.66638 20.3946 8.04106L16.4321 4.07854Z" fill="#1A1712"/>
</svg>
