<svg width="24" height="24" viewBox="0 0 24 24" fill="none" xmlns="http://www.w3.org/2000/svg">
<path fill-rule="evenodd" clip-rule="evenodd" d="M4.20082 8.36376L6.25006 8.136V3.91299C6.25006 3.2697 6.74012 2.73233 7.38068 2.6732C10.4537 2.38953 13.5464 2.38953 16.6194 2.6732C17.26 2.73233 17.7501 3.2697 17.7501 3.91299V8.13599L19.7994 8.36376C20.4617 8.43738 21.0081 8.91569 21.1686 9.56245C21.7246 11.8017 21.7246 14.143 21.1686 16.3823L21.0159 16.9975C20.9426 17.2927 20.6775 17.5 20.3734 17.5H17.7501V20.083C17.7501 20.705 17.2787 21.2259 16.6597 21.2877C13.561 21.5976 10.4391 21.5976 7.34037 21.2877C6.72142 21.2259 6.25006 20.705 6.25006 20.083V17.5H3.62681C3.32263 17.5 3.05758 17.2927 2.98428 16.9975L2.83154 16.3823C2.27556 14.143 2.27556 11.8017 2.83154 9.56245C2.99211 8.91569 3.5385 8.43738 4.20082 8.36376ZM7.75006 7.99039C10.5786 7.75732 13.4215 7.75731 16.2501 7.99038V4.14604C13.4221 3.89859 10.578 3.89859 7.75006 4.14604V7.99039ZM7.75006 16.1795V19.8205C10.5771 20.0867 13.423 20.0867 16.2501 19.8205V16.1795C13.423 15.9132 10.5771 15.9132 7.75006 16.1795ZM17.7501 11C17.0597 11 16.5001 11.5596 16.5001 12.25C16.5001 12.9403 17.0597 13.5 17.7501 13.5C18.4404 13.5 19.0001 12.9403 19.0001 12.25C19.0001 11.5596 18.4404 11 17.7501 11Z" fill="#1A1712"/>
</svg>
