<svg width="24" height="24" viewBox="0 0 24 24" fill="none" xmlns="http://www.w3.org/2000/svg">
<path d="M20.1938 18.4237C19.775 18.4743 18.6179 16.6466 18.4594 16.3928C18.454 16.3843 18.4412 16.3887 18.4411 16.3988C18.4293 17.6143 17.8021 19.1857 16.4609 20.3281C16.4549 20.3332 16.4564 20.3429 16.4639 20.3452C17.1296 20.5524 18.5864 21.0938 18.2363 21.6844C17.9507 22.1669 13.3338 21.9925 12.0007 21.8419C10.6676 21.9919 6.05068 22.1662 5.76505 21.6844C5.41233 21.0894 6.89106 20.5444 7.55093 20.3407C7.55129 20.3406 7.55154 20.3403 7.5516 20.3399L7.55169 20.3394C7.55174 20.339 7.55161 20.3387 7.55134 20.3384C6.19024 19.186 5.56008 17.5908 5.55881 16.3675C5.55881 16.3673 5.55877 16.3672 5.55871 16.367L5.55866 16.3669C5.55832 16.3662 5.55773 16.3655 5.55731 16.3662C5.50798 16.446 4.24808 18.4777 3.8063 18.4237C3.59693 18.3981 3.3213 17.2656 4.1713 14.5294C4.57193 13.2394 5.03068 12.1669 5.73943 10.3975C5.62005 5.83123 7.50693 2.00061 11.9994 2.00061C16.4426 2.00124 18.3726 5.75561 18.2601 10.3975C18.9676 12.1637 19.4282 13.2431 19.8282 14.5294C20.6788 17.2662 20.4038 18.3987 20.1938 18.4237Z" fill="#1A1712"/>
</svg>
