<svg width="24" height="24" viewBox="0 0 24 24" fill="none" xmlns="http://www.w3.org/2000/svg">
<path d="M20.4461 16.0608C20.5423 16.2506 20.5077 16.4805 20.36 16.6337C20.2122 16.7869 19.9837 16.8298 19.7905 16.7406L17.2912 15.5871C15.1906 14.6176 12.8982 14.1741 10.6098 14.2784C10.5827 15.0133 10.5423 15.7477 10.4888 16.4815L10.4204 17.4205C10.3789 17.9901 9.7437 18.3086 9.26241 18.001C7.17342 16.6662 5.35736 14.9463 3.91104 12.9329L3.45085 12.2922C3.32563 12.1179 3.32563 11.8831 3.45085 11.7088L3.91103 11.0682C5.35736 9.0548 7.17342 7.33485 9.26241 6.00003C9.7437 5.69249 10.3789 6.01093 10.4204 6.58058L10.4888 7.51954C10.5348 8.14939 10.571 8.77978 10.5975 9.41047H11.2406C14.8216 9.41047 18.0983 11.4241 19.716 14.6189L20.4461 16.0608Z" fill="#1A1712"/>
</svg>
