<svg width="24" height="24" viewBox="0 0 24 24" fill="none" xmlns="http://www.w3.org/2000/svg">
<path fill-rule="evenodd" clip-rule="evenodd" d="M10.6636 11.8386L10.8509 12L10.6636 12.1614C8.6882 13.8634 7.04577 15.9172 5.81976 18.2185C5.33865 19.1216 5.93595 20.2227 6.9553 20.3118L8.12884 20.4144C10.7047 20.6396 13.2952 20.6396 15.8711 20.4144L17.0446 20.3118C18.0639 20.2227 18.6612 19.1216 18.1801 18.2185C16.9541 15.9172 15.3117 13.8634 13.3363 12.1614L13.149 12L13.3363 11.8386C15.3117 10.1366 16.9541 8.08279 18.1801 5.78147C18.6612 4.8784 18.0639 3.77732 17.0446 3.6882L15.8711 3.58559C13.2952 3.36038 10.7047 3.36039 8.12884 3.58559L6.9553 3.6882C5.93595 3.77732 5.33865 4.8784 5.81976 5.78148C7.04577 8.08279 8.6882 10.1366 10.6636 11.8386ZM11.9999 9.75C11.801 9.75 11.6102 9.67098 11.4696 9.53033L9.46957 7.53033C9.25507 7.31583 9.1909 6.99324 9.30699 6.71298C9.42308 6.43273 9.69655 6.25 9.9999 6.25H13.9999C14.3032 6.25 14.5767 6.43273 14.6928 6.71298C14.8089 6.99324 14.7447 7.31583 14.5302 7.53033L12.5302 9.53033C12.3896 9.67098 12.1988 9.75 11.9999 9.75ZM11.9999 14.25C11.801 14.25 11.6102 14.329 11.4696 14.4697L9.46957 16.4697C9.25507 16.6842 9.1909 17.0068 9.30699 17.287C9.42308 17.5673 9.69655 17.75 9.9999 17.75H13.9999C14.3032 17.75 14.5767 17.5673 14.6928 17.287C14.8089 17.0068 14.7447 16.6842 14.5302 16.4697L12.5302 14.4697C12.3896 14.329 12.1988 14.25 11.9999 14.25Z" fill="#1A1712"/>
</svg>
