<svg width="24" height="24" viewBox="0 0 24 24" fill="none" xmlns="http://www.w3.org/2000/svg">
<path d="M7.24994 7.59998C7.24994 8.56647 8.03344 9.34998 8.99994 9.34998H14.9999C15.9664 9.34998 16.7499 8.56647 16.7499 7.59998V4.27627C16.7499 4.12369 16.8736 4 17.0262 4C17.1721 4 17.3107 4.06373 17.4057 4.17448L20.3684 7.62867C20.779 8.1074 20.9935 8.72364 20.9689 9.35387L20.6272 18.0976C20.5748 19.4393 19.4719 20.5 18.1291 20.5H17.7499C17.4738 20.5 17.2499 20.2761 17.2499 20V15C17.2499 14.0335 16.4664 13.25 15.4999 13.25H8.49994C7.53344 13.25 6.74994 14.0335 6.74994 15V20C6.74994 20.2761 6.52608 20.5 6.24994 20.5H6.11285C4.90902 20.5 3.8927 19.6055 3.73983 18.4114C3.24591 14.5534 3.22464 10.6495 3.67647 6.78632L3.73736 6.26575C3.88844 4.97395 4.98294 4 6.28355 4H6.74994C7.02608 4 7.24994 4.22386 7.24994 4.5V7.59998Z" fill="#1A1712"/>
<path d="M8.24994 20C8.24994 20.2761 8.4738 20.5 8.74994 20.5H15.2499C15.5261 20.5 15.7499 20.2761 15.7499 20V15C15.7499 14.8619 15.638 14.75 15.4999 14.75H8.49994C8.36187 14.75 8.24994 14.8619 8.24994 15V20Z" fill="#1A1712"/>
<path d="M15.2499 4.5C15.2499 4.22386 15.0261 4 14.7499 4H9.24994C8.9738 4 8.74994 4.22386 8.74994 4.5V7.59998C8.74994 7.73805 8.86187 7.84998 8.99994 7.84998H14.9999C15.138 7.84998 15.2499 7.73805 15.2499 7.59998V4.5Z" fill="#1A1712"/>
</svg>
