<svg width="24" height="24" viewBox="0 0 24 24" fill="none" xmlns="http://www.w3.org/2000/svg">
<path fill-rule="evenodd" clip-rule="evenodd" d="M14.385 15.4457C11.7348 17.5684 7.85532 17.4013 5.39854 14.9445C2.7625 12.3085 2.7625 8.03464 5.39854 5.3986C8.03458 2.76256 12.3084 2.76256 14.9445 5.3986C17.4013 7.85538 17.5683 11.7348 15.4457 14.3851L20.6013 19.5407C20.8942 19.8336 20.8942 20.3085 20.6013 20.6014C20.3084 20.8943 19.8335 20.8943 19.5407 20.6014L14.385 15.4457ZM6.4592 13.8839C4.40895 11.8336 4.40895 8.50951 6.4592 6.45926C8.50945 4.40901 11.8336 4.40901 13.8838 6.45926C15.9326 8.50801 15.9341 11.8287 13.8883 13.8794C13.8868 13.8809 13.8853 13.8823 13.8838 13.8839C13.8823 13.8854 13.8808 13.8869 13.8793 13.8884C11.8287 15.9341 8.50795 15.9326 6.4592 13.8839Z" fill="#1A1712"/>
</svg>
