<svg width="24" height="24" viewBox="0 0 24 24" fill="none" xmlns="http://www.w3.org/2000/svg">
<path fill-rule="evenodd" clip-rule="evenodd" d="M3.94739 5C3.94739 4.17157 4.61896 3.5 5.44739 3.5H18.4474C19.2758 3.5 19.9474 4.17157 19.9474 5V9C19.9474 9.82843 19.2758 10.5 18.4474 10.5H5.44739C4.61896 10.5 3.94739 9.82843 3.94739 9V5ZM6.00003 7C6.00003 6.44772 6.44775 6 7.00003 6C7.55232 6 8.00003 6.44772 8.00003 7C8.00003 7.55228 7.55232 8 7.00003 8C6.44775 8 6.00003 7.55228 6.00003 7ZM10 6C9.44775 6 9.00003 6.44772 9.00003 7C9.00003 7.55228 9.44775 8 10 8C10.5523 8 11 7.55228 11 7C11 6.44772 10.5523 6 10 6Z" fill="#1A1712"/>
<path fill-rule="evenodd" clip-rule="evenodd" d="M3.94739 13C3.94739 12.1716 4.61896 11.5 5.44739 11.5H18.4474C19.2758 11.5 19.9474 12.1716 19.9474 13V17C19.9474 17.8284 19.2758 18.5 18.4474 18.5H12.75V20.25H19C19.4142 20.25 19.75 20.5858 19.75 21C19.75 21.4142 19.4142 21.75 19 21.75H5.00003C4.58582 21.75 4.25003 21.4142 4.25003 21C4.25003 20.5858 4.58582 20.25 5.00003 20.25H11.25V18.5H5.44739C4.61896 18.5 3.94739 17.8284 3.94739 17V13ZM6.00003 15C6.00003 14.4477 6.44775 14 7.00003 14C7.55232 14 8.00003 14.4477 8.00003 15C8.00003 15.5523 7.55232 16 7.00003 16C6.44775 16 6.00003 15.5523 6.00003 15ZM9.00003 15C9.00003 14.4477 9.44775 14 10 14C10.5523 14 11 14.4477 11 15C11 15.5523 10.5523 16 10 16C9.44775 16 9.00003 15.5523 9.00003 15Z" fill="#1A1712"/>
</svg>
