<svg width="24" height="24" viewBox="0 0 24 24" fill="none" xmlns="http://www.w3.org/2000/svg">
<path d="M9.87729 3.15292C9.95817 3.04847 9.87429 2.89803 9.74292 2.91192L6.24041 3.28225C6.15783 3.29098 6.09805 3.36514 6.10706 3.44769L6.50436 7.08778C6.519 7.22191 6.68947 7.27002 6.77208 7.16334L9.87729 3.15292Z" fill="#1A1712"/>
<path d="M17.2238 7.16334C17.3064 7.27003 17.4769 7.22192 17.4915 7.08779L17.8889 3.44768C17.8979 3.36513 17.8381 3.29096 17.7555 3.28223L14.253 2.91191C14.1216 2.89802 14.0377 3.04845 14.1186 3.15291L17.2238 7.16334Z" fill="#1A1712"/>
<path d="M7.83571 8.63479C7.71103 8.63479 7.64078 8.49153 7.7171 8.39295L11.8793 3.01736C11.9394 2.9398 12.0565 2.9398 12.1165 3.01736L16.2787 8.39295C16.355 8.49153 16.2848 8.63479 16.1601 8.63479H7.83571Z" fill="#1A1712"/>
<path d="M8.99333 18.261C9.06103 18.4188 8.85353 18.5481 8.74169 18.4179L1.84142 10.3826C1.75789 10.2853 1.827 10.1349 1.95522 10.1349H5.40744C5.46742 10.1349 5.52163 10.1706 5.54529 10.2257L8.99333 18.261Z" fill="#1A1712"/>
<path d="M18.5884 10.1349C18.5285 10.1349 18.4742 10.1706 18.4506 10.2257L15.0025 18.2611C14.9348 18.4189 15.1423 18.5483 15.2541 18.418L22.1545 10.3826C22.238 10.2853 22.1689 10.1349 22.0407 10.1349H18.5884Z" fill="#1A1712"/>
<path d="M18.8498 8.46861C18.8401 8.55737 18.9096 8.63489 18.9989 8.63489L21.7785 8.63488C21.9019 8.63488 21.9725 8.49422 21.8988 8.39528L19.4744 5.14082C19.393 5.03152 19.2198 5.07867 19.205 5.21415L18.8498 8.46861Z" fill="#1A1712"/>
<path d="M4.79093 5.2143C4.77614 5.07881 4.60294 5.03166 4.52152 5.14096L2.09728 8.39528C2.02357 8.49422 2.09419 8.63488 2.21757 8.63488H4.99696C5.08625 8.63488 5.15576 8.55737 5.14608 8.46861L4.79093 5.2143Z" fill="#1A1712"/>
<path d="M7.22836 10.344C7.18588 10.245 7.25848 10.1349 7.3662 10.1349H16.6296C16.7373 10.1349 16.81 10.245 16.7675 10.344L12.1358 21.1378C12.0838 21.2589 11.9121 21.2589 11.8601 21.1378L7.22836 10.344Z" fill="#1A1712"/>
</svg>
