<svg width="24" height="24" viewBox="0 0 24 24" fill="none" xmlns="http://www.w3.org/2000/svg">
<path d="M13.0389 3.58195C12.4395 3.26907 11.616 3.26437 11.0123 3.57614C8.43371 4.90788 6.09703 6.43371 4.05106 8.12432C3.77823 8.34976 3.59769 8.66529 3.60078 9.02594C3.60386 9.38536 3.7885 9.69738 4.06043 9.91972C6.08993 11.5792 8.42925 13.1068 10.961 14.4282C11.5605 14.741 12.3839 14.7457 12.9876 14.434C15.5662 13.1022 17.9029 11.5764 19.9489 9.8858C20.2217 9.66036 20.4023 9.34483 20.3992 8.98418C20.3961 8.62476 20.2114 8.31274 19.9395 8.09039C17.91 6.43095 15.5707 4.90333 13.0389 3.58195Z" fill="#1A1712"/>
<path d="M20.958 13.7315C21.3094 13.5121 21.4164 13.0494 21.197 12.6981C20.9776 12.3467 20.515 12.2397 20.1636 12.4591L14.0564 16.272C13.5124 16.6116 12.7732 16.801 11.9998 16.801C11.2264 16.8011 10.4872 16.6118 9.94301 16.2722L3.90268 12.5024C3.55128 12.2831 3.08864 12.3902 2.86934 12.7416C2.65003 13.093 2.75711 13.5557 3.10851 13.775L9.14884 17.5447C9.9777 18.062 11.006 18.3011 11.9999 18.301C12.9938 18.301 14.022 18.0618 14.8508 17.5444L20.958 13.7315Z" fill="#1A1712"/>
<path d="M20.9581 17.4861C21.3094 17.2667 21.4164 16.8041 21.197 16.4527C20.9776 16.1014 20.5149 15.9945 20.1635 16.2139L14.8746 19.5167C14.1018 19.9994 13.068 20.2602 11.9998 20.2603C10.9316 20.2604 9.89764 19.9996 9.12462 19.517L3.90276 16.2572C3.55139 16.0379 3.08873 16.1449 2.86938 16.4963C2.65004 16.8476 2.75706 17.3103 3.10843 17.5296L8.3303 20.7895C9.38808 21.4498 10.7111 21.7604 11.9998 21.7603C13.2886 21.7602 14.6115 21.4495 15.6692 20.789L20.9581 17.4861Z" fill="#1A1712"/>
</svg>
