<svg width="24" height="24" viewBox="0 0 24 24" fill="none" xmlns="http://www.w3.org/2000/svg">
<path fill-rule="evenodd" clip-rule="evenodd" d="M18.4831 19.7901L18.4838 19.7884L18.5011 19.7449L21.4999 4.6258V4.57669C21.4999 4.19999 21.3608 3.87113 21.0579 3.67387C20.7928 3.50121 20.488 3.48892 20.2743 3.50514C20.0483 3.52229 19.8352 3.57871 19.6876 3.62567C19.6117 3.64983 19.5482 3.67311 19.5028 3.69071C19.48 3.69955 19.4615 3.70705 19.448 3.71263L19.4348 3.71819L2.71502 10.2771L2.71042 10.2788C2.70139 10.2821 2.68944 10.2865 2.67502 10.2921C2.64627 10.3033 2.60713 10.3193 2.56115 10.3402C2.47087 10.3811 2.34613 10.4442 2.21963 10.5309C2.00477 10.678 1.59566 11.0263 1.66474 11.5785C1.72196 12.036 2.03727 12.3265 2.24983 12.4769C2.36378 12.5575 2.4728 12.6156 2.55262 12.6536C2.59307 12.6729 2.62743 12.6876 2.65302 12.6981C2.66585 12.7033 2.67657 12.7075 2.68487 12.7106L2.6955 12.7146L2.70229 12.7171L5.62753 13.7019C5.61766 13.8854 5.63586 14.0726 5.68453 14.2572L7.14982 19.8156C7.32355 20.4747 7.91978 20.9337 8.60135 20.9333C9.21228 20.9328 9.75411 20.5632 9.98429 20.0118L12.272 17.5657L16.2009 20.578L16.2568 20.6023C16.6138 20.7581 16.9473 20.8075 17.2522 20.7658C17.5567 20.7242 17.7987 20.5965 17.9804 20.4511C18.1593 20.308 18.2819 20.1465 18.359 20.0249C18.3981 19.9631 18.4273 19.9088 18.4476 19.868C18.4578 19.8475 18.4658 19.8301 18.4718 19.8166L18.4793 19.7991L18.482 19.7927L18.4831 19.7901ZM7.13493 13.8748C7.10163 13.7485 7.15391 13.6151 7.2642 13.5451L17.1862 7.2442C17.1862 7.2442 17.7698 6.8899 17.7489 7.2442C17.7489 7.2442 17.8531 7.30676 17.5404 7.59849C17.2438 7.87557 10.4687 14.4166 9.78316 15.0785C9.74359 15.1167 9.71997 15.1605 9.70602 15.2137L8.60022 19.4332L7.13493 13.8748Z" fill="#1A1712"/>
</svg>
