<svg width="24" height="24" viewBox="0 0 24 24" fill="none" xmlns="http://www.w3.org/2000/svg">
<path fill-rule="evenodd" clip-rule="evenodd" d="M6.76948 3.08151C10.2176 2.69614 13.7823 2.69614 17.2304 3.08151C19.1288 3.29369 20.66 4.78947 20.8828 6.69452C21.2951 10.2195 21.2951 13.7806 20.8828 17.3056C20.66 19.2106 19.1288 20.7064 17.2304 20.9186C13.7823 21.304 10.2176 21.304 6.76948 20.9186C4.87108 20.7064 3.33989 19.2106 3.11707 17.3056C2.70479 13.7806 2.70479 10.2195 3.11707 6.69452C3.33989 4.78947 4.87108 3.29369 6.76948 3.08151ZM10.8729 16.4069C10.9218 16.2903 10.9469 16.1653 10.9468 16.039V6.95853C10.9468 6.42953 10.5115 6.00003 9.97274 6.00003H6.97147C6.43528 6.00003 5.99994 6.43003 5.99994 6.95853V16.039C6.00021 16.2934 6.10257 16.5373 6.28464 16.7174C6.4667 16.8975 6.71366 16.9991 6.97147 17H9.97274C10.1007 17.0002 10.2274 16.9754 10.3457 16.9271C10.4639 16.8789 10.5713 16.8081 10.6618 16.7189C10.7523 16.6296 10.824 16.5236 10.8729 16.4069ZM17.7154 12.7175C17.8975 12.5374 17.9998 12.2934 17.9999 12.039V6.95853C17.9999 6.42953 17.5641 6.00003 17.0284 6.00003H14.0271C13.4914 6.00003 13.0531 6.43003 13.0531 6.95853V12.039C13.0533 12.2938 13.156 12.5381 13.3387 12.7183C13.5213 12.8984 13.7689 12.9998 14.0271 13H17.0284C17.2863 12.9992 17.5333 12.8977 17.7154 12.7175Z" fill="#1A1712"/>
</svg>
