<svg width="24" height="24" viewBox="0 0 24 24" fill="none" xmlns="http://www.w3.org/2000/svg">
<path fill-rule="evenodd" clip-rule="evenodd" d="M10.5328 3.81146C10.2853 3.84752 10.0429 3.91247 9.81057 4.00498C8.42735 4.55571 7.60674 5.98769 7.8309 7.45954L7.86195 7.66335C7.90041 7.91589 7.96672 8.16338 8.05968 8.40132L8.97458 10.743C11.1638 10.5942 13.3612 10.6071 15.5489 10.7817L17.0451 10.9012C18.0132 10.9784 18.8037 11.7062 18.9606 12.6646C19.3223 14.8735 19.3223 17.1265 18.9606 19.3354C18.8037 20.2938 18.0132 21.0216 17.0451 21.0988L15.5489 21.2183C13.1868 21.4069 10.8134 21.4069 8.45124 21.2183L6.95511 21.0988C5.98701 21.0216 5.19651 20.2938 5.03958 19.3354C4.67789 17.1265 4.67789 14.8735 5.03958 12.6646C5.19651 11.7062 5.98701 10.9784 6.95511 10.9012L7.4117 10.8647L6.66253 8.94717C6.52926 8.60607 6.43419 8.25124 6.37905 7.8892L6.348 7.68539C6.01875 5.52356 7.22405 3.42028 9.25571 2.61138C9.59699 2.4755 9.95303 2.3801 10.3165 2.32713C12.4804 2.01183 14.5759 3.23068 15.3717 5.26751L15.4467 5.45953C15.58 5.80064 15.675 6.15546 15.7302 6.5175L15.8715 7.44551C15.9131 7.71851 15.7255 7.97352 15.4525 8.0151L14.9582 8.09038C14.6852 8.13196 14.4302 7.94436 14.3886 7.67136L14.2473 6.74335C14.2088 6.49082 14.1425 6.24332 14.0496 6.00539L13.9745 5.81336C13.4327 4.42662 12.0061 3.59679 10.5328 3.81146ZM12.0001 14.5C11.1716 14.5 10.5001 15.1716 10.5001 16C10.5001 16.8284 11.1716 17.5 12.0001 17.5C12.8285 17.5 13.5001 16.8284 13.5001 16C13.5001 15.1716 12.8285 14.5 12.0001 14.5Z" fill="#1A1712"/>
</svg>
