<svg width="24" height="24" viewBox="0 0 24 24" fill="none" xmlns="http://www.w3.org/2000/svg">
<path d="M13.9771 4.20154C14.5846 3.69532 15.5115 4.0611 15.6096 4.84573L15.7054 5.61222C16.2357 9.85424 16.2357 14.1458 15.7054 18.3878L15.6096 19.1543C15.5115 19.9389 14.5846 20.3047 13.9771 19.7985L8.95804 15.6159C8.86818 15.541 8.75492 15.5 8.63795 15.5H4.75C4.05964 15.5 3.5 14.9404 3.5 14.25V9.75001C3.5 9.05966 4.05964 8.50001 4.75 8.50001H8.63795C8.75492 8.50001 8.86818 8.459 8.95804 8.38412L13.9771 4.20154Z" fill="#1A1712"/>
<path d="M19.0323 7.94769C18.8894 7.55889 18.4584 7.35951 18.0696 7.50236C17.6808 7.64522 17.4815 8.07621 17.6243 8.46501C18.0288 9.56594 18.25 10.7563 18.25 12C18.25 13.0316 18.0978 14.0263 17.8152 14.9637C17.7995 15.0159 17.7833 15.0679 17.7668 15.1198C17.7222 15.2595 17.6747 15.3979 17.6243 15.535C17.4815 15.9238 17.6808 16.3548 18.0696 16.4976C18.4584 16.6405 18.8894 16.4411 19.0323 16.0523C19.0901 15.895 19.1446 15.7362 19.1958 15.5758C19.2148 15.5163 19.2333 15.4566 19.2514 15.3967C19.5758 14.3204 19.75 13.1799 19.75 12C19.75 10.5772 19.4968 9.21186 19.0323 7.94769Z" fill="#1A1712"/>
</svg>
