<svg width="24" height="24" viewBox="0 0 24 24" fill="none" xmlns="http://www.w3.org/2000/svg">
<mask id="path-1-inside-1_1625_13928" fill="white">
<path fill-rule="evenodd" clip-rule="evenodd" d="M2.18418 21.3314C2.10236 21.6284 2.37285 21.9025 2.6709 21.8247L7.27824 20.6213C8.7326 21.409 10.37 21.8275 12.0371 21.8275H12.0421C17.5281 21.8275 22 17.3815 22 11.9163C22 9.26735 20.966 6.77594 19.0863 4.90491C17.2065 3.03397 14.7084 2 12.042 2C6.55607 2 2.08411 6.44605 2.08411 11.9114C2.08348 13.65 2.5424 15.3582 3.41479 16.8645L2.18418 21.3314ZM8.88597 7.16985C9.06893 7.17475 9.27177 7.18465 9.46475 7.61303C9.59273 7.89821 9.8083 8.4232 9.98392 8.85087C10.1206 9.18366 10.233 9.45751 10.2612 9.51356C10.3255 9.64156 10.365 9.78926 10.2809 9.96156C10.271 9.98188 10.2617 10.0013 10.2527 10.02C10.1852 10.16 10.1372 10.2597 10.0237 10.3899C9.9771 10.4435 9.92851 10.5022 9.8801 10.5607C9.79496 10.6636 9.71037 10.7658 9.63786 10.838C9.50926 10.9659 9.37565 11.1039 9.52404 11.3599C9.67252 11.6159 10.1919 12.4579 10.9587 13.1373C11.783 13.8712 12.4998 14.1805 12.8622 14.3368C12.9325 14.3672 12.9895 14.3918 13.0313 14.4126C13.2886 14.5406 13.4419 14.5209 13.5903 14.3486C13.7388 14.1762 14.2334 13.6001 14.4066 13.3441C14.5748 13.0881 14.7479 13.1275 14.9854 13.2161C15.2228 13.3047 16.4892 13.9251 16.7464 14.0531C16.7972 14.0784 16.8448 14.1012 16.8889 14.1224C17.0678 14.2082 17.1895 14.2665 17.2411 14.3535C17.3054 14.4618 17.3054 14.9739 17.0927 15.5746C16.8751 16.1752 15.8263 16.7513 15.3514 16.7956C15.3064 16.7999 15.2617 16.8053 15.2156 16.8108C14.7804 16.8635 14.228 16.9303 12.2596 16.1555C9.83426 15.2018 8.23324 12.8354 7.90955 12.357C7.88399 12.3192 7.8664 12.2932 7.85699 12.2806L7.85152 12.2733C7.70425 12.0762 6.8033 10.8707 6.8033 9.62685C6.8033 8.43682 7.38952 7.81726 7.65691 7.53467C7.67386 7.51676 7.68952 7.50021 7.70367 7.48494C7.94108 7.22895 8.21816 7.16495 8.39127 7.16495C8.56447 7.16495 8.73757 7.16495 8.88597 7.16985Z"/>
</mask>
<path fill-rule="evenodd" clip-rule="evenodd" d="M2.18418 21.3314C2.10236 21.6284 2.37285 21.9025 2.6709 21.8247L7.27824 20.6213C8.7326 21.409 10.37 21.8275 12.0371 21.8275H12.0421C17.5281 21.8275 22 17.3815 22 11.9163C22 9.26735 20.966 6.77594 19.0863 4.90491C17.2065 3.03397 14.7084 2 12.042 2C6.55607 2 2.08411 6.44605 2.08411 11.9114C2.08348 13.65 2.5424 15.3582 3.41479 16.8645L2.18418 21.3314ZM8.88597 7.16985C9.06893 7.17475 9.27177 7.18465 9.46475 7.61303C9.59273 7.89821 9.8083 8.4232 9.98392 8.85087C10.1206 9.18366 10.233 9.45751 10.2612 9.51356C10.3255 9.64156 10.365 9.78926 10.2809 9.96156C10.271 9.98188 10.2617 10.0013 10.2527 10.02C10.1852 10.16 10.1372 10.2597 10.0237 10.3899C9.9771 10.4435 9.92851 10.5022 9.8801 10.5607C9.79496 10.6636 9.71037 10.7658 9.63786 10.838C9.50926 10.9659 9.37565 11.1039 9.52404 11.3599C9.67252 11.6159 10.1919 12.4579 10.9587 13.1373C11.783 13.8712 12.4998 14.1805 12.8622 14.3368C12.9325 14.3672 12.9895 14.3918 13.0313 14.4126C13.2886 14.5406 13.4419 14.5209 13.5903 14.3486C13.7388 14.1762 14.2334 13.6001 14.4066 13.3441C14.5748 13.0881 14.7479 13.1275 14.9854 13.2161C15.2228 13.3047 16.4892 13.9251 16.7464 14.0531C16.7972 14.0784 16.8448 14.1012 16.8889 14.1224C17.0678 14.2082 17.1895 14.2665 17.2411 14.3535C17.3054 14.4618 17.3054 14.9739 17.0927 15.5746C16.8751 16.1752 15.8263 16.7513 15.3514 16.7956C15.3064 16.7999 15.2617 16.8053 15.2156 16.8108C14.7804 16.8635 14.228 16.9303 12.2596 16.1555C9.83426 15.2018 8.23324 12.8354 7.90955 12.357C7.88399 12.3192 7.8664 12.2932 7.85699 12.2806L7.85152 12.2733C7.70425 12.0762 6.8033 10.8707 6.8033 9.62685C6.8033 8.43682 7.38952 7.81726 7.65691 7.53467C7.67386 7.51676 7.68952 7.50021 7.70367 7.48494C7.94108 7.22895 8.21816 7.16495 8.39127 7.16495C8.56447 7.16495 8.73757 7.16495 8.88597 7.16985Z" fill="#1A1712" stroke="#1A1712" stroke-width="2" stroke-linejoin="round" mask="url(#path-1-inside-1_1625_13928)"/>
</svg>
