<svg width="24" height="24" viewBox="0 0 24 24" fill="none" xmlns="http://www.w3.org/2000/svg">
<mask id="path-1-inside-1_1625_13948" fill="white">
<path d="M12.4438 4.45819C12.3473 4.47419 12.2765 4.55766 12.2765 4.6555V11.057C12.2765 11.1675 12.3661 11.257 12.4765 11.257H21.0296C21.1401 11.257 21.2296 11.1675 21.2296 11.057V3.23819C21.2296 3.11468 21.1188 3.02069 20.9969 3.04088L12.4438 4.45819ZM12.2765 19.3674C12.2765 19.4655 12.3476 19.5491 12.4444 19.5648L20.9975 20.9575C21.1192 20.9773 21.2296 20.8834 21.2296 20.7601V12.9453C21.2296 12.8348 21.1401 12.7453 21.0296 12.7453H12.4765C12.3661 12.7453 12.2765 12.8348 12.2765 12.9453V19.3674ZM2.81482 11.0547C2.81482 11.1651 2.90436 11.2547 3.01482 11.2547H10.1828C10.2932 11.2547 10.3828 11.1651 10.3828 11.0547V4.96787C10.3828 4.84436 10.2719 4.75037 10.1501 4.77056L2.98213 5.9582C2.8856 5.97419 2.81482 6.05767 2.81482 6.15551V11.0547ZM2.81482 17.8909C2.81482 17.9889 2.88589 18.0725 2.98266 18.0883L10.1506 19.2559C10.2723 19.2758 10.3828 19.1818 10.3828 19.0585V12.9453C10.3828 12.8348 10.2932 12.7453 10.1828 12.7453H3.01482C2.90436 12.7453 2.81482 12.8348 2.81482 12.9453V17.8909Z"/>
</mask>
<path d="M12.4438 4.45819C12.3473 4.47419 12.2765 4.55766 12.2765 4.6555V11.057C12.2765 11.1675 12.3661 11.257 12.4765 11.257H21.0296C21.1401 11.257 21.2296 11.1675 21.2296 11.057V3.23819C21.2296 3.11468 21.1188 3.02069 20.9969 3.04088L12.4438 4.45819ZM12.2765 19.3674C12.2765 19.4655 12.3476 19.5491 12.4444 19.5648L20.9975 20.9575C21.1192 20.9773 21.2296 20.8834 21.2296 20.7601V12.9453C21.2296 12.8348 21.1401 12.7453 21.0296 12.7453H12.4765C12.3661 12.7453 12.2765 12.8348 12.2765 12.9453V19.3674ZM2.81482 11.0547C2.81482 11.1651 2.90436 11.2547 3.01482 11.2547H10.1828C10.2932 11.2547 10.3828 11.1651 10.3828 11.0547V4.96787C10.3828 4.84436 10.2719 4.75037 10.1501 4.77056L2.98213 5.9582C2.8856 5.97419 2.81482 6.05767 2.81482 6.15551V11.0547ZM2.81482 17.8909C2.81482 17.9889 2.88589 18.0725 2.98266 18.0883L10.1506 19.2559C10.2723 19.2758 10.3828 19.1818 10.3828 19.0585V12.9453C10.3828 12.8348 10.2932 12.7453 10.1828 12.7453H3.01482C2.90436 12.7453 2.81482 12.8348 2.81482 12.9453V17.8909Z" fill="#1A1712" stroke="#1A1712" stroke-width="3" stroke-linejoin="round" mask="url(#path-1-inside-1_1625_13948)"/>
</svg>
