<svg width="24" height="24" viewBox="0 0 24 24" fill="none" xmlns="http://www.w3.org/2000/svg">
<path fill-rule="evenodd" clip-rule="evenodd" d="M6.98888 4.89055C10.3246 4.62958 13.6755 4.62958 17.0112 4.89055L19.2519 5.06585C20.5 5.16349 21.521 6.09889 21.7273 7.33366C22.2435 10.4232 22.2435 13.5769 21.7273 16.6664C21.521 17.9012 20.5 18.8366 19.2519 18.9342L17.0112 19.1095C13.6755 19.3705 10.3246 19.3705 6.98888 19.1095L4.74818 18.9342C3.50011 18.8366 2.47909 17.9012 2.27278 16.6664C1.75657 13.5769 1.75657 10.4232 2.27278 7.33366C2.47909 6.09889 3.50011 5.16349 4.74818 5.06585L6.98888 4.89055ZM10 14.4702V9.52989C10 9.2967 10.2544 9.15267 10.4543 9.27264L14.5713 11.7428C14.7655 11.8593 14.7655 12.1408 14.5713 12.2573L10.4543 14.7274C10.2544 14.8474 10 14.7034 10 14.4702Z" fill="#1A1712"/>
</svg>
