<svg width="160" height="81" viewBox="0 0 160 81" fill="none" xmlns="http://www.w3.org/2000/svg">
<g clip-path="url(#clip0_876_2789)">
<path d="M104.569 17.0867C104.569 17.0867 104.569 17.0867 104.569 17.0689C104.569 17.0333 104.516 17.0156 104.516 16.98C104.48 16.8911 104.462 16.7844 104.391 16.7133C104.391 16.7133 104.356 16.7133 104.338 16.6778C104.302 16.6422 104.249 16.6422 104.196 16.6067C104.107 16.5533 104.018 16.5178 103.911 16.5178C103.893 16.5178 103.876 16.5 103.84 16.5L65.5467 19.9489C65.2444 19.9844 65.0133 20.18 64.9422 20.4644C64.8711 20.7489 64.9955 21.0511 65.2444 21.2111L72.9422 26.1L72.6578 45.0867C70.0978 47.1311 68.16 48.6778 66.9155 49.7089C66.4889 49.9756 66.0089 50.3489 65.4578 50.8289C64.4444 51.7 63.4311 52.6244 62.4355 53.5667C62.3111 53.6733 62.2044 53.78 62.0978 53.8867C61.7067 54.26 61.2267 54.6511 60.6578 55.0956C60.0889 55.54 59.4844 55.8778 58.88 56.1267C58.2755 56.3756 57.7067 56.3933 57.1911 56.1978C56.6755 56.0022 56.2844 55.4511 56.0178 54.58C55.84 53.8867 55.7867 53.1044 55.8578 52.2511C55.9289 51.3978 56.0355 50.5444 56.2311 49.7089C58.1867 48.8556 60.0355 47.7 61.8133 46.2422C62.3644 45.7978 62.9867 45.2289 63.6444 44.5533C64.3022 43.8778 64.8889 43.1489 65.3867 42.3844C65.7244 41.7978 65.9378 41.1933 66.0089 40.5711C66.08 39.9489 65.9733 39.4156 65.6711 38.9533C65.3689 38.4911 64.8178 38.2422 64.0178 38.1533C62.8444 38.1 61.7422 38.3667 60.6755 38.9711C59.6089 39.5756 58.6311 40.4111 57.7422 41.4778C56.8533 42.5444 56.0711 43.7356 55.4311 45.0511C54.7911 46.3667 54.2933 47.7 53.9555 49.0511C53.9022 49.3 53.8667 49.6022 53.8133 49.8689C52.8711 50.4556 52.1067 50.7044 51.5022 50.58C50.88 50.4556 50.4 50.0467 50.0622 49.3533C49.7244 48.66 49.5111 47.8244 49.3867 46.8111C49.2622 45.7978 49.2089 44.7667 49.2267 43.6822C49.2444 42.5978 49.2622 41.6022 49.28 40.7133C49.3155 40.0556 49.3333 39.5044 49.3333 39.06C49.3333 38.8111 49.1378 38.6333 48.8 38.4911C48.4622 38.3489 48.1067 38.2956 47.7511 38.3133C47.3955 38.3311 47.1467 38.4378 47.0222 38.6333C46.8444 39.06 46.5244 39.8244 46.0978 40.9089C46.0444 41.0333 45.9911 41.1578 45.9378 41.3C45.8844 41.4422 45.8311 41.6022 45.7244 41.8156C45.3867 42.6689 44.8889 43.8956 44.2311 45.4422C43.5733 46.9889 42.8444 48.6067 42.0444 50.26C41.2444 51.9133 40.4622 53.3178 39.68 54.4733C38.8978 55.6289 38.2222 56.2511 37.6178 56.3222C37.1733 56.3222 36.8533 55.9844 36.6755 55.3267C36.4978 54.6689 36.3911 53.8511 36.3733 52.9267C36.3555 52.0022 36.3733 51.1489 36.4267 50.3667C36.48 49.5844 36.5155 49.0867 36.5511 48.8556C37.0311 45.3178 37.6889 41.7978 38.5067 38.2956C39.3244 34.7933 39.9289 32.5178 40.2667 31.4689C40.2667 31.3622 40.16 31.22 39.8755 31.0244C39.5911 30.8289 39.2533 30.6689 38.8622 30.5444C38.4711 30.42 38.08 30.4022 37.6889 30.4911C37.2978 30.58 37.0311 30.8644 36.8178 31.3444C36.4622 32.3044 35.8755 33.9756 35.04 36.3222C33.6533 40.2689 32.0889 44.6067 30.3644 49.3356C30.2578 49.62 30.1511 49.9044 30.0444 50.1889C29.6178 51.3978 29.1378 52.66 28.6044 53.94C28.0711 55.22 27.5022 56.4111 26.8622 57.4778C26.3467 58.3133 25.7955 58.9889 25.1733 59.5044C24.5511 60.02 23.9644 60.18 23.4311 59.9844C22.8978 59.7889 22.5067 59.0422 22.2755 57.7444C22.0978 56.3222 22.08 54.7578 22.2222 53.1044C22.3644 51.4511 22.5067 50.1711 22.6489 49.2822C22.6489 49.1222 22.6844 48.9978 22.7022 48.9089C23.04 46.3667 23.4311 43.7889 23.8578 41.1756C24.16 39.22 24.4444 37.3889 24.6933 35.6644C24.9422 33.94 25.1022 32.4644 25.1733 31.2378C25.2267 29.7267 24.9067 28.5889 24.2133 27.7889C23.52 26.9889 22.5955 26.5978 21.4933 26.58C20.2844 26.6333 19.1289 27.0244 18.0267 27.7711C16.9244 28.5178 16.2667 29.3178 16.0355 30.1889C15.9822 30.4733 16.0355 30.6867 16.1778 30.8289C16.32 30.9711 16.4978 31.06 16.7111 31.06C16.9244 31.06 17.1022 30.9889 17.2444 30.8289C17.76 30.2778 18.2933 29.7444 18.88 29.2467C19.4667 28.7489 20.0178 28.3933 20.5333 28.1622C21.0489 27.9311 21.4755 27.9667 21.7955 28.2511C22.1155 28.5356 22.2933 29.1756 22.3111 30.1889C22.3111 31.1489 22.1689 32.3756 21.9555 33.8156C21.7422 35.2556 21.4578 36.8733 21.1378 38.6333C20.8533 40.2333 20.5689 41.8689 20.3022 43.54C20.0355 45.2111 19.8222 46.8467 19.6444 48.4467C19.6444 48.66 19.6089 48.9089 19.5733 49.1578C19.4489 50.1711 19.36 51.38 19.2889 52.7844C19.2178 54.1889 19.2889 55.5756 19.4667 56.9444C19.6444 58.3133 20.0889 59.4333 20.7644 60.34C21.44 61.2467 22.4711 61.7089 23.8755 61.7444C24.7111 61.7444 25.5644 61.4778 26.4533 60.9444C27.3422 60.4111 28.16 59.54 28.9067 58.3667C29.9378 56.5711 30.88 54.58 31.7511 52.3933C32.6222 50.2067 33.2978 48.34 33.8311 46.7578C34.0089 46.26 34.1511 45.8511 34.2933 45.4956L34.24 45.7267C34.1155 46.4733 33.9733 47.4867 33.8311 48.7667C33.76 49.5489 33.7067 50.3667 33.6889 51.1844C33.6711 52.0022 33.7067 52.82 33.7955 53.6022C33.8844 54.3844 34.0622 55.0956 34.3111 55.7356C34.56 56.3756 34.9333 56.8733 35.3955 57.2644C35.8578 57.6556 36.4622 57.8333 37.2089 57.8333C37.8489 57.8333 38.4711 57.6911 39.04 57.4067C39.6089 57.1222 40.1955 56.6067 40.7822 55.8778C41.8133 54.5622 42.7733 52.98 43.68 51.1311C44.5867 49.2822 45.3689 47.5222 46.0444 45.8333C46.72 44.1444 47.2 42.8644 47.5022 42.0111C47.4489 43.0956 47.4667 44.3044 47.5555 45.6733C47.6444 47.0422 47.8933 48.2689 48.32 49.4067C48.6222 50.1711 49.0844 50.8111 49.6889 51.3089C50.2933 51.8067 51.04 52.0556 51.9289 52.02C52.4267 52.02 52.9778 51.86 53.5644 51.6111C53.5111 52.9444 53.6889 54.1 54.08 55.0422C54.5244 56.1267 55.1111 56.8556 55.8222 57.2467C56.5333 57.6378 57.3155 57.7622 58.1689 57.6378C59.0222 57.5133 59.8578 57.2111 60.6755 56.7311C61.4933 56.2511 62.2755 55.7 62.9511 55.0422C64.0355 54.0111 65.0844 53.0333 66.1155 52.0911C67.1467 51.1489 67.9111 50.5444 68.3555 50.2422C68.3733 50.2422 68.3733 50.1711 68.3911 50.1356C69.6533 49.1044 71.4133 47.7 73.6355 45.9222C73.6533 45.9044 73.6889 45.8867 73.7067 45.8689C73.7067 45.8689 73.7067 45.8689 73.7244 45.8689C74.2933 45.4244 74.8622 44.9622 75.4844 44.4644C77.5644 42.8111 79.9822 40.8911 82.6667 38.74L87.2178 44.5356C87.2178 44.5356 87.2533 44.5711 87.2711 44.5889C87.3067 44.6422 87.36 44.6778 87.4133 44.7133C87.4133 44.7133 87.4311 44.7133 87.4489 44.7133C87.4844 44.7311 87.52 44.7489 87.5555 44.7489C87.6089 44.7667 87.6622 44.7844 87.7155 44.7844H87.7511H87.7867C87.9289 44.7844 88.0533 44.7311 88.16 44.66C88.2133 44.6067 88.2844 44.5533 88.32 44.4822L104.338 17.5133C104.427 17.3533 104.444 17.1933 104.427 17.0511L104.569 17.0867ZM58.4 44.2156C58.72 43.6467 59.1644 42.9889 59.7333 42.2244C60.3022 41.46 60.9422 40.8022 61.6711 40.2333C61.92 40.0556 62.24 39.86 62.6311 39.6644C63.0222 39.4689 63.4133 39.3622 63.7867 39.3444C64.16 39.3267 64.4267 39.5044 64.5867 39.86C64.7289 40.2867 64.64 40.7844 64.3555 41.3356C64.0711 41.8867 63.6622 42.4378 63.1644 42.9711C62.6667 43.5044 62.1867 43.9844 61.7244 44.3933C61.2622 44.8022 60.9422 45.0867 60.7644 45.2289C59.4844 46.2956 58.1511 47.1844 56.7289 47.9311C57.1555 46.6333 57.7067 45.4067 58.3822 44.2333L58.4 44.2156ZM74.0622 41.7444L74.1155 37.8333L74.1867 33.3533L74.2933 26.2778L99.0933 19.2733L78.2222 31.7711C78.2222 31.7711 78.2044 31.8067 78.1867 31.8067H78.1511C78.1155 31.8244 78.1155 31.8778 78.0978 31.9133C78.0444 31.9667 77.9733 32.02 77.9378 32.0911L74.0622 41.7267V41.7444ZM74.9333 43.2733L78.7733 33.7444L81.9022 37.7267C79.3067 39.8067 76.9778 41.6733 74.9333 43.2911V43.2733Z" fill="white"/>
<path d="M83.4488 50.1C82.9688 49.62 82.4177 49.2289 81.7955 48.9445C81.1733 48.66 80.4977 48.5178 79.7688 48.5178C79.5022 48.5178 79.1822 48.5356 78.791 48.5889C78.3999 48.6423 77.991 48.7489 77.5822 48.9089C77.1733 49.0689 76.7644 49.3178 76.3733 49.6378C76.1422 49.8156 75.911 50.0467 75.7155 50.2956V48.9267H74.1688V64.2156H75.7155V57.7623C75.8933 57.9934 76.0888 58.1712 76.3022 58.3489C76.6755 58.6334 77.0666 58.8645 77.4577 59.0423C77.8488 59.2023 78.2577 59.3089 78.6666 59.38C79.7866 59.5223 80.7822 59.4689 81.7422 59.0423C82.3466 58.7756 82.8977 58.3845 83.3777 57.9045C83.8577 57.4245 84.2488 56.8378 84.5333 56.18C84.8177 55.5223 84.9599 54.7756 84.9599 53.9756C84.9599 53.1756 84.8177 52.4823 84.551 51.8067C84.2844 51.1312 83.911 50.5623 83.431 50.0645L83.4488 50.1ZM83.4133 54.0645C83.4133 54.6512 83.3066 55.22 83.111 55.7178C82.9155 56.2156 82.6488 56.66 82.2933 57.0156C81.9555 57.3712 81.5288 57.6556 81.0666 57.8689C80.1244 58.2778 78.951 58.2778 78.0266 57.8689C77.5644 57.6734 77.1555 57.3889 76.8177 57.0156C76.4799 56.66 76.2133 56.2156 76.0177 55.7C75.8222 55.2023 75.7155 54.6334 75.7155 54.0467C75.7155 53.46 75.8222 52.9267 76.0177 52.4289C76.2133 51.9312 76.4799 51.4689 76.8355 51.0778C77.1733 50.6867 77.5822 50.3845 78.0444 50.1534C78.5066 49.9223 79.0222 49.8156 79.5555 49.8156C80.0888 49.8156 80.6044 49.9223 81.0666 50.1356C81.5288 50.3489 81.9377 50.6512 82.2933 51.0245C82.6488 51.3978 82.9155 51.86 83.111 52.3756C83.3066 52.8912 83.4133 53.46 83.4133 54.0467V54.0645Z" fill="white"/>
<path d="M88.3022 48.5178H86.7555V59.4512H88.3022V48.5178Z" fill="white"/>
<path d="M99.3421 50.2956C99.1466 50.0467 98.9155 49.8156 98.6844 49.6378C98.2755 49.3356 97.8666 49.0867 97.4577 48.9089C97.0488 48.7312 96.6399 48.6245 96.2488 48.5889C95.8577 48.5356 95.5377 48.5178 95.271 48.5178C94.5599 48.5178 93.8844 48.66 93.2444 48.9445C92.6221 49.2289 92.071 49.6023 91.591 50.1C91.111 50.58 90.7377 51.1667 90.471 51.8423C90.2044 52.5178 90.0621 53.2467 90.0621 54.0112C90.0621 54.7756 90.2044 55.54 90.4888 56.2156C90.7732 56.8734 91.1644 57.46 91.6444 57.94C92.1244 58.42 92.6755 58.8112 93.2799 59.0778C93.9021 59.3445 94.5421 59.4867 95.2177 59.4867C95.5732 59.4867 95.9466 59.4512 96.3555 59.3978C96.7644 59.3445 97.1732 59.2378 97.5644 59.06C97.9555 58.9 98.3466 58.6689 98.7199 58.3667C98.9332 58.2067 99.1288 58.0112 99.3066 57.78V59.4512H100.853V48.5178H99.3066V50.2956H99.3421ZM98.2399 51.0245C98.5777 51.3978 98.8621 51.86 99.0577 52.3756C99.2532 52.8912 99.3599 53.4423 99.3599 54.0467C99.3599 54.6512 99.2532 55.2023 99.0577 55.7C98.8621 56.1978 98.5955 56.6423 98.2399 57.0156C97.9021 57.3712 97.4932 57.6556 97.031 57.8689C96.1066 58.2778 94.9155 58.2778 93.991 57.8689C93.5288 57.6734 93.1199 57.3889 92.7644 57.0156C92.4266 56.66 92.1421 56.2156 91.9466 55.7C91.751 55.2023 91.6444 54.6334 91.6444 54.0467C91.6444 53.46 91.751 52.8912 91.9466 52.3756C92.1421 51.86 92.4266 51.4156 92.7644 51.0245C93.1021 50.6334 93.5288 50.3489 93.991 50.1356C94.4532 49.9223 94.9688 49.8156 95.5021 49.8156C96.0355 49.8156 96.551 49.9223 97.0132 50.1356C97.4755 50.3489 97.8844 50.6512 98.2221 51.0245H98.2399Z" fill="white"/>
<path d="M111.858 50.3668C111.52 49.8334 111.058 49.389 110.471 49.0512C109.884 48.7134 109.138 48.5356 108.249 48.5356C107.36 48.5356 106.595 48.7312 105.938 49.1401C105.529 49.389 105.173 49.709 104.871 50.0645V48.5356H103.324V59.469H104.871V53.9934C104.871 53.4068 104.96 52.8556 105.138 52.3401C105.315 51.8423 105.564 51.3801 105.867 51.0068C106.169 50.6334 106.524 50.3312 106.915 50.1356C107.307 49.9223 107.733 49.8156 108.16 49.8156C108.711 49.8156 109.173 49.9045 109.564 50.1001C109.938 50.2956 110.24 50.5445 110.489 50.8823C110.72 51.2379 110.915 51.6645 111.022 52.1623C111.147 52.6779 111.2 53.2468 111.2 53.869V59.469H112.747V54.0823C112.747 53.4423 112.675 52.8023 112.551 52.1623C112.427 51.5045 112.195 50.9001 111.858 50.3845V50.3668Z" fill="white"/>
<path d="M123.698 50.3668C123.36 49.8334 122.898 49.389 122.311 49.0512C121.724 48.7134 120.978 48.5356 120.089 48.5356C119.2 48.5356 118.436 48.7312 117.778 49.1401C117.369 49.389 117.013 49.709 116.711 50.0645V48.5356H115.164V59.469H116.711V53.9934C116.711 53.4068 116.8 52.8556 116.978 52.3401C117.156 51.8423 117.404 51.3801 117.707 51.0068C118.009 50.6334 118.364 50.3312 118.756 50.1356C119.147 49.9223 119.573 49.8156 120 49.8156C120.551 49.8156 121.013 49.9045 121.404 50.1001C121.778 50.2956 122.08 50.5445 122.329 50.8823C122.56 51.2379 122.756 51.6645 122.862 52.1623C122.987 52.6779 123.04 53.2468 123.04 53.869V59.469H124.587V54.0823C124.587 53.4423 124.516 52.8023 124.391 52.1623C124.267 51.5045 124.036 50.9001 123.698 50.3845V50.3668Z" fill="white"/>
<path d="M135.467 51.1312C135.2 50.5978 134.862 50.1356 134.453 49.7445C134.044 49.3534 133.547 49.0512 132.995 48.8378C132.444 48.6245 131.804 48.5178 131.111 48.5178C130.418 48.5178 129.724 48.66 129.12 48.9445C128.515 49.2289 127.982 49.62 127.538 50.1178C127.093 50.6156 126.755 51.2023 126.507 51.8778C126.258 52.5534 126.151 53.2645 126.151 54.0112C126.151 54.7934 126.275 55.54 126.542 56.1978C126.791 56.8556 127.164 57.4423 127.627 57.9223C128.089 58.4023 128.64 58.7756 129.262 59.0423C129.884 59.3089 130.595 59.4512 131.342 59.4512C132.889 59.4512 134.098 59.0778 134.969 58.3312L135.111 58.2067L134.453 56.98L134.24 57.1578C133.867 57.4778 133.458 57.7267 132.995 57.8867C132.071 58.2245 130.827 58.2245 129.938 57.8512C129.493 57.6734 129.102 57.4067 128.8 57.0867C128.48 56.7489 128.231 56.3578 128.053 55.9134C127.893 55.54 127.804 55.1134 127.769 54.6867H136.124L136.16 54.4912C136.178 54.3312 136.195 54.1 136.195 53.7623C136.195 53.4245 136.178 53.14 136.124 52.8556C136.018 52.1978 135.822 51.5934 135.555 51.0778L135.467 51.1312ZM127.733 53.4245C127.769 52.9267 127.875 52.4645 128.035 52.0556C128.231 51.5756 128.48 51.1667 128.782 50.8467C129.084 50.5089 129.44 50.26 129.849 50.0823C130.702 49.7089 131.733 49.7445 132.48 50.0823C132.889 50.26 133.227 50.5089 133.529 50.8467C133.813 51.1845 134.062 51.5756 134.222 52.0556C134.364 52.4645 134.471 52.9267 134.507 53.4423H127.715L127.733 53.4245Z" fill="white"/>
<path d="M143.822 48.5712C143.715 48.5356 143.591 48.5178 143.431 48.5178C143.289 48.5178 143.164 48.5178 143.058 48.5178C142.809 48.5178 142.507 48.5356 142.151 48.5889C141.795 48.6423 141.44 48.7312 141.067 48.8734C140.693 49.0156 140.338 49.2467 139.982 49.5312C139.804 49.6734 139.627 49.8512 139.467 50.0467V48.5356H137.92V59.2023H139.467V53.4956C139.467 52.9978 139.555 52.5178 139.715 52.0734C139.875 51.6289 140.124 51.2378 140.427 50.9C140.729 50.5623 141.12 50.2956 141.564 50.1C142.009 49.9045 142.507 49.7978 143.04 49.7978C143.093 49.7978 143.147 49.7978 143.218 49.7978C143.289 49.7978 143.342 49.7978 143.395 49.8156L143.858 49.9045L144 48.6067L143.822 48.5534V48.5712Z" fill="white"/>
</g>
<defs>
<clipPath id="clip0_876_2789">
<rect width="160" height="80" fill="white" transform="translate(0 0.5)"/>
</clipPath>
</defs>
</svg>
